<svg version="1.1" xmlns="http://www.w3.org/2000/svg" viewBox="0 0 1138 350" width="1138" height="350">
  <!-- svg-source:excalidraw -->
  
  <defs>
    <style class="style-fonts">
      @font-face {
        font-family: "Virgil";
        src: url("https://excalidraw.com/Virgil.woff2");
      }
      @font-face {
        font-family: "Cascadia";
        src: url("https://excalidraw.com/Cascadia.woff2");
      }
      @font-face {
        font-family: "Assistant";
        src: url("https://excalidraw.com/Assistant-Regular.woff2");
      }
    </style>
    
  </defs>
  <g stroke-linecap="round" transform="translate(10 99) rotate(0 96.5 76)"><path d="M0 0 C0 0, 0 0, 0 0 M0 0 C0 0, 0 0, 0 0 M-0.26 6.4 C0.47 4.1, 2.52 3.74, 4.99 0.36 M-0.26 6.4 C1.53 4.59, 2.75 2.83, 4.99 0.36 M0.13 12.04 C2.45 8.29, 8.11 3.88, 10.63 -0.03 M0.13 12.04 C4.48 8.02, 8.01 3.34, 10.63 -0.03 M-0.13 18.44 C2.84 13.09, 7.64 6.19, 15.62 0.33 M-0.13 18.44 C5.73 11.9, 9.73 6.92, 15.62 0.33 M0.27 24.08 C5.01 16.13, 12.09 11.03, 21.26 -0.07 M0.27 24.08 C9.27 13.67, 17.05 4.28, 21.26 -0.07 M0 30.48 C10.83 21.21, 20.64 8.1, 26.25 0.29 M0 30.48 C8.39 22.32, 15.48 13.01, 26.25 0.29 M-0.26 36.88 C8.33 23.39, 19.5 12.1, 31.89 -0.1 M-0.26 36.88 C9.86 25.13, 18.79 15.21, 31.89 -0.1 M0.14 42.52 C11.66 26.38, 26.79 13.09, 36.88 0.26 M0.14 42.52 C10.38 31.29, 19.04 21.52, 36.88 0.26 M-0.12 48.92 C15.45 32.78, 28.61 15.87, 42.52 -0.14 M-0.12 48.92 C13.29 32.86, 27.54 18.02, 42.52 -0.14 M0.27 54.56 C12.62 41.23, 22.19 30.25, 47.51 0.22 M0.27 54.56 C10.24 41.78, 20.65 29.69, 47.51 0.22 M0.01 60.96 C19.65 36.87, 41.31 14.51, 53.15 -0.17 M0.01 60.96 C15.43 41.08, 33.09 23.41, 53.15 -0.17 M-0.25 67.36 C19.02 41.06, 42.83 17.85, 58.14 0.19 M-0.25 67.36 C12.07 52.72, 25.39 38.72, 58.14 0.19 M0.14 73 C17.29 52.67, 30.41 34.92, 63.78 -0.21 M0.14 73 C19.78 51.16, 37.43 29.87, 63.78 -0.21 M-0.12 79.4 C15.69 62.44, 29.25 45.76, 68.77 0.15 M-0.12 79.4 C15.98 61.7, 32.53 43.03, 68.77 0.15 M0.28 85.04 C20.58 63.37, 42.97 38.97, 74.41 -0.24 M0.28 85.04 C23.43 57.84, 46.37 32.79, 74.41 -0.24 M0.01 91.44 C22.82 64.33, 44.08 42.41, 79.4 0.12 M0.01 91.44 C22.89 63.9, 45.59 38.29, 79.4 0.12 M-0.25 97.84 C33.03 59.5, 64.31 24.29, 85.04 -0.28 M-0.25 97.84 C32.27 59.02, 64.94 22.11, 85.04 -0.28 M0.15 103.48 C26.4 74.63, 51.4 40.46, 90.03 0.08 M0.15 103.48 C34.09 64.88, 66.35 27.62, 90.03 0.08 M-0.11 109.88 C39.23 67.6, 73.49 25.3, 95.67 -0.31 M-0.11 109.88 C32.02 70.14, 66.16 32.02, 95.67 -0.31 M0.28 115.52 C29.26 83.56, 57.13 51.64, 100.66 0.05 M0.28 115.52 C30.44 80.4, 60.95 45.5, 100.66 0.05 M0.02 121.92 C33.69 80.56, 72.17 40.5, 106.3 -0.34 M0.02 121.92 C24.43 93.9, 48.32 64.5, 106.3 -0.34 M-0.24 128.32 C31.58 87.81, 64.81 52.93, 111.29 0.02 M-0.24 128.32 C27.76 94.38, 56.18 62.75, 111.29 0.02 M0.15 133.96 C40.37 85.66, 83.22 36.34, 116.27 0.38 M0.15 133.96 C28.44 101.84, 57.55 70.25, 116.27 0.38 M-0.11 140.36 C30.34 106.35, 60.84 71.96, 121.92 -0.02 M-0.11 140.36 C32.23 103.6, 63.45 67.91, 121.92 -0.02 M0.29 146 C52.68 87.19, 100.91 29.9, 126.91 0.34 M0.29 146 C50.12 89.52, 99.91 31.6, 126.91 0.34 M0.02 152.4 C40.25 106.21, 77.84 63.29, 132.55 -0.05 M0.02 152.4 C35.51 113.24, 67.51 73.94, 132.55 -0.05 M5.67 152 C44.63 109.08, 82.03 65.91, 137.54 0.31 M5.67 152 C48.37 103.59, 90.67 54.17, 137.54 0.31 M10.65 152.36 C47.44 112.76, 79.87 74.9, 143.18 -0.09 M10.65 152.36 C47.13 109.1, 83.65 67.46, 143.18 -0.09 M16.3 151.97 C53.84 110.33, 89.17 70.5, 148.17 0.27 M16.3 151.97 C44.54 118.56, 73.83 85.43, 148.17 0.27 M21.28 152.33 C48.89 118.18, 80.97 87.69, 153.81 -0.12 M21.28 152.33 C58.51 108.68, 96.28 66.45, 153.81 -0.12 M26.93 151.93 C69.42 105.31, 108.92 57.78, 158.8 0.24 M26.93 151.93 C67.25 106.11, 107.94 60.74, 158.8 0.24 M31.91 152.29 C68.32 108.46, 106.72 65.82, 164.44 -0.16 M31.91 152.29 C67.93 110.12, 105.95 67.73, 164.44 -0.16 M37.56 151.9 C79.92 101.87, 124.32 53.87, 169.43 0.2 M37.56 151.9 C86.26 94.42, 134.69 38.2, 169.43 0.2 M42.54 152.26 C75.34 115.63, 105.96 77.75, 175.07 -0.19 M42.54 152.26 C70.67 122.23, 97.44 91.8, 175.07 -0.19 M48.19 151.86 C76.25 120.63, 101.96 88.55, 180.06 0.17 M48.19 151.86 C79.35 115.7, 109.64 79.51, 180.06 0.17 M53.17 152.23 C96.96 101.76, 139.59 51.13, 185.7 -0.23 M53.17 152.23 C89.35 110.08, 126.69 67.51, 185.7 -0.23 M58.82 151.83 C109.24 96.89, 157.51 38.59, 190.69 0.13 M58.82 151.83 C96.78 108.05, 135.06 62.66, 190.69 0.13 M63.8 152.19 C93.44 120.56, 119.46 91.43, 193.05 3.51 M63.8 152.19 C94.36 116.51, 125.63 81.65, 193.05 3.51 M68.79 152.55 C95.91 119.89, 124.05 86.33, 193.44 9.16 M68.79 152.55 C110.24 104.4, 150.02 59.23, 193.44 9.16 M74.43 152.16 C102.14 118.72, 130.2 88.31, 193.18 15.55 M74.43 152.16 C106.16 115.09, 139.94 76.14, 193.18 15.55 M79.42 152.52 C116.11 113.07, 149.29 73.82, 193.58 21.2 M79.42 152.52 C116.24 108, 156.21 63.37, 193.58 21.2 M85.06 152.12 C128.74 104.24, 171.96 56.08, 193.31 27.59 M85.06 152.12 C121.43 109.92, 157.14 69.53, 193.31 27.59 M90.05 152.48 C117.48 122.8, 145.73 88.47, 193.05 33.99 M90.05 152.48 C123.01 114.45, 156.61 75.49, 193.05 33.99 M95.69 152.09 C128.57 117.2, 156.88 80.4, 193.45 39.64 M95.69 152.09 C117.59 129.07, 137.91 103.18, 193.45 39.64 M100.68 152.45 C139.12 110.86, 175.2 69.93, 193.19 46.03 M100.68 152.45 C124.68 124.93, 148.92 98.89, 193.19 46.03 M106.33 152.05 C134.15 120.75, 160.21 89.2, 193.58 51.68 M106.33 152.05 C125.71 128.53, 146.75 106.5, 193.58 51.68 M111.31 152.41 C134.54 127.31, 156.03 101.62, 193.32 58.07 M111.31 152.41 C137.69 122.39, 164.21 91.21, 193.32 58.07 M116.96 152.02 C140.4 122.61, 166.42 94.14, 193.06 64.47 M116.96 152.02 C145.58 118.78, 173.4 86.35, 193.06 64.47 M121.94 152.38 C139.21 132.07, 153.48 113.25, 193.45 70.11 M121.94 152.38 C144.92 125.2, 166.69 100.23, 193.45 70.11 M127.59 151.98 C150.71 124.68, 172.66 99.82, 193.19 76.51 M127.59 151.98 C153.48 123.3, 177.47 94.19, 193.19 76.51 M132.57 152.34 C144.84 138.23, 156.9 122.12, 192.93 82.91 M132.57 152.34 C155.52 125.05, 181.04 97.92, 192.93 82.91 M138.22 151.95 C152.8 136.46, 165.68 122.54, 193.32 88.55 M138.22 151.95 C149.99 139.52, 162.2 125.81, 193.32 88.55 M143.2 152.31 C154.07 138.52, 164.77 125.16, 193.06 94.95 M143.2 152.31 C160.34 132.54, 177.65 113.14, 193.06 94.95 M148.85 151.91 C162.02 136.4, 180.32 119.09, 193.46 100.59 M148.85 151.91 C166.71 132.51, 185.18 111.94, 193.46 100.59 M153.83 152.27 C167.12 138.49, 178.47 123.51, 193.2 106.99 M153.83 152.27 C166.06 138.55, 180.25 121.87, 193.2 106.99 M159.48 151.88 C170.49 136.97, 182.38 122.9, 192.93 113.39 M159.48 151.88 C169.65 139.7, 180.69 128.28, 192.93 113.39 M164.46 152.24 C172.29 145.07, 178.08 134.18, 193.33 119.03 M164.46 152.24 C173.53 141.02, 182.91 130.88, 193.33 119.03 M170.11 151.85 C179.11 144.58, 185.14 132.09, 193.07 125.43 M170.11 151.85 C176.03 144.45, 180.47 139.02, 193.07 125.43 M175.09 152.21 C180.19 144.39, 188.1 136.22, 193.46 131.07 M175.09 152.21 C179.53 145.79, 185.96 140.37, 193.46 131.07 M180.74 151.81 C183.77 144.96, 190.13 142.7, 193.2 137.47 M180.74 151.81 C185.17 145.55, 190.96 141.3, 193.2 137.47 M185.72 152.17 C188.31 150.28, 188.59 147.96, 192.94 143.87 M185.72 152.17 C188.21 148.67, 190.91 145.93, 192.94 143.87 M190.71 152.53 C191.16 151.72, 192.26 150.3, 193.33 149.51 M190.71 152.53 C191.25 151.6, 191.87 150.99, 193.33 149.51" stroke="#fa5252" stroke-width="0.5" fill="none"></path><path d="M0 0 C66.7 -1.92, 132.77 -1.5, 193 0 M0 0 C63.49 1.68, 127.12 2.09, 193 0 M193 0 C190.82 46.94, 193.02 91.99, 193 152 M193 0 C193.07 48.63, 192.65 99.44, 193 152 M193 152 C150.48 154.22, 111.87 154.25, 0 152 M193 152 C123.36 150.02, 52.61 150.88, 0 152 M0 152 C0.05 117.37, 2.35 81.03, 0 0 M0 152 C0.04 113.96, 0.25 74.67, 0 0" stroke="#000000" stroke-width="1" fill="none"></path></g><g stroke-linecap="round" transform="translate(328.5 96) rotate(0 96.5 76)"><path d="M0 0 C45.82 1.64, 93.58 1, 193 0 M0 0 C72.37 -0.84, 142.53 -1.01, 193 0 M193 0 C190.69 31.28, 191.15 64.04, 193 152 M193 0 C193.76 54.29, 194.04 110.59, 193 152 M193 152 C117.41 152, 37.34 152.24, 0 152 M193 152 C131.14 150.36, 71.73 150.34, 0 152 M0 152 C-0.49 111.16, -0.38 72.12, 0 0 M0 152 C1.16 115.93, 0.96 79.57, 0 0" stroke="#000000" stroke-width="1" fill="none"></path></g><g stroke-linecap="round" transform="translate(649.5 95) rotate(0 96.5 76)"><path d="M0 0 C60.57 0.22, 120.66 3, 193 0 M0 0 C52.17 -2.14, 104.52 -2.61, 193 0 M193 0 C193.7 33.14, 195.02 68.83, 193 152 M193 0 C192.63 55.5, 194.04 111.88, 193 152 M193 152 C130.41 152.22, 68.93 153.85, 0 152 M193 152 C148.07 150.97, 103.14 149.94, 0 152 M0 152 C-1.35 102.48, -0.07 51.73, 0 0 M0 152 C1.74 116.34, 1.95 81.17, 0 0" stroke="#000000" stroke-width="1" fill="none"></path></g><g transform="translate(1067 102) rotate(0 -1.5 78)" stroke="none"><path fill="#000000" d="M -0.99,1.98 Q -0.99,1.98 -2.15,1.45 -3.30,0.92 -4.36,0.79 -5.42,0.67 -6.74,0.27 -8.07,-0.12 -9.18,-0.22 -10.30,-0.31 -11.69,-0.32 -13.09,-0.32 -15.50,0.68 -17.91,1.68 -20.32,2.57 -22.74,3.45 -25.13,4.60 -27.53,5.76 -29.05,6.79 -30.58,7.82 -31.70,9.04 -32.82,10.26 -34.29,11.49 -35.77,12.72 -37.18,14.21 -38.59,15.71 -40.51,17.05 -42.44,18.39 -43.64,19.91 -44.84,21.43 -45.95,22.99 -47.06,24.56 -48.44,26.37 -49.81,28.18 -50.92,30.28 -52.03,32.39 -53.75,34.57 -55.46,36.76 -56.65,39.77 -57.84,42.79 -58.64,46.07 -59.45,49.34 -60.39,52.52 -61.33,55.71 -61.71,58.67 -62.09,61.63 -62.25,64.61 -62.42,67.59 -62.49,70.58 -62.56,73.57 -62.60,76.57 -62.63,79.57 -62.36,83.09 -62.08,86.61 -61.69,89.53 -61.29,92.44 -61.11,95.77 -60.93,99.09 -60.58,101.87 -60.22,104.65 -59.78,107.56 -59.35,110.47 -58.59,113.68 -57.84,116.88 -56.68,119.91 -55.52,122.93 -54.45,125.68 -53.37,128.43 -51.53,131.21 -49.70,133.99 -47.20,137.19 -44.70,140.39 -41.42,143.11 -38.14,145.82 -34.99,148.46 -31.83,151.09 -28.56,153.01 -25.29,154.93 -22.52,156.02 -19.75,157.10 -17.42,157.86 -15.09,158.61 -13.04,158.91 -10.99,159.21 -8.69,159.35 -6.40,159.48 -2.60,159.25 1.19,159.02 6.24,158.35 11.28,157.69 17.06,155.71 22.84,153.72 26.74,152.03 30.64,150.33 33.67,148.49 36.71,146.65 39.71,144.45 42.71,142.24 44.50,140.50 46.30,138.75 47.26,136.72 48.22,134.68 49.84,131.71 51.46,128.74 52.38,125.32 53.29,121.90 54.86,117.20 56.44,112.49 57.07,107.75 57.71,103.00 57.99,98.11 58.27,93.22 58.68,88.23 59.08,83.24 59.26,79.14 59.43,75.04 58.93,71.68 58.44,68.33 57.94,65.43 57.44,62.53 56.67,59.62 55.89,56.71 55.27,54.30 54.64,51.89 53.82,49.47 52.99,47.06 52.07,44.59 51.14,42.13 50.44,40.21 49.73,38.29 48.86,36.71 47.99,35.14 47.24,33.89 46.50,32.65 45.63,31.32 44.77,30.00 43.92,29.35 43.06,28.70 41.87,27.85 40.67,26.99 38.89,26.02 37.10,25.06 35.00,23.34 32.90,21.62 31.41,19.98 29.93,18.34 27.93,16.24 25.93,14.14 23.87,11.45 21.82,8.75 20.42,7.07 19.02,5.40 18.03,3.38 17.04,1.37 16.08,0.14 15.12,-1.07 13.96,-1.93 12.80,-2.79 11.73,-2.69 10.65,-2.60 9.01,-2.06 7.38,-1.52 6.14,-1.34 4.90,-1.17 4.11,-0.50 3.32,0.15 3.01,0.51 2.71,0.87 2.30,1.12 1.89,1.36 1.43,1.46 0.97,1.57 0.50,1.51 0.03,1.46 -0.39,1.26 -0.82,1.06 -1.17,0.74 -1.51,0.41 -1.73,-0.00 -1.96,-0.42 -2.03,-0.88 -2.11,-1.35 -2.03,-1.82 -1.95,-2.29 -1.73,-2.70 -1.51,-3.12 -1.17,-3.45 -0.82,-3.77 -0.39,-3.97 0.03,-4.17 0.50,-4.22 0.97,-4.27 1.43,-4.17 1.90,-4.07 2.30,-3.82 2.71,-3.58 3.01,-3.22 3.32,-2.86 3.50,-2.42 3.67,-1.98 3.70,-1.50 3.72,-1.03 3.59,-0.57 3.47,-0.12 3.20,0.26 2.94,0.66 2.56,0.94 2.18,1.23 1.73,1.38 1.28,1.53 0.81,1.53 0.33,1.53 -0.10,1.38 -0.55,1.23 -0.93,0.94 -1.31,0.65 -1.57,0.26 -1.84,-0.12 -1.96,-0.58 -2.09,-1.04 -2.06,-1.51 -2.04,-1.98 -1.86,-2.42 -1.69,-2.86 -1.69,-2.86 -1.69,-2.86 0.22,-4.51 2.14,-6.17 4.29,-6.45 6.43,-6.73 7.50,-7.12 8.57,-7.52 10.19,-7.37 11.81,-7.22 13.11,-6.87 14.40,-6.52 15.40,-5.68 16.39,-4.85 17.04,-3.86 17.70,-2.87 18.65,-1.36 19.60,0.14 20.40,1.86 21.20,3.58 22.67,5.27 24.13,6.96 26.12,9.49 28.10,12.02 30.18,14.09 32.26,16.17 33.62,17.58 34.97,19.00 36.85,20.41 38.72,21.83 40.89,22.82 43.05,23.81 44.37,24.86 45.70,25.91 46.72,27.03 47.75,28.16 48.59,29.66 49.43,31.15 50.00,32.48 50.56,33.81 51.42,35.59 52.28,37.37 52.94,39.29 53.60,41.21 54.54,43.71 55.48,46.21 56.33,48.72 57.19,51.23 57.81,53.63 58.43,56.04 59.23,59.06 60.03,62.08 60.53,65.02 61.04,67.95 61.54,71.55 62.05,75.15 61.88,79.30 61.70,83.46 61.30,88.42 60.89,93.37 60.60,98.37 60.31,103.36 59.62,108.34 58.93,113.32 57.38,117.96 55.83,122.60 54.80,126.29 53.77,129.98 52.17,132.91 50.57,135.84 49.37,138.22 48.16,140.60 46.21,142.48 44.27,144.36 41.17,146.63 38.07,148.90 34.88,150.82 31.69,152.74 27.69,154.47 23.69,156.21 17.66,158.25 11.64,160.29 6.49,160.97 1.34,161.64 -2.60,161.87 -6.55,162.10 -8.96,161.96 -11.38,161.81 -13.64,161.46 -15.90,161.11 -18.30,160.33 -20.71,159.55 -23.67,158.37 -26.62,157.20 -30.06,155.15 -33.50,153.11 -36.67,150.48 -39.83,147.84 -43.30,144.93 -46.77,142.01 -49.33,138.72 -51.90,135.43 -53.85,132.42 -55.81,129.40 -56.89,126.63 -57.98,123.87 -59.19,120.68 -60.40,117.48 -61.17,114.17 -61.95,110.87 -62.39,107.92 -62.83,104.98 -63.20,102.11 -63.56,99.23 -63.73,96.02 -63.90,92.80 -64.31,89.80 -64.72,86.81 -64.99,83.17 -65.27,79.54 -65.24,76.53 -65.22,73.51 -65.15,70.48 -65.08,67.45 -64.91,64.37 -64.74,61.29 -64.33,58.12 -63.92,54.95 -63.00,51.82 -62.09,48.69 -61.24,45.23 -60.40,41.77 -59.04,38.41 -57.68,35.06 -56.13,33.06 -54.57,31.06 -53.38,28.74 -52.20,26.43 -50.88,24.59 -49.56,22.76 -48.39,21.16 -47.22,19.56 -45.77,17.70 -44.32,15.84 -42.71,14.64 -41.10,13.45 -39.59,11.67 -38.09,9.89 -36.77,8.83 -35.46,7.77 -34.06,6.31 -32.66,4.86 -30.98,3.65 -29.29,2.44 -26.83,1.02 -24.38,-0.38 -22.14,-1.48 -19.91,-2.58 -17.74,-3.78 -15.57,-4.99 -14.27,-5.28 -12.97,-5.58 -11.33,-5.38 -9.70,-5.18 -7.14,-4.57 -4.58,-3.95 -2.93,-3.58 -1.29,-3.22 -0.14,-2.60 0.99,-1.98 1.21,-1.84 1.44,-1.69 1.62,-1.49 1.80,-1.29 1.93,-1.06 2.06,-0.82 2.13,-0.57 2.20,-0.31 2.20,-0.04 2.21,0.22 2.15,0.48 2.09,0.74 1.97,0.98 1.85,1.22 1.68,1.43 1.50,1.63 1.28,1.79 1.07,1.94 0.82,2.04 0.57,2.14 0.30,2.18 0.04,2.22 -0.22,2.19 -0.48,2.16 -0.74,2.07 -0.99,1.98 -0.99,1.98 L -0.99,1.98 Z"></path></g><g stroke-linecap="round" transform="translate(1044 151) rotate(0 3 3.5)"><path d="M3.06 -0.15 C3.74 -0.16, 4.73 0.58, 5.26 1.14 C5.8 1.69, 6.18 2.51, 6.27 3.18 C6.35 3.85, 6.13 4.49, 5.77 5.16 C5.4 5.83, 4.7 6.98, 4.07 7.18 C3.44 7.39, 2.58 6.76, 1.97 6.38 C1.36 6, 0.73 5.49, 0.41 4.9 C0.1 4.3, -0.03 3.5, 0.08 2.8 C0.2 2.11, 0.6 1.14, 1.08 0.73 C1.57 0.31, 2.65 0.46, 2.97 0.31 C3.3 0.16, 2.97 -0.16, 3.02 -0.2 M2.46 0.17 C3.16 0.12, 4.38 0.31, 4.88 0.72 C5.37 1.13, 5.2 1.96, 5.43 2.63 C5.67 3.3, 6.41 4.01, 6.3 4.72 C6.2 5.44, 5.55 6.58, 4.82 6.93 C4.1 7.28, 2.68 6.96, 1.95 6.81 C1.23 6.66, 0.8 6.59, 0.47 6.01 C0.14 5.43, -0.11 4.09, -0.02 3.36 C0.06 2.63, 0.61 2.18, 0.98 1.64 C1.36 1.1, 2.02 0.44, 2.25 0.12 C2.48 -0.2, 2.34 -0.37, 2.37 -0.27" stroke="#000000" stroke-width="1" fill="none"></path></g><g stroke-linecap="round" transform="translate(1079 152) rotate(0 5 4)"><path d="M5.73 -0.24 C6.8 -0.3, 7.89 0.14, 8.67 0.72 C9.45 1.29, 10.43 2.26, 10.42 3.2 C10.42 4.14, 9.42 5.66, 8.65 6.36 C7.89 7.05, 6.85 7.25, 5.84 7.39 C4.83 7.53, 3.49 7.48, 2.58 7.21 C1.67 6.95, 0.74 6.47, 0.4 5.8 C0.06 5.13, 0.29 3.98, 0.52 3.17 C0.74 2.37, 0.83 1.52, 1.75 0.99 C2.68 0.46, 5.35 0.09, 6.06 0.01 C6.77 -0.08, 6.18 0.44, 6.01 0.49 M4.36 0.4 C5.39 0.21, 7.52 -0.1, 8.45 0.28 C9.38 0.66, 9.84 1.81, 9.93 2.67 C10.02 3.54, 9.35 4.54, 8.98 5.47 C8.61 6.4, 8.53 7.9, 7.71 8.26 C6.89 8.62, 5.28 8.04, 4.08 7.64 C2.87 7.24, 1.16 6.46, 0.48 5.86 C-0.19 5.26, -0.14 4.85, 0.03 4.06 C0.19 3.28, 0.63 1.85, 1.46 1.17 C2.29 0.49, 4.43 0.05, 5.01 0 C5.6 -0.06, 5.03 0.69, 4.95 0.83" stroke="#000000" stroke-width="1" fill="none"></path></g><g stroke-linecap="round"><g transform="translate(1042 226) rotate(0 28 -10.5)"><path d="M-1.03 0.11 C1.45 -3.23, 9.08 -17.47, 15.97 -21.15 C22.86 -24.83, 33.67 -24.72, 40.31 -21.97 C46.96 -19.23, 53.11 -7.61, 55.86 -4.69 M0.63 -0.88 C3.38 -4.02, 11.72 -16.84, 18.14 -20.22 C24.57 -23.6, 32.87 -23.97, 39.19 -21.17 C45.5 -18.37, 53.27 -6.33, 56.03 -3.43" stroke="#000000" stroke-width="1" fill="none"></path></g></g><mask></mask><g stroke-linecap="round"><g transform="translate(984.0367359377444 153.4804508589208) rotate(0 -66.01836796887221 -0.5071094701876291)"><path d="M1.04 -0.52 C-20.66 -0.51, -109.21 0, -131.19 0.08 M0.12 1.82 C-21.57 1.52, -109.84 -0.85, -131.7 -1.47" stroke="#000000" stroke-width="1" fill="none"></path></g><g transform="translate(984.0367359377444 153.4804508589208) rotate(0 -66.01836796887221 -0.5071094701876291)"><path d="M-107.98 -9.38 C-113.92 -6.08, -116.31 -3.84, -131.7 -1.47 M-107.98 -9.38 C-117.25 -7.19, -125.19 -3.56, -131.7 -1.47" stroke="#000000" stroke-width="1" fill="none"></path></g><g transform="translate(984.0367359377444 153.4804508589208) rotate(0 -66.01836796887221 -0.5071094701876291)"><path d="M-108.45 7.72 C-114.29 7.36, -116.58 5.94, -131.7 -1.47 M-108.45 7.72 C-117.39 3.43, -125.15 0.58, -131.7 -1.47" stroke="#000000" stroke-width="1" fill="none"></path></g></g><mask></mask><g stroke-linecap="round"><g transform="translate(642 143.83458182088793) rotate(0 -59.75 0.116826359330787)"><path d="M-0.74 0.41 C-20.43 0.43, -98.46 -1.02, -118.44 -0.88 M1.08 -0.42 C-18.65 -0.2, -98.93 0.09, -118.83 0.07" stroke="#000000" stroke-width="1" fill="none"></path></g><g transform="translate(642 143.83458182088793) rotate(0 -59.75 0.116826359330787)"><path d="M-95.36 -8.52 C-101.21 -4.54, -110.21 -5.82, -118.83 0.07 M-95.36 -8.52 C-105.04 -4.37, -112.75 -2.53, -118.83 0.07" stroke="#000000" stroke-width="1" fill="none"></path></g><g transform="translate(642 143.83458182088793) rotate(0 -59.75 0.116826359330787)"><path d="M-95.33 8.58 C-101.04 7.86, -110.05 1.87, -118.83 0.07 M-95.33 8.58 C-104.86 6.17, -112.59 1.45, -118.83 0.07" stroke="#000000" stroke-width="1" fill="none"></path></g></g><mask></mask><g stroke-linecap="round"><g transform="translate(327 141) rotate(0 -61 -0.5)"><path d="M-0.18 -1.07 C-20.61 -1.16, -102.56 -1.44, -122.77 -1.51 M-1.73 0.99 C-21.76 1.13, -100.43 0, -120.47 -0.24" stroke="#000000" stroke-width="1" fill="none"></path></g><g transform="translate(327 141) rotate(0 -61 -0.5)"><path d="M-96.86 -8.49 C-105.45 -7.45, -111.27 -2.91, -120.47 -0.24 M-96.86 -8.49 C-103.7 -7.24, -108.23 -3.76, -120.47 -0.24" stroke="#000000" stroke-width="1" fill="none"></path></g><g transform="translate(327 141) rotate(0 -61 -0.5)"><path d="M-97.09 8.61 C-105.48 4.76, -111.23 4.42, -120.47 -0.24 M-97.09 8.61 C-103.85 5.46, -108.32 4.54, -120.47 -0.24" stroke="#000000" stroke-width="1" fill="none"></path></g></g><mask></mask><g stroke-linecap="round"><g transform="translate(211 193) rotate(0 57.24487656243144 1.250468028900002)"><path d="M-0.37 -0.47 C18.97 -0.09, 95.68 3.07, 114.98 3.37" stroke="#000000" stroke-width="1.5" fill="none" stroke-dasharray="8 9"></path></g><g transform="translate(211 193) rotate(0 57.24487656243144 1.250468028900002)"><path d="M91.24 11.22 C95.35 10.47, 102.54 9.58, 114.98 3.37" stroke="#000000" stroke-width="1.5" fill="none"></path></g><g transform="translate(211 193) rotate(0 57.24487656243144 1.250468028900002)"><path d="M91.75 -5.87 C95.91 -3.06, 102.99 -0.37, 114.98 3.37" stroke="#000000" stroke-width="1.5" fill="none"></path></g></g><mask></mask><g stroke-linecap="round"><g transform="translate(526 195) rotate(0 60 -1)"><path d="M-0.78 -1 C19.25 -1.69, 100.12 -2.97, 120.11 -3.13" stroke="#000000" stroke-width="1.5" fill="none" stroke-dasharray="8 9"></path></g><g transform="translate(526 195) rotate(0 60 -1)"><path d="M96.73 5.72 C101.96 3.41, 108.72 -0.77, 120.11 -3.13" stroke="#000000" stroke-width="1.5" fill="none"></path></g><g transform="translate(526 195) rotate(0 60 -1)"><path d="M96.51 -11.38 C101.94 -8.58, 108.77 -7.67, 120.11 -3.13" stroke="#000000" stroke-width="1.5" fill="none"></path></g></g><mask></mask><g stroke-linecap="round"><g transform="translate(852 201) rotate(0 76.5 -0.5)"><path d="M-0.36 1.19 C25.12 0.82, 126.79 -1.47, 152.17 -1.84" stroke="#000000" stroke-width="1.5" fill="none" stroke-dasharray="8 9"></path></g><g transform="translate(852 201) rotate(0 76.5 -0.5)"><path d="M128.84 7.16 C136.41 3.67, 138.65 1.06, 152.17 -1.84" stroke="#000000" stroke-width="1.5" fill="none"></path></g><g transform="translate(852 201) rotate(0 76.5 -0.5)"><path d="M128.52 -9.94 C136.21 -9.31, 138.53 -7.81, 152.17 -1.84" stroke="#000000" stroke-width="1.5" fill="none"></path></g></g><mask></mask><g stroke-linecap="round"><g transform="translate(1001 44) rotate(0 -354 2.5)"><path d="M0.53 0.95 C-117.19 1.95, -589.39 4.87, -707.34 5.67 M-0.65 0.4 C-118.39 1.09, -590.14 3.33, -707.94 3.9" stroke="#000000" stroke-width="1" fill="none"></path></g><g transform="translate(1001 44) rotate(0 -354 2.5)"><path d="M-684.49 -4.76 C-688.03 -1.68, -693.57 0.52, -707.94 3.9 M-684.49 -4.76 C-693.15 -2.35, -701.57 1.93, -707.94 3.9" stroke="#000000" stroke-width="1" fill="none"></path></g><g transform="translate(1001 44) rotate(0 -354 2.5)"><path d="M-684.41 12.34 C-687.91 11.71, -693.47 10.2, -707.94 3.9 M-684.41 12.34 C-693.08 8.53, -701.54 6.58, -707.94 3.9" stroke="#000000" stroke-width="1" fill="none"></path></g></g><mask></mask><g transform="translate(521 10) rotate(0 84.5 12.5)"><text x="0" y="17.52" font-family="Virgil, Segoe UI Emoji" font-size="20px" fill="#000000" text-anchor="start" style="white-space: pre;" direction="ltr" dominant-baseline="alphabetic">Forward pressure</text></g><g stroke-linecap="round"><g transform="translate(36 292) rotate(0 451.5 -2)"><path d="M0.04 0.04 C150.55 -0.49, 752.97 -2.81, 903.3 -3.62" stroke="#000000" stroke-width="1.5" fill="none" stroke-dasharray="8 9"></path></g><g transform="translate(36 292) rotate(0 451.5 -2)"><path d="M879.85 5.04 C887.41 2.78, 895.43 -2.14, 903.3 -3.62" stroke="#000000" stroke-width="1.5" fill="none"></path></g><g transform="translate(36 292) rotate(0 451.5 -2)"><path d="M879.77 -12.07 C887.3 -8.88, 895.34 -8.36, 903.3 -3.62" stroke="#000000" stroke-width="1.5" fill="none"></path></g></g><mask></mask><g transform="translate(323 315) rotate(0 65 12.5)"><text x="0" y="17.52" font-family="Virgil, Segoe UI Emoji" font-size="20px" fill="#000000" text-anchor="start" style="white-space: pre;" direction="ltr" dominant-baseline="alphabetic">Backpressure</text></g><g transform="translate(43 139) rotate(0 72.5 17.5)"><text x="0" y="24.528" font-family="Virgil, Segoe UI Emoji" font-size="28px" fill="#000000" text-anchor="start" style="white-space: pre;" direction="ltr" dominant-baseline="alphabetic">Overload!!!</text></g></svg>