<svg version="1.1" xmlns="http://www.w3.org/2000/svg" viewBox="0 0 1531 801" width="1531" height="801">
  <!-- svg-source:excalidraw -->
  
  <defs>
    <style class="style-fonts">
      @font-face {
        font-family: "Virgil";
        src: url("https://excalidraw.com/Virgil.woff2");
      }
      @font-face {
        font-family: "Cascadia";
        src: url("https://excalidraw.com/Cascadia.woff2");
      }
      @font-face {
        font-family: "Assistant";
        src: url("https://excalidraw.com/Assistant-Regular.woff2");
      }
    </style>
    
  </defs>
  <g stroke-linecap="round" transform="translate(436.5 10) rotate(0 201.5 190)"><path d="M293.92 20.66 C310.69 25.66, 326.61 40.41, 340.12 52.25 C353.63 64.09, 365.72 77.29, 374.99 91.7 C384.26 106.12, 391.01 122.25, 395.73 138.75 C400.45 155.25, 403.31 173.57, 403.31 190.69 C403.31 207.82, 400.76 225.12, 395.75 241.52 C390.74 257.91, 382.66 274.29, 373.25 289.07 C363.84 303.85, 352.57 318.39, 339.31 330.19 C326.05 341.99, 310.01 352.19, 293.69 359.88 C277.38 367.58, 259.1 372.99, 241.4 376.37 C223.71 379.75, 205.41 381.39, 187.53 380.17 C169.64 378.95, 151.2 374.92, 134.09 369.03 C116.99 363.15, 99.86 354.94, 84.89 344.85 C69.92 334.76, 55.75 321.88, 44.29 308.48 C32.83 295.09, 23.08 279.93, 16.13 264.47 C9.17 249.02, 5.07 232.46, 2.57 215.76 C0.07 199.06, -1.39 181.31, 1.13 164.28 C3.64 147.25, 10.26 129.39, 17.67 113.59 C25.07 97.78, 34.01 82.64, 45.54 69.44 C57.06 56.24, 71.81 44.22, 86.81 34.39 C101.8 24.55, 118.48 16.22, 135.51 10.43 C152.55 4.65, 171.04 0.9, 189.03 -0.32 C207.01 -1.54, 224.98 -0.91, 243.44 3.11 C261.9 7.13, 289.99 19.34, 299.78 23.82 C309.58 28.29, 303.93 27.35, 302.21 29.99 M105.41 23.22 C118.92 12.51, 139.81 7.72, 157.38 3.7 C174.95 -0.32, 192.83 -2.04, 210.85 -0.9 C228.87 0.24, 248.2 4.96, 265.5 10.54 C282.8 16.12, 299.58 23.18, 314.63 32.59 C329.69 42.01, 344.35 54.19, 355.81 67.04 C367.28 79.88, 376.19 93.98, 383.42 109.67 C390.66 125.36, 396.16 144.28, 399.22 161.19 C402.29 178.1, 403.67 194.52, 401.8 211.11 C399.94 227.71, 394.94 244.74, 388.01 260.74 C381.08 276.75, 371.29 293.59, 360.23 307.14 C349.17 320.7, 336.46 331.78, 321.66 342.09 C306.87 352.4, 288.76 363.05, 271.46 369.01 C254.15 374.98, 235.72 376.55, 217.83 377.89 C199.93 379.22, 181.6 380.2, 164.07 377.04 C146.53 373.88, 128.95 366.47, 112.61 358.93 C96.27 351.38, 79.62 343.06, 66.01 331.77 C52.41 320.48, 40.74 305.54, 30.98 291.2 C21.23 276.86, 12.84 261.89, 7.46 245.74 C2.08 229.59, -1.14 211.49, -1.3 194.3 C-1.46 177.11, 1.88 159.06, 6.5 142.61 C11.13 126.17, 17.32 110.58, 26.44 95.62 C35.57 80.67, 48.29 65.16, 61.24 52.89 C74.19 40.63, 96.68 26.38, 104.17 22.04 C111.65 17.69, 104.19 23.83, 106.16 26.83" stroke="#000000" stroke-width="1" fill="none"></path></g><g stroke-linecap="round"><g transform="translate(501.5 25) rotate(0 5 26)"><path d="M-0.72 1.16 C-3.89 9.81, -24.29 45.67, -19.34 51.46 C-14.4 57.25, 20.62 38.16, 28.96 35.89 M1.1 0.72 C-2.13 9.56, -24.98 46.73, -19.94 52.71 C-14.91 58.7, 22.76 39.46, 31.31 36.62" stroke="#000000" stroke-width="1" fill="none"></path></g></g><mask></mask><g stroke-linecap="round" transform="translate(238.5 150.4280701754385) rotate(0 74.5 24.57192982456141)"><path d="M0 0 C44.18 1.22, 87.79 -2.52, 149 0 M0 0 C38.85 0.07, 76.97 -0.31, 149 0 M149 0 C146.96 16.97, 149.41 32.93, 149 49.14 M149 0 C149.28 9.19, 148.35 19.54, 149 49.14 M149 49.14 C96.23 51.34, 40.63 51.4, 0 49.14 M149 49.14 C108.91 48.73, 67.33 48.67, 0 49.14 M0 49.14 C-0.4 33.84, 0.08 20.28, 0 0 M0 49.14 C-0.67 35.3, 0.51 20.1, 0 0" stroke="#000000" stroke-width="1" fill="none"></path></g><g stroke-linecap="round" transform="translate(272.52807017543864 156.70175438596493) rotate(0 10.194736842105272 18.821052631578937)"><path d="M0 0 C0 0, 0 0, 0 0 M0 0 C0 0, 0 0, 0 0 M-0.26 6.4 C0.78 4.95, 2.43 2.97, 4.99 0.36 M-0.26 6.4 C1.25 4.93, 2.7 3.09, 4.99 0.36 M0.13 12.04 C2.22 8.67, 4.04 6.69, 10.63 -0.03 M0.13 12.04 C2.53 8.87, 5.56 6.25, 10.63 -0.03 M-0.13 18.44 C3.43 13.29, 9.89 8.66, 15.62 0.33 M-0.13 18.44 C5.12 11.92, 11.56 5.44, 15.62 0.33 M0.27 24.08 C6.4 16.91, 13.98 8.54, 20.6 0.69 M0.27 24.08 C6.57 16.91, 13.01 10.19, 20.6 0.69 M0 30.48 C6.01 23.27, 11.04 18.18, 21 6.33 M0 30.48 C8.14 21.68, 16.04 11.83, 21 6.33 M-0.26 36.88 C6.28 30.72, 12.08 23.96, 20.74 12.73 M-0.26 36.88 C5.47 29.92, 11.26 23.58, 20.74 12.73 M4.07 37.99 C8.93 33.86, 12.61 28.69, 21.13 18.37 M4.07 37.99 C8.41 32.75, 12.78 27.31, 21.13 18.37 M9.72 37.6 C11.71 34.05, 14.35 32.66, 20.87 24.77 M9.72 37.6 C14.12 33.19, 17.96 28.6, 20.87 24.77 M14.7 37.96 C16.97 36.02, 19.02 33.64, 20.61 31.17 M14.7 37.96 C16.48 35.75, 18.58 33.68, 20.61 31.17 M20.35 37.56 C20.5 37.42, 20.65 37.18, 21 36.81 M20.35 37.56 C20.49 37.39, 20.64 37.2, 21 36.81" stroke="#15aabf" stroke-width="0.5" fill="none"></path><path d="M0 0 C8.72 -0.12, 14.67 -0.42, 20.39 0 M0 0 C5.13 -0.06, 9.64 0.12, 20.39 0 M20.39 0 C20.57 11, 20.43 20.59, 20.39 37.64 M20.39 0 C19.74 8.78, 19.84 18.23, 20.39 37.64 M20.39 37.64 C12.82 37.96, 4.89 37.46, 0 37.64 M20.39 37.64 C15.6 37.67, 11.08 37.64, 0 37.64 M0 37.64 C-0.8 23.96, -0.57 9.8, 0 0 M0 37.64 C0.28 26.12, -0.12 14.45, 0 0" stroke="#000000" stroke-width="1" fill="none"></path></g><g stroke-linecap="round" transform="translate(303.89649122807214 156.17894736842095) rotate(0 10.194736842105272 19.08245614035087)"><path d="M0 0 C0 0, 0 0, 0 0 M0 0 C0 0, 0 0, 0 0 M-0.26 6.4 C2.01 3.89, 3.75 1.51, 4.99 0.36 M-0.26 6.4 C1.47 4.71, 2.83 2.6, 4.99 0.36 M0.13 12.04 C2.7 7.61, 6.66 3.92, 10.63 -0.03 M0.13 12.04 C2.34 9.48, 5.11 6.64, 10.63 -0.03 M-0.13 18.44 C6.24 12.29, 13.12 4.69, 15.62 0.33 M-0.13 18.44 C4.41 13.65, 8.97 8.19, 15.62 0.33 M0.27 24.08 C8.31 16.02, 15.13 6.41, 20.6 0.69 M0.27 24.08 C4.91 18.99, 10.01 12.94, 20.6 0.69 M0 30.48 C5.12 23.38, 12.36 18.16, 21 6.33 M0 30.48 C6.81 23.13, 12.59 15.5, 21 6.33 M-0.26 36.88 C7.28 29.47, 14.2 20.65, 20.74 12.73 M-0.26 36.88 C4.97 30.35, 10.82 24.27, 20.74 12.73 M3.42 38.75 C8.27 34.12, 12.08 28.3, 21.13 18.37 M3.42 38.75 C9.73 31.14, 15.84 24.03, 21.13 18.37 M8.41 39.11 C11.8 33.99, 17.59 30.22, 20.87 24.77 M8.41 39.11 C11.22 36.26, 13.84 33.24, 20.87 24.77 M14.05 38.71 C16.39 36.85, 18.23 34.22, 20.61 31.17 M14.05 38.71 C16.45 36.07, 19 32.91, 20.61 31.17 M19.04 39.07 C19.71 38.38, 20.09 37.74, 21 36.81 M19.04 39.07 C19.77 38.18, 20.5 37.38, 21 36.81" stroke="#15aabf" stroke-width="0.5" fill="none"></path><path d="M0 0 C6.8 -1.06, 13.42 -0.78, 20.39 0 M0 0 C7.13 0.14, 14.47 -0.16, 20.39 0 M20.39 0 C20.44 7.99, 19.27 14.92, 20.39 38.16 M20.39 0 C20.33 7.74, 20.83 16.7, 20.39 38.16 M20.39 38.16 C12.58 38.63, 4.03 37.4, 0 38.16 M20.39 38.16 C13.93 37.76, 7.49 38.45, 0 38.16 M0 38.16 C0.21 23.25, -0.06 9.31, 0 0 M0 38.16 C0.4 26.54, 0.54 15.55, 0 0" stroke="#000000" stroke-width="1" fill="none"></path></g><g stroke-linecap="round" transform="translate(333.1736842105263 156.70175438596402) rotate(0 10.456140350877206 19.08245614035087)"><path d="M0 0 C0 0, 0 0, 0 0 M0 0 C0 0, 0 0, 0 0 M-0.26 6.4 C1.67 3.92, 3.72 1.69, 4.99 0.36 M-0.26 6.4 C1.27 4.69, 2.39 3.15, 4.99 0.36 M0.13 12.04 C3.45 7.47, 7.51 2.56, 10.63 -0.03 M0.13 12.04 C4.23 7.83, 8.05 3.34, 10.63 -0.03 M-0.13 18.44 C5.94 13.41, 10.56 6.8, 15.62 0.33 M-0.13 18.44 C3.54 14.68, 6.54 11.38, 15.62 0.33 M0.27 24.08 C6.66 17.04, 11.51 10.52, 21.26 -0.07 M0.27 24.08 C8.2 15.68, 15.19 6.61, 21.26 -0.07 M0 30.48 C5.41 24.63, 12.69 16.9, 21 6.33 M0 30.48 C7.34 21.76, 14.4 13.82, 21 6.33 M-0.26 36.88 C6.46 30.29, 11.78 22.23, 21.39 11.97 M-0.26 36.88 C7.51 27.99, 15.71 17.95, 21.39 11.97 M3.42 38.75 C8.1 33.63, 11.59 29.4, 21.13 18.37 M3.42 38.75 C8.94 31.85, 14.96 25.22, 21.13 18.37 M8.41 39.11 C10.58 37.11, 14.09 32.45, 20.87 24.77 M8.41 39.11 C13.39 33.79, 18.22 27.89, 20.87 24.77 M14.05 38.71 C16.67 36.43, 18.46 34.1, 21.27 30.41 M14.05 38.71 C16.87 35.77, 19.12 32.67, 21.27 30.41 M19.04 39.07 C19.68 38.22, 20.38 37.52, 21 36.81 M19.04 39.07 C19.6 38.36, 20.27 37.69, 21 36.81" stroke="#15aabf" stroke-width="0.5" fill="none"></path><path d="M0 0 C5.49 -0.4, 12.21 0.52, 20.91 0 M0 0 C7.21 0.16, 13.9 -0.48, 20.91 0 M20.91 0 C21.2 6.76, 20.36 14.52, 20.91 38.16 M20.91 0 C20.34 14, 21.18 27.82, 20.91 38.16 M20.91 38.16 C13.34 37.93, 4.12 38.33, 0 38.16 M20.91 38.16 C12.82 38.08, 5.76 38.55, 0 38.16 M0 38.16 C-0.3 26.76, 0.26 15.51, 0 0 M0 38.16 C-0.23 29.43, 0.28 20.09, 0 0" stroke="#000000" stroke-width="1" fill="none"></path></g><g stroke-linecap="round" transform="translate(361.40526315789407 155.65614035087788) rotate(0 8.103508771929796 19.08245614035087)"><path d="M0 0 C0 0, 0 0, 0 0 M0 0 C0 0, 0 0, 0 0 M-0.26 6.4 C0.71 5.02, 1.93 3.75, 4.99 0.36 M-0.26 6.4 C1.49 4.1, 3.42 2.3, 4.99 0.36 M0.13 12.04 C3 8.28, 5.51 5.87, 10.63 -0.03 M0.13 12.04 C2.85 9.26, 5.28 6.65, 10.63 -0.03 M-0.13 18.44 C3.88 15.18, 6.31 9.86, 15.62 0.33 M-0.13 18.44 C3.21 14.61, 7.01 10.47, 15.62 0.33 M0.27 24.08 C4.11 18.93, 8.46 14.4, 16.67 5.21 M0.27 24.08 C5.78 17.85, 10.63 11.86, 16.67 5.21 M0 30.48 C6.48 25.03, 11.08 18.4, 17.06 10.86 M0 30.48 C5.38 23.78, 11.51 17.23, 17.06 10.86 M-0.26 36.88 C6.57 29.36, 11.91 22.99, 16.8 17.25 M-0.26 36.88 C4.42 31.76, 7.94 26.94, 16.8 17.25 M3.42 38.75 C8.22 32.67, 13.91 27.57, 16.54 23.65 M3.42 38.75 C6.71 34.57, 10.27 30.61, 16.54 23.65 M8.41 39.11 C11.1 37.14, 11.97 34.97, 16.93 29.3 M8.41 39.11 C11.83 35.48, 14.85 31.65, 16.93 29.3 M14.05 38.71 C15.09 37.63, 16.12 36.61, 16.67 35.69 M14.05 38.71 C14.78 37.83, 15.46 37.11, 16.67 35.69" stroke="#15aabf" stroke-width="0.5" fill="none"></path><path d="M0 0 C5.99 -0.48, 13.06 0.35, 16.21 0 M0 0 C6.34 -0.09, 12.04 -0.44, 16.21 0 M16.21 0 C15.32 12.21, 15.38 26.25, 16.21 38.16 M16.21 0 C16.47 8.21, 16.62 15.92, 16.21 38.16 M16.21 38.16 C10.5 37.55, 5.33 38.77, 0 38.16 M16.21 38.16 C12.3 38.39, 8.84 38.1, 0 38.16 M0 38.16 C-0.11 29.33, -0.03 19.62, 0 0 M0 38.16 C0.31 24.98, 0.13 11.33, 0 0" stroke="#000000" stroke-width="1" fill="none"></path></g><g stroke-opacity="0.8" fill-opacity="0.8" stroke-linecap="round" transform="translate(10 132) rotate(0 69.5 61.5)"><path d="M0 0 C0 0, 0 0, 0 0 M0 0 C0 0, 0 0, 0 0 M-0.26 6.4 C2.35 4.78, 3.02 1.55, 4.99 0.36 M-0.26 6.4 C1.37 4.51, 2.95 3.3, 4.99 0.36 M0.13 12.04 C3.6 7.68, 9.97 2.47, 10.63 -0.03 M0.13 12.04 C2.48 9.22, 6.31 5.25, 10.63 -0.03 M-0.13 18.44 C4.37 12.24, 5.81 11.17, 15.62 0.33 M-0.13 18.44 C5.95 12.01, 12.87 4.07, 15.62 0.33 M0.27 24.08 C4.24 17.7, 10.9 15.71, 21.26 -0.07 M0.27 24.08 C5.21 18.73, 11.05 11.72, 21.26 -0.07 M0 30.48 C10.48 20.08, 19.22 8.12, 26.25 0.29 M0 30.48 C10.38 18.93, 18.04 8.95, 26.25 0.29 M-0.26 36.88 C12.31 23.55, 22.97 9.8, 31.89 -0.1 M-0.26 36.88 C8.01 27.92, 13.95 20.83, 31.89 -0.1 M0.14 42.52 C10.72 31.7, 21.8 20.45, 36.88 0.26 M0.14 42.52 C13.84 25.79, 28.32 10.82, 36.88 0.26 M-0.12 48.92 C14.52 32.45, 29.8 12.09, 42.52 -0.14 M-0.12 48.92 C9.12 38.96, 17.32 29.06, 42.52 -0.14 M0.27 54.56 C15.9 36.96, 33.44 18.13, 47.51 0.22 M0.27 54.56 C18.28 33.57, 37.01 13.88, 47.51 0.22 M0.01 60.96 C15.71 45.84, 28.72 30.87, 53.15 -0.17 M0.01 60.96 C10.97 47.74, 22.82 35.62, 53.15 -0.17 M-0.25 67.36 C22.24 43.17, 43.47 19.52, 58.14 0.19 M-0.25 67.36 C18.78 47.16, 36.31 27.16, 58.14 0.19 M0.14 73 C14.47 57.94, 25.72 42.7, 63.78 -0.21 M0.14 73 C22.78 46.31, 45.92 19.37, 63.78 -0.21 M-0.12 79.4 C16.75 61.91, 31.2 44.21, 68.77 0.15 M-0.12 79.4 C14.61 63.19, 28.88 46.2, 68.77 0.15 M0.28 85.04 C31.51 53.79, 60.57 18.74, 74.41 -0.24 M0.28 85.04 C26.64 54.32, 53.91 21.93, 74.41 -0.24 M0.01 91.44 C28.84 58.52, 62.42 23.44, 79.4 0.12 M0.01 91.44 C23.59 62.79, 49.91 34.63, 79.4 0.12 M-0.25 97.84 C22.46 73.88, 42.11 50.96, 85.04 -0.28 M-0.25 97.84 C21.83 70.65, 44.83 46.02, 85.04 -0.28 M0.15 103.48 C21.4 80.19, 44.26 53.87, 90.03 0.08 M0.15 103.48 C17.25 82.29, 35.57 61.38, 90.03 0.08 M-0.11 109.88 C20.32 89.16, 39.73 64.44, 95.67 -0.31 M-0.11 109.88 C25.95 80.97, 51.52 50.07, 95.67 -0.31 M0.28 115.52 C31.94 73.37, 67.92 36.51, 100.66 0.05 M0.28 115.52 C21.74 90.09, 42.94 66.39, 100.66 0.05 M0.02 121.92 C21.99 92.61, 48.75 64.88, 106.3 -0.34 M0.02 121.92 C38.2 80.92, 73.99 37.49, 106.3 -0.34 M4.35 123.03 C42.57 76.88, 83.57 33.51, 111.29 0.02 M4.35 123.03 C26.67 93.6, 50.55 65.98, 111.29 0.02 M9.34 123.39 C33.53 97.59, 55.07 70.43, 116.27 0.38 M9.34 123.39 C30.81 97.67, 52.97 70.31, 116.27 0.38 M14.98 123 C51.44 82.58, 86.67 38.32, 121.92 -0.02 M14.98 123 C48.99 86.2, 79.92 48.8, 121.92 -0.02 M19.97 123.36 C43.48 95.6, 69.34 68.41, 126.91 0.34 M19.97 123.36 C56.02 79.57, 93.06 37.01, 126.91 0.34 M25.61 122.96 C51.49 93.74, 78.33 61.19, 132.55 -0.05 M25.61 122.96 C52.78 93.12, 79.66 63, 132.55 -0.05 M30.6 123.32 C58.89 94.78, 85.02 63.62, 137.54 0.31 M30.6 123.32 C71.04 77.49, 111.48 30.85, 137.54 0.31 M36.24 122.93 C75.59 79.62, 116.6 32.32, 139.24 4.44 M36.24 122.93 C57.61 99.07, 79.76 74.87, 139.24 4.44 M41.23 123.29 C61.08 98.5, 85.62 73.56, 138.98 10.84 M41.23 123.29 C70.12 90.29, 99.58 56.64, 138.98 10.84 M46.87 122.89 C66.21 100.66, 84.42 75.19, 139.37 16.48 M46.87 122.89 C77.19 89.41, 106.38 56.26, 139.37 16.48 M51.86 123.25 C72.78 99.89, 91.13 75.58, 139.11 22.88 M51.86 123.25 C73.94 97.02, 95.83 71.31, 139.11 22.88 M57.5 122.86 C88.11 88.66, 115.8 58.28, 138.85 29.28 M57.5 122.86 C76.69 100.08, 96.92 77.88, 138.85 29.28 M62.49 123.22 C82.71 96.11, 106.44 69.45, 139.25 34.92 M62.49 123.22 C89.82 93.45, 115.8 61.83, 139.25 34.92 M68.13 122.83 C93.51 94.25, 114.48 65.94, 138.99 41.32 M68.13 122.83 C83.46 104.86, 99.32 88.03, 138.99 41.32 M73.12 123.19 C99.75 95.19, 123.49 63.72, 139.38 46.96 M73.12 123.19 C88.95 105.74, 104.74 86.86, 139.38 46.96 M78.1 123.55 C93.34 104, 110.58 86.97, 139.12 53.36 M78.1 123.55 C92.01 109.5, 103.75 93.64, 139.12 53.36 M83.75 123.15 C93.86 109.34, 106.2 98.2, 138.86 59.76 M83.75 123.15 C102.07 102.14, 121.78 80.31, 138.86 59.76 M88.73 123.51 C108.99 104.02, 127.78 82.22, 139.25 65.4 M88.73 123.51 C108.72 101.21, 128.57 77.56, 139.25 65.4 M94.38 123.12 C105.36 110.68, 115.01 99.51, 138.99 71.8 M94.38 123.12 C104.37 113.8, 113.64 102.15, 138.99 71.8 M99.37 123.48 C106.89 113.47, 115.31 102.35, 139.38 77.44 M99.37 123.48 C107.67 111.7, 118.45 101.2, 139.38 77.44 M105.01 123.08 C114.49 113.56, 119.9 105.25, 139.12 83.84 M105.01 123.08 C119.06 108.06, 131.34 92.68, 139.12 83.84 M110 123.44 C119.94 113.64, 130.06 100.22, 138.86 90.24 M110 123.44 C115.83 115.55, 122.01 108.49, 138.86 90.24 M115.64 123.05 C124.3 114.3, 134.44 99.67, 139.26 95.88 M115.64 123.05 C124.93 113.65, 132.87 103.23, 139.26 95.88 M120.63 123.41 C126.3 113.73, 136.55 107.84, 138.99 102.28 M120.63 123.41 C127.18 116.72, 131.66 109.97, 138.99 102.28 M126.27 123.01 C131.76 118.86, 134.1 110.48, 139.39 107.92 M126.27 123.01 C131.84 117.27, 134.92 112.68, 139.39 107.92 M131.26 123.37 C133.02 122.67, 134.9 120.24, 139.13 114.32 M131.26 123.37 C133.45 120.14, 136.56 116.6, 139.13 114.32 M136.9 122.98 C137.53 122.68, 137.63 122.32, 138.87 120.71 M136.9 122.98 C137.64 122.2, 138.2 121.31, 138.87 120.71" stroke="#228be6" stroke-width="0.5" fill="none"></path><path d="M0 0 C53.77 0.7, 105.22 2.21, 139 0 M0 0 C39.53 -0.48, 80.24 0.62, 139 0 M139 0 C140.23 24.54, 139.92 49.15, 139 123 M139 0 C140.78 28.84, 139.37 58.82, 139 123 M139 123 C101.41 122.43, 65.73 121.7, 0 123 M139 123 C95.61 122.5, 54.94 122.74, 0 123 M0 123 C-0.91 88.84, 2.58 59.81, 0 0 M0 123 C-0.17 98.05, -1.44 74.19, 0 0" stroke="#000000" stroke-width="1" fill="none"></path></g><g transform="translate(33 183) rotate(0 47.5 12.5)"><text x="0" y="17.52" font-family="Virgil, Segoe UI Emoji" font-size="20px" fill="#000000" text-anchor="start" style="white-space: pre;" direction="ltr" dominant-baseline="alphabetic">Your code</text></g><g stroke-linecap="round"><g transform="translate(155 181.6365683076923) rotate(0 41.00000000000006 1.0655558314231826)"><path d="M-0.7 -0.98 C12.88 -0.65, 67.68 2.36, 81.33 2.72 M1.13 1.12 C15.12 1.03, 69.93 0.76, 83.69 0.91" stroke="#000000" stroke-width="1" fill="none"></path></g><g transform="translate(155 181.6365683076923) rotate(0 41.00000000000006 1.0655558314231826)"><path d="M60.18 9.42 C65.25 6, 74.61 3.36, 83.69 0.91 M60.18 9.42 C65.67 7.68, 71.13 5.04, 83.69 0.91" stroke="#000000" stroke-width="1" fill="none"></path></g><g transform="translate(155 181.6365683076923) rotate(0 41.00000000000006 1.0655558314231826)"><path d="M60.21 -7.68 C65.38 -6.19, 74.73 -3.93, 83.69 0.91 M60.21 -7.68 C65.54 -5.62, 70.99 -4.47, 83.69 0.91" stroke="#000000" stroke-width="1" fill="none"></path></g></g><mask></mask><g stroke-opacity="0.8" fill-opacity="0.8" stroke-linecap="round" transform="translate(951 79) rotate(0 73 37)"><path d="M0 0 C0 0, 0 0, 0 0 M0 0 C0 0, 0 0, 0 0 M-0.26 6.4 C2 4.71, 3.76 1.28, 4.99 0.36 M-0.26 6.4 C1.69 4.31, 3.82 1.61, 4.99 0.36 M0.13 12.04 C3.32 10.72, 4.42 5.41, 10.63 -0.03 M0.13 12.04 C4.62 8.05, 8.21 4.13, 10.63 -0.03 M-0.13 18.44 C6.67 10.15, 10.81 4.98, 15.62 0.33 M-0.13 18.44 C4.09 14.78, 8.2 9.41, 15.62 0.33 M0.27 24.08 C9.91 14.82, 17.5 3.19, 21.26 -0.07 M0.27 24.08 C6.24 16.73, 14.21 7.74, 21.26 -0.07 M0 30.48 C12.34 17.94, 19.86 7.14, 26.25 0.29 M0 30.48 C6.84 23.15, 12.71 14.15, 26.25 0.29 M-0.26 36.88 C9.02 24.33, 22.55 11.01, 31.89 -0.1 M-0.26 36.88 C9.89 27.23, 19.75 16.47, 31.89 -0.1 M0.14 42.52 C14.83 26.71, 27.6 10.78, 36.88 0.26 M0.14 42.52 C13.01 29.7, 23.08 15.27, 36.88 0.26 M-0.12 48.92 C14.88 32.54, 29.49 16.05, 42.52 -0.14 M-0.12 48.92 C11.99 34.91, 24.21 21.15, 42.52 -0.14 M0.27 54.56 C18.66 31.66, 38.38 10.1, 47.51 0.22 M0.27 54.56 C15.01 37.17, 30.74 19.65, 47.51 0.22 M0.01 60.96 C17.75 38.18, 37.4 19.24, 53.15 -0.17 M0.01 60.96 C15.69 42.48, 32.03 25.55, 53.15 -0.17 M-0.25 67.36 C22.28 42.97, 45.62 15.34, 58.14 0.19 M-0.25 67.36 C16.2 48.44, 34.01 27.64, 58.14 0.19 M0.14 73 C20.65 51.48, 37.1 30.75, 63.78 -0.21 M0.14 73 C19.48 49.36, 40.18 27.28, 63.78 -0.21 M4.47 74.11 C26.57 49.1, 46.76 26.34, 68.77 0.15 M4.47 74.11 C17.11 58.49, 31.24 41.45, 68.77 0.15 M9.46 74.47 C22.05 61.22, 36.15 45.29, 74.41 -0.24 M9.46 74.47 C23.76 58.35, 38.63 41.39, 74.41 -0.24 M15.1 74.08 C34.05 53.26, 48.23 32.63, 79.4 0.12 M15.1 74.08 C31.95 57.56, 47.36 39.62, 79.4 0.12 M20.09 74.44 C39.48 51.26, 61.28 30.07, 85.04 -0.28 M20.09 74.44 C40.74 50.81, 61.68 26.6, 85.04 -0.28 M25.73 74.05 C43.35 54.92, 59.52 33.29, 90.03 0.08 M25.73 74.05 C42.85 55.1, 60.95 34.33, 90.03 0.08 M30.72 74.41 C51.14 47.64, 71.55 23.65, 95.67 -0.31 M30.72 74.41 C44.9 57.08, 60.21 40.91, 95.67 -0.31 M36.36 74.01 C52.16 54.09, 71.2 34.69, 100.66 0.05 M36.36 74.01 C59.51 46.59, 82.46 22.26, 100.66 0.05 M41.35 74.37 C66.88 47.58, 91.66 18.56, 106.3 -0.34 M41.35 74.37 C62.6 49.28, 83.69 24.1, 106.3 -0.34 M46.99 73.98 C73.76 43.36, 98.75 17.18, 111.29 0.02 M46.99 73.98 C65.82 50.11, 86.86 28.7, 111.29 0.02 M51.98 74.34 C69.23 53.58, 90.08 31.97, 116.27 0.38 M51.98 74.34 C76.98 45.72, 102.29 16.46, 116.27 0.38 M57.62 73.94 C75.15 51.04, 94 30.56, 121.92 -0.02 M57.62 73.94 C78.43 49.94, 98.79 26.8, 121.92 -0.02 M62.61 74.3 C76.57 57.04, 94.14 35.56, 126.91 0.34 M62.61 74.3 C78.59 54.56, 96.57 33.55, 126.91 0.34 M67.6 74.66 C90.62 46.13, 116.1 18.02, 132.55 -0.05 M67.6 74.66 C86.73 54.07, 106.16 31.21, 132.55 -0.05 M73.24 74.27 C98.34 48.21, 117.78 20.91, 137.54 0.31 M73.24 74.27 C89.41 55.05, 104.72 36.49, 137.54 0.31 M78.23 74.63 C104.49 47.98, 127.37 18.51, 143.18 -0.09 M78.23 74.63 C98.93 50.54, 119.16 27.74, 143.18 -0.09 M83.87 74.23 C103 53.31, 120.53 33.47, 146.85 1.78 M83.87 74.23 C104.95 49.83, 124.55 26.08, 146.85 1.78 M88.86 74.59 C112.15 50.28, 133.23 26.21, 146.59 8.18 M88.86 74.59 C102.2 58.36, 116.04 42.62, 146.59 8.18 M94.5 74.2 C106.78 58.01, 119.15 43.65, 146.33 14.58 M94.5 74.2 C109.08 56.86, 124.73 40.58, 146.33 14.58 M99.49 74.56 C112.55 61.08, 120.74 49.09, 146.72 20.22 M99.49 74.56 C112.1 59.6, 122.83 47.94, 146.72 20.22 M105.13 74.16 C120.34 54.07, 138.1 39.08, 146.46 26.62 M105.13 74.16 C114.37 63.99, 125.8 52.54, 146.46 26.62 M110.12 74.52 C119.9 61.39, 131.06 49.2, 146.86 32.26 M110.12 74.52 C120.99 61, 131.39 47.94, 146.86 32.26 M115.76 74.13 C122.1 66.02, 127.22 59.09, 146.6 38.66 M115.76 74.13 C124.02 65.61, 131.4 56.09, 146.6 38.66 M120.75 74.49 C129.19 67.49, 135.74 55.39, 146.34 45.06 M120.75 74.49 C127.85 65.77, 135.85 55.79, 146.34 45.06 M126.39 74.1 C133.72 65.69, 140.14 59.08, 146.73 50.7 M126.39 74.1 C133.68 64.1, 141.59 55.92, 146.73 50.7 M131.38 74.46 C135.14 70.62, 139.93 63.01, 146.47 57.1 M131.38 74.46 C135.43 69.02, 141.02 62.59, 146.47 57.1 M137.02 74.06 C139.87 73.12, 142.19 68.52, 146.86 62.74 M137.02 74.06 C138.7 71.37, 141.93 68.96, 146.86 62.74 M142.01 74.42 C143.85 72.96, 145 71.01, 146.6 69.14 M142.01 74.42 C143.94 72.19, 145.6 70.83, 146.6 69.14" stroke="#fd7e14" stroke-width="0.5" fill="none"></path><path d="M0 0 C47.2 -0.39, 98.39 3.27, 146 0 M0 0 C47.18 0.36, 94.83 0.98, 146 0 M146 0 C146.68 19.25, 143.36 33.96, 146 74 M146 0 C145.4 23.71, 146.61 47.69, 146 74 M146 74 C115.65 73.88, 87.38 75.24, 0 74 M146 74 C105.34 74.3, 65.01 75.12, 0 74 M0 74 C1.05 50.37, -0.2 23.08, 0 0 M0 74 C-0.5 54.63, -0.12 35.87, 0 0" stroke="#000000" stroke-width="1" fill="none"></path></g><g stroke-opacity="0.8" fill-opacity="0.8" transform="translate(972 98) rotate(0 32.5 12.5)"><text x="0" y="17.52" font-family="Virgil, Segoe UI Emoji" font-size="20px" fill="#000000" text-anchor="start" style="white-space: pre;" direction="ltr" dominant-baseline="alphabetic">Socket</text></g><g stroke-linecap="round"><g stroke-opacity="0.8" fill-opacity="0.8" transform="translate(840 160) rotate(0 53.5 -28.5)"><path d="M-0.35 -1.07 C3.75 -10.65, 7.32 -48.22, 25.21 -56.72 C43.11 -65.23, 93.56 -52.72, 107.02 -52.11 M1.66 0.99 C5.57 -9.05, 6.94 -50.06, 24.37 -58.7 C41.81 -67.34, 92.71 -51.88, 106.26 -50.85" stroke="#000000" stroke-width="1" fill="none"></path></g><g stroke-opacity="0.8" fill-opacity="0.8" transform="translate(840 160) rotate(0 53.5 -28.5)"><path d="M81.6 -46.74 C88.46 -47.76, 99.37 -49.53, 106.26 -50.85 M81.6 -46.74 C89.29 -46.89, 96.98 -48.1, 106.26 -50.85" stroke="#000000" stroke-width="1" fill="none"></path></g><g stroke-opacity="0.8" fill-opacity="0.8" transform="translate(840 160) rotate(0 53.5 -28.5)"><path d="M84.73 -63.55 C90.6 -58.67, 100.41 -54.53, 106.26 -50.85 M84.73 -63.55 C91.37 -58.84, 98.14 -55.16, 106.26 -50.85" stroke="#000000" stroke-width="1" fill="none"></path></g></g><mask></mask><g stroke-opacity="0.8" fill-opacity="0.8" stroke-linecap="round" transform="translate(1371 64) rotate(0 75 68)"><path d="M20.59 21.87 C20.59 21.87, 20.59 21.87, 20.59 21.87 M20.59 21.87 C20.59 21.87, 20.59 21.87, 20.59 21.87 M4.58 46.39 C13.43 33.22, 24.23 24.7, 31.48 15.44 M4.58 46.39 C14.21 35.98, 23.94 24.8, 31.48 15.44 M3.67 53.54 C16.59 38.31, 29.86 22.52, 42.37 9.01 M3.67 53.54 C10.56 44.1, 18.53 35.05, 42.37 9.01 M3.4 59.94 C17.51 43.99, 34.16 24.2, 49.99 6.35 M3.4 59.94 C17.08 42.8, 31.56 26.57, 49.99 6.35 M2.49 67.09 C17.52 46.21, 38.82 28.02, 56.28 5.2 M2.49 67.09 C20.96 45.26, 42.33 21.07, 56.28 5.2 M1.57 74.24 C16.21 61.77, 28.35 45.9, 62.58 4.05 M1.57 74.24 C15.67 57.54, 30.23 41.9, 62.58 4.05 M1.31 80.64 C19.11 56.65, 37.88 34.24, 68.88 2.9 M1.31 80.64 C16.67 61.95, 32.54 44.41, 68.88 2.9 M3.67 84.02 C28.92 55.8, 52.17 28.92, 74.53 2.51 M3.67 84.02 C33.07 51.13, 59.67 18.83, 74.53 2.51 M5.38 88.15 C32.25 57.45, 56.77 27.96, 80.82 1.36 M5.38 88.15 C28.07 62.16, 51.18 37.92, 80.82 1.36 M7.08 92.28 C34.55 58.47, 65.22 26.98, 85.16 2.47 M7.08 92.28 C24.93 72.77, 40.72 53.69, 85.16 2.47 M9.45 95.66 C25.29 77.85, 39.41 57.37, 89.49 3.59 M9.45 95.66 C26.96 76.63, 42.25 56.07, 89.49 3.59 M11.15 99.8 C35.42 73.65, 60.09 45.09, 93.82 4.7 M11.15 99.8 C33.41 73.62, 55.46 47.92, 93.82 4.7 M12.86 103.93 C31.61 80.72, 55.63 54.85, 98.15 5.82 M12.86 103.93 C43.93 65.96, 76.86 28.41, 98.15 5.82 M15.22 107.31 C37.31 81.05, 59.21 55.55, 102.48 6.93 M15.22 107.31 C42.07 76.65, 68.75 46.52, 102.48 6.93 M18.24 109.93 C42.92 86.04, 64.95 58.45, 106.81 8.05 M18.24 109.93 C51.4 71.34, 84.15 33.39, 106.81 8.05 M21.26 112.56 C50.2 79.29, 81.07 42.34, 111.14 9.16 M21.26 112.56 C57.34 73.22, 92.36 30.9, 111.14 9.16 M24.28 115.18 C54.71 82.47, 82.91 46.4, 114.16 11.79 M24.28 115.18 C53.29 82.6, 82.15 47.82, 114.16 11.79 M27.3 117.81 C61.12 77.6, 94.53 42.11, 117.84 13.66 M27.3 117.81 C62.42 76.67, 97.77 34.69, 117.84 13.66 M30.32 120.43 C58.55 90.31, 86.89 54.17, 120.85 16.28 M30.32 120.43 C56.21 90.3, 81.86 61.31, 120.85 16.28 M33.34 123.06 C63.22 89.39, 91.31 57.08, 123.87 18.91 M33.34 123.06 C61.17 91.61, 91.53 58.21, 123.87 18.91 M37.01 124.92 C57.05 102, 73.57 83.26, 126.89 21.53 M37.01 124.92 C63.72 92.81, 90.76 62.34, 126.89 21.53 M40.03 127.55 C68.84 96.32, 95.15 62.92, 129.91 24.15 M40.03 127.55 C69.78 96.12, 96.48 63.19, 129.91 24.15 M44.36 128.66 C77.35 91.64, 107.74 52.52, 133.59 26.02 M44.36 128.66 C75.32 93.27, 106.73 56.28, 133.59 26.02 M48.69 129.78 C82.82 92.64, 116.79 50.24, 136.6 28.65 M48.69 129.78 C74.88 98.96, 103.62 67.69, 136.6 28.65 M53.02 130.89 C74.83 107.32, 92.5 84.39, 138.31 32.78 M53.02 130.89 C87.42 90.86, 120.99 52.95, 138.31 32.78 M56.7 132.76 C84.9 97.62, 118.86 61.14, 140.02 36.91 M56.7 132.76 C86.76 97.89, 119.02 61.3, 140.02 36.91 M61.03 133.88 C81.57 109.92, 105.34 83.56, 142.38 40.29 M61.03 133.88 C87.18 103.8, 114.84 71.93, 142.38 40.29 M65.36 134.99 C95.84 98.03, 128.82 64.61, 144.09 44.43 M65.36 134.99 C92.14 104.57, 117.91 73.7, 144.09 44.43 M69.69 136.11 C86.14 116.41, 101.76 98.08, 145.79 48.56 M69.69 136.11 C85.44 117.43, 101.67 97.72, 145.79 48.56 M75.33 135.71 C100.39 107.7, 126.91 79.4, 147.5 52.69 M75.33 135.71 C103.11 104.74, 130.87 72.5, 147.5 52.69 M81.63 134.56 C94.58 117.08, 107.57 104.15, 149.21 56.83 M81.63 134.56 C98.77 114.26, 116.76 94.26, 149.21 56.83 M87.93 133.41 C107.6 113.77, 122.26 95.14, 149.6 62.47 M87.93 133.41 C105.27 114.44, 120.63 95.93, 149.6 62.47 M93.58 133.02 C109.63 117.44, 122.66 96.8, 148.68 69.62 M93.58 133.02 C105.69 117.54, 120.12 102.4, 148.68 69.62 M99.87 131.87 C116.5 110.56, 133.47 91.94, 148.42 76.02 M99.87 131.87 C111.92 118.26, 125.89 102.46, 148.42 76.02 M108.8 127.7 C119.33 116.39, 126.11 104.68, 148.16 82.42 M108.8 127.7 C118.61 115.38, 129.13 104.64, 148.16 82.42 M121.66 119.01 C126.95 113.21, 134.28 104.93, 143.31 94.1 M121.66 119.01 C126.09 112.69, 131.3 107.35, 143.31 94.1" stroke="#ced4da" stroke-width="0.5" fill="none"></path><path d="M48 5.7 C56.93 1.4, 68.73 0.24, 79.35 0.84 C89.97 1.44, 102.14 4.59, 111.71 9.28 C121.28 13.98, 130.58 21, 136.8 29.03 C143.01 37.06, 147.22 47.79, 149 57.48 C150.78 67.16, 150.69 77.78, 147.48 87.12 C144.27 96.46, 137.21 106.14, 129.76 113.5 C122.31 120.86, 112.84 127.51, 102.77 131.3 C92.7 135.08, 80.09 137, 69.33 136.19 C58.56 135.39, 47.42 131.5, 38.17 126.47 C28.92 121.44, 20.11 113.95, 13.81 106.02 C7.51 98.1, 2.04 88.69, 0.38 78.93 C-1.29 69.17, 0.46 56.98, 3.8 47.49 C7.15 38.01, 12.81 29.37, 20.46 22.03 C28.11 14.68, 43.93 6.34, 49.71 3.42 C55.48 0.5, 54.73 3.27, 55.12 4.49 M58.16 2.8 C67.88 -0.34, 80.89 -0.29, 91.62 1.74 C102.35 3.76, 113.98 8.75, 122.53 14.97 C131.08 21.19, 138.52 29.99, 142.92 39.07 C147.31 48.14, 148.91 59.29, 148.88 69.43 C148.84 79.56, 147.6 91.03, 142.7 99.9 C137.8 108.76, 128.41 116.96, 119.46 122.63 C110.51 128.31, 99.17 132.06, 88.99 133.93 C78.82 135.8, 68.88 136.27, 58.41 133.84 C47.94 131.4, 34.88 125.3, 26.17 119.32 C17.46 113.34, 10.39 106.51, 6.16 97.97 C1.92 89.43, 0.54 78.17, 0.74 68.11 C0.94 58.04, 2.72 46.39, 7.35 37.57 C11.97 28.76, 19.98 21.08, 28.49 15.23 C36.99 9.39, 52.95 4.38, 58.36 2.5 C63.77 0.63, 60.48 3.07, 60.96 3.99" stroke="#000000" stroke-width="1" fill="none"></path></g><g stroke-opacity="0.8" fill-opacity="0.8" transform="translate(1397 124) rotate(0 32.5 12.5)"><text x="0" y="17.52" font-family="Virgil, Segoe UI Emoji" font-size="20px" fill="#000000" text-anchor="start" style="white-space: pre;" direction="ltr" dominant-baseline="alphabetic">Clients</text></g><g stroke-linecap="round" transform="translate(1159.5 94.42807017543845) rotate(180 74.5 24.57192982456141)"><path d="M0 0 C40.19 0.74, 80.72 -0.52, 149 0 M0 0 C58.82 -0.82, 117.79 -1.54, 149 0 M149 0 C150.22 8.32, 149.15 19.57, 149 49.14 M149 0 C149.65 16.74, 149.26 34.08, 149 49.14 M149 49.14 C94.05 50.62, 40.45 50.76, 0 49.14 M149 49.14 C97.67 49.11, 47.23 48.37, 0 49.14 M0 49.14 C0.14 32.16, -1.73 14.51, 0 0 M0 49.14 C-1.03 34.31, 0.44 17.8, 0 0" stroke="#000000" stroke-width="1" fill="none"></path></g><g stroke-linecap="round" transform="translate(1254.0824561403504 99.65614035087555) rotate(180 10.194736842105272 18.821052631578937)"><path d="M0 0 C0 0, 0 0, 0 0 M0 0 C0 0, 0 0, 0 0 M-0.26 6.4 C1.22 4.15, 3.03 2.6, 4.99 0.36 M-0.26 6.4 C1.24 4.99, 2.36 3.58, 4.99 0.36 M0.13 12.04 C2.99 10.01, 5.57 6.01, 10.63 -0.03 M0.13 12.04 C3.98 8.06, 7.27 3.48, 10.63 -0.03 M-0.13 18.44 C5.59 10.48, 11.93 3.5, 15.62 0.33 M-0.13 18.44 C5.13 12.67, 9.7 6.29, 15.62 0.33 M0.27 24.08 C8.28 15.95, 15.24 7.64, 20.6 0.69 M0.27 24.08 C5.72 17.74, 11.13 11.71, 20.6 0.69 M0 30.48 C6.39 22.5, 14.13 14.18, 21 6.33 M0 30.48 C4.66 24.67, 10.49 18.54, 21 6.33 M-0.26 36.88 C8.07 28.12, 14.29 18.99, 20.74 12.73 M-0.26 36.88 C7.19 28.34, 13.67 20.29, 20.74 12.73 M4.07 37.99 C9.49 31.37, 17.09 23.31, 21.13 18.37 M4.07 37.99 C7.49 34.26, 11.38 29.86, 21.13 18.37 M9.72 37.6 C12.75 33.2, 15.3 30.83, 20.87 24.77 M9.72 37.6 C12.95 33.47, 16.31 30.24, 20.87 24.77 M14.7 37.96 C15.89 36.4, 17.29 35.14, 20.61 31.17 M14.7 37.96 C16.93 35.21, 19.61 32.36, 20.61 31.17 M20.35 37.56 C20.56 37.4, 20.69 37.13, 21 36.81 M20.35 37.56 C20.5 37.38, 20.66 37.18, 21 36.81" stroke="#fd7e14" stroke-width="0.5" fill="none"></path><path d="M0 0 C5.96 0.69, 11.12 0.93, 20.39 0 M0 0 C5.11 -0.08, 9.78 -0.46, 20.39 0 M20.39 0 C19.67 14.59, 20.25 29.88, 20.39 37.64 M20.39 0 C20.21 9.2, 20.5 18.13, 20.39 37.64 M20.39 37.64 C16.18 36.91, 12 37.96, 0 37.64 M20.39 37.64 C14.01 37.19, 7.19 37.91, 0 37.64 M0 37.64 C0.75 23.39, 1.01 10.71, 0 0 M0 37.64 C0.4 25.64, -0.17 13.05, 0 0" stroke="#000000" stroke-width="1" fill="none"></path></g><g stroke-linecap="round" transform="translate(1222.7140350877178 99.65614035087737) rotate(180 10.194736842105272 19.08245614035087)"><path d="M0 0 C0 0, 0 0, 0 0 M0 0 C0 0, 0 0, 0 0 M-0.26 6.4 C1.39 4.05, 3.74 1.9, 4.99 0.36 M-0.26 6.4 C1.15 4.86, 2.56 3.14, 4.99 0.36 M0.13 12.04 C4.17 8.9, 6.24 4.58, 10.63 -0.03 M0.13 12.04 C4.39 7.27, 8.04 2.96, 10.63 -0.03 M-0.13 18.44 C4.37 12.09, 9.84 6.27, 15.62 0.33 M-0.13 18.44 C5.29 11.94, 10.09 6.49, 15.62 0.33 M0.27 24.08 C5.83 18.41, 11.2 10.8, 20.6 0.69 M0.27 24.08 C7.78 15.42, 15.62 6.56, 20.6 0.69 M0 30.48 C5.27 24.53, 10.2 18.47, 21 6.33 M0 30.48 C6.03 24, 11.73 17.08, 21 6.33 M-0.26 36.88 C4.45 30.59, 8.78 26.56, 20.74 12.73 M-0.26 36.88 C6.15 28.77, 13.06 21.41, 20.74 12.73 M3.42 38.75 C8.53 33.99, 12.21 27.79, 21.13 18.37 M3.42 38.75 C8.68 33.28, 13.26 27.57, 21.13 18.37 M8.41 39.11 C12.49 32.64, 18.85 27.92, 20.87 24.77 M8.41 39.11 C10.94 35.68, 14.48 32.22, 20.87 24.77 M14.05 38.71 C16.15 36.22, 18.57 34.24, 20.61 31.17 M14.05 38.71 C15.46 37.26, 16.75 35.33, 20.61 31.17 M19.04 39.07 C19.88 38.19, 20.42 37.35, 21 36.81 M19.04 39.07 C19.5 38.51, 19.92 38.06, 21 36.81" stroke="#fd7e14" stroke-width="0.5" fill="none"></path><path d="M0 0 C6.28 -0.48, 12.09 -0.55, 20.39 0 M0 0 C7.35 -0.3, 14.42 0.44, 20.39 0 M20.39 0 C20.31 14.35, 20.88 28.66, 20.39 38.16 M20.39 0 C20.86 8.45, 20.87 15.91, 20.39 38.16 M20.39 38.16 C11.71 38.28, 4.74 38.33, 0 38.16 M20.39 38.16 C14.16 37.89, 9.01 38.48, 0 38.16 M0 38.16 C-0.76 30.99, 0.09 22.4, 0 0 M0 38.16 C0.45 28.99, 0.14 20.61, 0 0" stroke="#000000" stroke-width="1" fill="none"></path></g><g stroke-linecap="round" transform="translate(1192.9140350877187 99.1333333333352) rotate(180 10.456140350877149 19.08245614035087)"><path d="M0 0 C0 0, 0 0, 0 0 M0 0 C0 0, 0 0, 0 0 M-0.26 6.4 C1.33 4.62, 3.13 2.11, 4.99 0.36 M-0.26 6.4 C1.03 5.04, 2.13 3.47, 4.99 0.36 M0.13 12.04 C4.5 7.2, 7.68 4.39, 10.63 -0.03 M0.13 12.04 C3 8.37, 6.32 5.44, 10.63 -0.03 M-0.13 18.44 C4.66 12.02, 9.98 7.57, 15.62 0.33 M-0.13 18.44 C3.18 13.73, 7.53 9.72, 15.62 0.33 M0.27 24.08 C6.84 17.11, 11.5 11.4, 21.26 -0.07 M0.27 24.08 C8.26 15.17, 16.06 5.82, 21.26 -0.07 M0 30.48 C6.19 23.33, 12.25 15.66, 21 6.33 M0 30.48 C5.94 23.83, 11.43 17.44, 21 6.33 M-0.26 36.88 C4.77 29.72, 12.07 23.29, 21.39 11.97 M-0.26 36.88 C7.96 26.94, 16.95 17.2, 21.39 11.97 M3.42 38.75 C9.81 31.71, 14.76 24.46, 21.13 18.37 M3.42 38.75 C9.6 31.88, 15.53 25.16, 21.13 18.37 M8.41 39.11 C11.23 35.61, 15.82 29.97, 20.87 24.77 M8.41 39.11 C13 34.13, 17.55 28.36, 20.87 24.77 M14.05 38.71 C15.58 37.14, 17.66 34.77, 21.27 30.41 M14.05 38.71 C16.06 36.44, 17.54 34.84, 21.27 30.41 M19.04 39.07 C19.46 38.46, 19.91 37.85, 21 36.81 M19.04 39.07 C19.66 38.29, 20.39 37.64, 21 36.81" stroke="#fd7e14" stroke-width="0.5" fill="none"></path><path d="M0 0 C6.38 0.89, 13.15 0.58, 20.91 0 M0 0 C5.62 -0.45, 12.26 0.44, 20.91 0 M20.91 0 C20.45 13.34, 20.11 24.99, 20.91 38.16 M20.91 0 C21.17 15.42, 20.45 30.72, 20.91 38.16 M20.91 38.16 C16.15 38.49, 11.33 37.97, 0 38.16 M20.91 38.16 C16.04 38.44, 12.05 37.64, 0 38.16 M0 38.16 C0.73 26.01, 0.15 12.93, 0 0 M0 38.16 C-0.4 30.11, 0.1 22, 0 0" stroke="#000000" stroke-width="1" fill="none"></path></g><g stroke-linecap="round" transform="translate(1169.3877192982459 100.17894736842214) rotate(180 8.103508771929796 19.08245614035087)"><path d="M0 0 C0 0, 0 0, 0 0 M0 0 C0 0, 0 0, 0 0 M-0.26 6.4 C1.26 4.78, 2.03 3.37, 4.99 0.36 M-0.26 6.4 C1.96 3.83, 3.96 1.67, 4.99 0.36 M0.13 12.04 C3.31 7.9, 8.51 2.96, 10.63 -0.03 M0.13 12.04 C3.76 7.89, 8.13 3.07, 10.63 -0.03 M-0.13 18.44 C3.25 13.95, 8.58 8.3, 15.62 0.33 M-0.13 18.44 C4.7 12.7, 10.22 6.32, 15.62 0.33 M0.27 24.08 C6.47 16.24, 13.94 9.91, 16.67 5.21 M0.27 24.08 C5.86 17.9, 11.02 11.36, 16.67 5.21 M0 30.48 C3.83 25.71, 7.14 21.72, 17.06 10.86 M0 30.48 C3.35 26.53, 6.95 21.87, 17.06 10.86 M-0.26 36.88 C5.55 30.37, 12.08 23.97, 16.8 17.25 M-0.26 36.88 C6.11 29.72, 12.67 22.02, 16.8 17.25 M3.42 38.75 C5.99 34.82, 8.35 33.12, 16.54 23.65 M3.42 38.75 C6.93 34.78, 10.58 30.92, 16.54 23.65 M8.41 39.11 C11.36 36.35, 12.84 34.08, 16.93 29.3 M8.41 39.11 C10.95 36.32, 12.96 33.74, 16.93 29.3 M14.05 38.71 C14.85 38.07, 15.35 36.93, 16.67 35.69 M14.05 38.71 C14.57 37.97, 15.34 37.24, 16.67 35.69" stroke="#fd7e14" stroke-width="0.5" fill="none"></path><path d="M0 0 C5.92 -0.39, 10.81 -0.11, 16.21 0 M0 0 C4.73 0.42, 10.57 0.2, 16.21 0 M16.21 0 C16.59 7.46, 15.32 17.15, 16.21 38.16 M16.21 0 C16.61 10.88, 16.78 22.34, 16.21 38.16 M16.21 38.16 C11.59 38.31, 6.25 37.52, 0 38.16 M16.21 38.16 C11.39 38.36, 5.64 38.21, 0 38.16 M0 38.16 C0.27 24.74, -0.54 9.9, 0 0 M0 38.16 C-0.13 24.86, -0.23 11.02, 0 0" stroke="#000000" stroke-width="1" fill="none"></path></g><g stroke-linecap="round"><g stroke-opacity="0.8" fill-opacity="0.8" transform="translate(1370 123) rotate(0 -29.5 1)"><path d="M0.9 0.75 C-8.94 1.22, -49.12 2.35, -59.04 2.48 M-0.08 0.1 C-10.09 0.23, -50.16 0.19, -60 0.6" stroke="#000000" stroke-width="1" fill="none"></path></g><g stroke-opacity="0.8" fill-opacity="0.8" transform="translate(1370 123) rotate(0 -29.5 1)"><path d="M-36.66 -8.35 C-42.47 -5.54, -49.96 -2.11, -60 0.6 M-36.66 -8.35 C-43.73 -6.58, -48.95 -3.1, -60 0.6" stroke="#000000" stroke-width="1" fill="none"></path></g><g stroke-opacity="0.8" fill-opacity="0.8" transform="translate(1370 123) rotate(0 -29.5 1)"><path d="M-36.37 8.74 C-42.22 6.41, -49.79 4.69, -60 0.6 M-36.37 8.74 C-43.49 6.08, -48.78 5.11, -60 0.6" stroke="#000000" stroke-width="1" fill="none"></path></g></g><mask></mask><g stroke-linecap="round"><g stroke-opacity="0.8" fill-opacity="0.8" transform="translate(1153 120) rotate(0 -28 0.5)"><path d="M0.94 0.5 C-8.69 0.57, -47.5 0.39, -56.85 0.48 M-0.02 -0.28 C-9.36 -0.05, -45.34 1.3, -54.59 1.75" stroke="#000000" stroke-width="1" fill="none"></path></g><g stroke-opacity="0.8" fill-opacity="0.8" transform="translate(1153 120) rotate(0 -28 0.5)"><path d="M-31.48 -7.78 C-39.36 -5.42, -49.78 0.94, -54.59 1.75 M-31.48 -7.78 C-37.74 -4.64, -45.57 -2.25, -54.59 1.75" stroke="#000000" stroke-width="1" fill="none"></path></g><g stroke-opacity="0.8" fill-opacity="0.8" transform="translate(1153 120) rotate(0 -28 0.5)"><path d="M-30.76 9.31 C-38.92 5.22, -49.61 5.14, -54.59 1.75 M-30.76 9.31 C-37.27 7.25, -45.32 4.44, -54.59 1.75" stroke="#000000" stroke-width="1" fill="none"></path></g></g><mask></mask><g stroke-linecap="round"><g stroke-opacity="0.8" fill-opacity="0.8" transform="translate(395 180) rotate(0 20.5 0)"><path d="M-0.18 -0.13 C6.6 -0.04, 34.14 0.23, 40.96 0.3 M0.73 -0.67 C7.41 -0.73, 33.92 -0.51, 40.5 -0.51" stroke="#000000" stroke-width="1" fill="none"></path></g><g stroke-opacity="0.8" fill-opacity="0.8" transform="translate(395 180) rotate(0 20.5 0)"><path d="M21.21 6.41 C27.88 3.89, 35.54 1.01, 40.5 -0.51 M21.21 6.41 C27.72 4.16, 34.23 2.06, 40.5 -0.51" stroke="#000000" stroke-width="1" fill="none"></path></g><g stroke-opacity="0.8" fill-opacity="0.8" transform="translate(395 180) rotate(0 20.5 0)"><path d="M21.27 -7.61 C27.89 -5.12, 35.54 -3, 40.5 -0.51 M21.27 -7.61 C27.82 -4.97, 34.32 -2.17, 40.5 -0.51" stroke="#000000" stroke-width="1" fill="none"></path></g></g><mask></mask><g stroke-opacity="0.8" fill-opacity="0.8" stroke-linecap="round" transform="translate(539 621) rotate(0 92 85)"><path d="M0 0 C0 0, 0 0, 0 0 M0 0 C0 0, 0 0, 0 0 M-0.26 6.4 C0.14 4.5, 2.66 3.32, 4.99 0.36 M-0.26 6.4 C1.32 4.55, 1.94 3.18, 4.99 0.36 M0.13 12.04 C3.81 7.63, 9.35 1.65, 10.63 -0.03 M0.13 12.04 C3.12 9.59, 4.92 5.65, 10.63 -0.03 M-0.13 18.44 C6.93 11.75, 11.06 5.96, 15.62 0.33 M-0.13 18.44 C3.15 13.98, 8.28 10.05, 15.62 0.33 M0.27 24.08 C7.69 15.46, 15.43 6.29, 21.26 -0.07 M0.27 24.08 C6.19 17.65, 10.27 12.8, 21.26 -0.07 M0 30.48 C11.46 18.95, 19.78 9.57, 26.25 0.29 M0 30.48 C9.51 18.33, 20.87 7.62, 26.25 0.29 M-0.26 36.88 C6.54 27.14, 18.42 18.4, 31.89 -0.1 M-0.26 36.88 C11.5 24.24, 23.5 10.23, 31.89 -0.1 M0.14 42.52 C8.43 32.22, 19.82 17.68, 36.88 0.26 M0.14 42.52 C14.34 26.88, 28.81 10.58, 36.88 0.26 M-0.12 48.92 C9.51 38.63, 16.61 27.5, 42.52 -0.14 M-0.12 48.92 C14.36 33.91, 26.67 16.98, 42.52 -0.14 M0.27 54.56 C13.84 37.55, 27.13 22.23, 47.51 0.22 M0.27 54.56 C14.03 38.39, 29.06 21.81, 47.51 0.22 M0.01 60.96 C10.85 47.14, 26.69 30.9, 53.15 -0.17 M0.01 60.96 C11.76 48.62, 21.94 34.35, 53.15 -0.17 M-0.25 67.36 C21.67 43.86, 46.2 16.42, 58.14 0.19 M-0.25 67.36 C21.44 40.62, 44.94 15.6, 58.14 0.19 M0.14 73 C20 51.36, 42.26 25.91, 63.78 -0.21 M0.14 73 C18.43 51.3, 38.73 31.03, 63.78 -0.21 M-0.12 79.4 C16.78 57.91, 36.31 38.38, 68.77 0.15 M-0.12 79.4 C25.98 49.78, 50.32 21.89, 68.77 0.15 M0.28 85.04 C29.62 52.33, 59.19 17.93, 74.41 -0.24 M0.28 85.04 C28.01 55.29, 54.78 24.1, 74.41 -0.24 M0.01 91.44 C27.22 60.16, 55.13 29.63, 79.4 0.12 M0.01 91.44 C31.75 55.18, 61.18 19.45, 79.4 0.12 M-0.25 97.84 C25.83 68.36, 51.11 38.49, 85.04 -0.28 M-0.25 97.84 C29.95 61.81, 62.76 26.61, 85.04 -0.28 M0.15 103.48 C21.89 76.49, 46.75 48.31, 90.03 0.08 M0.15 103.48 C30.69 66.8, 62.63 30.92, 90.03 0.08 M-0.11 109.88 C28.48 79, 55.92 45.8, 95.67 -0.31 M-0.11 109.88 C20.78 84, 43.7 59.31, 95.67 -0.31 M0.28 115.52 C30.37 78.91, 61.45 44.6, 100.66 0.05 M0.28 115.52 C28.05 81.55, 57.99 49.32, 100.66 0.05 M0.02 121.92 C34.26 83.47, 66.88 49.87, 106.3 -0.34 M0.02 121.92 C22.61 94.79, 47.2 66.43, 106.3 -0.34 M-0.24 128.32 C43.21 76.32, 86.14 27.29, 111.29 0.02 M-0.24 128.32 C43.76 79.08, 86.64 28.15, 111.29 0.02 M0.15 133.96 C28.14 103.57, 52.71 73.43, 116.27 0.38 M0.15 133.96 C42.28 84.9, 86.02 36.26, 116.27 0.38 M-0.11 140.36 C39.96 92.81, 83.99 47.08, 121.92 -0.02 M-0.11 140.36 C26.21 110.04, 51.73 79.19, 121.92 -0.02 M0.29 146 C41.74 96.62, 80.72 52.82, 126.91 0.34 M0.29 146 C32.67 109.28, 64.4 72.07, 126.91 0.34 M0.02 152.4 C38.39 111.72, 75.15 65.73, 132.55 -0.05 M0.02 152.4 C38.57 110.41, 75.77 66.78, 132.55 -0.05 M-0.24 158.8 C51.75 99.75, 98.91 44.49, 137.54 0.31 M-0.24 158.8 C30.47 125.77, 58.44 91.29, 137.54 0.31 M0.16 164.44 C51.95 107.27, 102.03 48.03, 143.18 -0.09 M0.16 164.44 C35.75 121.98, 73.28 81.04, 143.18 -0.09 M0.55 170.08 C41.76 123.21, 84.34 73.94, 148.17 0.27 M0.55 170.08 C52.21 111.66, 103.18 53.85, 148.17 0.27 M5.54 170.44 C37.96 135.12, 68.37 102.08, 153.81 -0.12 M5.54 170.44 C56.64 110.05, 109.23 50.33, 153.81 -0.12 M11.18 170.05 C64.13 110.48, 118.18 45.77, 158.8 0.24 M11.18 170.05 C53.51 120.27, 97.56 69.37, 158.8 0.24 M16.17 170.41 C47.5 132.81, 83.7 94.07, 164.44 -0.16 M16.17 170.41 C68.26 111.03, 122.01 50.24, 164.44 -0.16 M21.81 170.01 C54.05 132, 85.5 94.54, 169.43 0.2 M21.81 170.01 C64.73 123.26, 105.63 74.82, 169.43 0.2 M26.8 170.37 C83.02 107.75, 137.49 44.64, 175.07 -0.19 M26.8 170.37 C57.18 134.01, 86.59 99.62, 175.07 -0.19 M32.44 169.98 C65.12 131.3, 99.33 95.43, 180.06 0.17 M32.44 169.98 C73.21 124.93, 110.32 80.13, 180.06 0.17 M37.43 170.34 C80.67 120.24, 126.32 66.73, 184.39 1.28 M37.43 170.34 C96.88 103.08, 154.11 37.9, 184.39 1.28 M43.07 169.94 C80.38 127.72, 115.89 82.26, 184.12 7.68 M43.07 169.94 C94.87 111.03, 143.86 52.82, 184.12 7.68 M48.06 170.3 C84.22 127.58, 119.51 86.48, 183.86 14.08 M48.06 170.3 C97.44 113.18, 146.57 56.09, 183.86 14.08 M53.05 170.66 C78.79 142.82, 103.28 110.3, 184.26 19.72 M53.05 170.66 C84.11 133.27, 116.9 95.59, 184.26 19.72 M58.69 170.27 C87.96 138.2, 118.74 104.39, 184 26.12 M58.69 170.27 C97.81 125.87, 137.88 79.37, 184 26.12 M63.68 170.63 C93.19 140.77, 116.87 109.18, 184.39 31.76 M63.68 170.63 C108.87 123.17, 152.31 73, 184.39 31.76 M69.32 170.23 C105.99 128.29, 140.79 86.92, 184.13 38.16 M69.32 170.23 C95.65 138.75, 123.24 109.34, 184.13 38.16 M74.31 170.59 C107.09 137.14, 133.75 102.03, 183.87 44.56 M74.31 170.59 C106.25 135.24, 137.45 99.46, 183.87 44.56 M79.95 170.2 C117.95 128.1, 155.81 83.54, 184.26 50.2 M79.95 170.2 C101.98 146.26, 123.53 120.9, 184.26 50.2 M84.94 170.56 C106.17 145.05, 130.07 115.91, 184 56.6 M84.94 170.56 C122.16 127.74, 157.95 85.87, 184 56.6 M90.58 170.17 C127.31 127.62, 161.31 85, 184.4 62.24 M90.58 170.17 C119.54 136.01, 150.3 100.65, 184.4 62.24 M95.57 170.53 C123.28 136.82, 152.32 105.11, 184.13 68.64 M95.57 170.53 C122.76 137.59, 151.32 105.08, 184.13 68.64 M101.21 170.13 C129.79 135.91, 158.05 106.93, 183.87 75.04 M101.21 170.13 C118.01 150.1, 133.83 131.91, 183.87 75.04 M106.2 170.49 C130.85 141.46, 157.67 116.23, 184.27 80.68 M106.2 170.49 C136.53 135.21, 165.55 100.8, 184.27 80.68 M111.84 170.1 C132.08 147.56, 155.14 119.08, 184.01 87.08 M111.84 170.1 C129.79 149.69, 148.13 127.38, 184.01 87.08 M116.83 170.46 C138.79 144.34, 157.68 122.36, 184.4 92.72 M116.83 170.46 C142.9 139.44, 168.82 110.1, 184.4 92.72 M122.47 170.06 C140.68 149.08, 161.44 124.36, 184.14 99.12 M122.47 170.06 C146.94 141.48, 172.57 114.24, 184.14 99.12 M127.46 170.42 C148.98 147.01, 171.72 118.19, 183.88 105.52 M127.46 170.42 C142.67 152.57, 159.16 132.51, 183.88 105.52 M133.1 170.03 C151.58 150.28, 167.23 129.7, 184.27 111.16 M133.1 170.03 C150.49 150.45, 167.68 131.3, 184.27 111.16 M138.09 170.39 C153.57 152.18, 167.94 135.09, 184.01 117.56 M138.09 170.39 C150.01 158.7, 159.12 146.81, 184.01 117.56 M143.73 169.99 C158.49 152.32, 171.18 138.91, 184.41 123.2 M143.73 169.99 C156.32 155.38, 170.1 138.54, 184.41 123.2 M148.72 170.35 C157.62 158.7, 167.33 145.59, 184.14 129.6 M148.72 170.35 C159.97 158.7, 168.5 147.38, 184.14 129.6 M154.36 169.96 C164.03 159.63, 172.25 146.57, 183.88 136 M154.36 169.96 C165.33 156.82, 177.19 142.78, 183.88 136 M159.35 170.32 C166.73 160.49, 176.22 149.63, 184.28 141.64 M159.35 170.32 C166.76 162.44, 172.97 154.28, 184.28 141.64 M164.33 170.68 C173.05 161.61, 176.63 155.66, 184.02 148.04 M164.33 170.68 C170.01 165.21, 175.65 157.64, 184.02 148.04 M169.98 170.28 C175.64 165.61, 178.71 157.77, 184.41 153.68 M169.98 170.28 C172.32 165.59, 176.93 163, 184.41 153.68 M174.96 170.64 C178.87 168.25, 181.18 164.37, 184.15 160.08 M174.96 170.64 C177.87 166.71, 180.63 164.55, 184.15 160.08 M180.61 170.25 C181.35 169.73, 181.68 168.58, 183.89 166.48 M180.61 170.25 C181.4 169.25, 182.29 168.08, 183.89 166.48" stroke="#7950f2" stroke-width="0.5" fill="none"></path><path d="M0 0 C53.91 -0.69, 104.77 -0.32, 184 0 M0 0 C48.01 -0.75, 95.47 -0.08, 184 0 M184 0 C184.54 64.24, 187.23 127.75, 184 170 M184 0 C184.82 54.11, 184.4 108.83, 184 170 M184 170 C133.05 169.75, 82.46 168.53, 0 170 M184 170 C132.93 168.14, 81.05 168.01, 0 170 M0 170 C0.62 132.22, -2.37 90.11, 0 0 M0 170 C-0.4 122.02, 0.32 73.59, 0 0" stroke="#000000" stroke-width="1" fill="none"></path></g><g stroke-opacity="0.8" fill-opacity="0.8" transform="translate(582 687) rotate(0 49.5 12.5)"><text x="0" y="17.52" font-family="Virgil, Segoe UI Emoji" font-size="20px" fill="#000000" text-anchor="start" style="white-space: pre;" direction="ltr" dominant-baseline="alphabetic">Database</text></g><g stroke-linecap="round" transform="translate(556.5 480.4280701754385) rotate(91.33221985386969 74.5 24.57192982456138)"><path d="M0 0 C33.61 1.8, 67.72 -1.54, 149 0 M0 0 C33.65 -1.18, 69.24 -0.26, 149 0 M149 0 C147.05 12.21, 149.93 21.44, 149 49.14 M149 0 C148.41 12.55, 149.43 23.55, 149 49.14 M149 49.14 C95.4 46.98, 41.67 49.95, 0 49.14 M149 49.14 C103.82 48.47, 59.97 48.66, 0 49.14 M0 49.14 C1 38.01, -0.63 23.58, 0 0 M0 49.14 C-0.92 32.29, -0.49 13.72, 0 0" stroke="#000000" stroke-width="1" fill="none"></path></g><g stroke-linecap="round" transform="translate(620.9865278970431 454.8977835009466) rotate(91.33221985386969 10.194736842105272 18.821052631578937)"><path d="M0 0 C0 0, 0 0, 0 0 M0 0 C0 0, 0 0, 0 0 M-0.26 6.4 C1.73 4.44, 3.82 1.94, 4.99 0.36 M-0.26 6.4 C1.01 4.85, 2.59 2.89, 4.99 0.36 M0.13 12.04 C4.32 8.02, 8.71 3.25, 10.63 -0.03 M0.13 12.04 C2.5 9.53, 4.33 6.83, 10.63 -0.03 M-0.13 18.44 C5.59 13.28, 9.41 6.11, 15.62 0.33 M-0.13 18.44 C4.44 12.84, 8.93 7.67, 15.62 0.33 M0.27 24.08 C5.88 17.51, 12.58 10.53, 20.6 0.69 M0.27 24.08 C4.66 18.69, 10.29 12.7, 20.6 0.69 M0 30.48 C4.78 26.06, 8.13 19.65, 21 6.33 M0 30.48 C7.93 21.74, 16.52 12.05, 21 6.33 M-0.26 36.88 C7.23 26.76, 16.49 18.12, 20.74 12.73 M-0.26 36.88 C6.35 29.56, 13.55 21.31, 20.74 12.73 M4.07 37.99 C8.21 31.62, 14.86 27.05, 21.13 18.37 M4.07 37.99 C8.29 32.68, 13.13 27.84, 21.13 18.37 M9.72 37.6 C14.5 32.7, 17.89 28.9, 20.87 24.77 M9.72 37.6 C14.12 32.73, 18.6 27.49, 20.87 24.77 M14.7 37.96 C17.04 35.67, 19.24 32.96, 20.61 31.17 M14.7 37.96 C16.76 35.62, 18.85 33.39, 20.61 31.17 M20.35 37.56 C20.65 37.26, 20.82 36.98, 21 36.81 M20.35 37.56 C20.55 37.34, 20.74 37.11, 21 36.81" stroke="#7950f2" stroke-width="0.5" fill="none"></path><path d="M0 0 C5.69 -0.91, 9.04 -0.62, 20.39 0 M0 0 C7.81 0.15, 16.17 -0.26, 20.39 0 M20.39 0 C20.84 9.98, 19.81 18.2, 20.39 37.64 M20.39 0 C20.86 14.35, 20.39 28.97, 20.39 37.64 M20.39 37.64 C15.16 37.35, 11.92 37.61, 0 37.64 M20.39 37.64 C13.22 37.49, 6.16 37.32, 0 37.64 M0 37.64 C0.74 27.98, -0.32 19.83, 0 0 M0 37.64 C0.26 23.28, -0.16 9.49, 0 0" stroke="#000000" stroke-width="1" fill="none"></path></g><g stroke-linecap="round" transform="translate(620.5185597709715 486.0023994553237) rotate(91.33221985386969 10.194736842105272 19.08245614035087)"><path d="M0 0 C0 0, 0 0, 0 0 M0 0 C0 0, 0 0, 0 0 M-0.26 6.4 C1.45 4.98, 2.63 2.8, 4.99 0.36 M-0.26 6.4 C1.68 4.29, 3.2 2.46, 4.99 0.36 M0.13 12.04 C3.91 8.92, 6.95 3.93, 10.63 -0.03 M0.13 12.04 C3.98 7.44, 7.64 3.28, 10.63 -0.03 M-0.13 18.44 C3.97 13.84, 6.07 10.15, 15.62 0.33 M-0.13 18.44 C4.87 12.2, 10.29 6.43, 15.62 0.33 M0.27 24.08 C8 15.8, 15.31 7.3, 20.6 0.69 M0.27 24.08 C6.97 17.04, 13.08 8.67, 20.6 0.69 M0 30.48 C6.41 23.06, 10.85 18.19, 21 6.33 M0 30.48 C5.86 24.74, 10.75 18.78, 21 6.33 M-0.26 36.88 C5.14 30.43, 12 22.59, 20.74 12.73 M-0.26 36.88 C6.58 29.87, 12.48 22.24, 20.74 12.73 M3.42 38.75 C6.72 35.03, 11.82 29.35, 21.13 18.37 M3.42 38.75 C8.91 32.49, 14.87 25.66, 21.13 18.37 M8.41 39.11 C11.72 34.97, 16.29 31.71, 20.87 24.77 M8.41 39.11 C11.92 35.41, 15.02 31.67, 20.87 24.77 M14.05 38.71 C15.61 37.4, 16.69 35.73, 20.61 31.17 M14.05 38.71 C16.4 36.11, 18.87 33.57, 20.61 31.17 M19.04 39.07 C19.73 38.12, 20.48 37.45, 21 36.81 M19.04 39.07 C19.74 38.26, 20.43 37.6, 21 36.81" stroke="#7950f2" stroke-width="0.5" fill="none"></path><path d="M0 0 C4.52 -1.07, 10.29 0.81, 20.39 0 M0 0 C7.52 0.38, 14.58 -0.23, 20.39 0 M20.39 0 C20.82 10.69, 19.66 23.34, 20.39 38.16 M20.39 0 C20.21 14.62, 20.49 29.23, 20.39 38.16 M20.39 38.16 C15.56 39.09, 11.27 38.62, 0 38.16 M20.39 38.16 C15.08 38.24, 9.67 37.89, 0 38.16 M0 38.16 C-0.52 29.45, 0.54 22.5, 0 0 M0 38.16 C0.05 22.94, 0.58 8.04, 0 0" stroke="#000000" stroke-width="1" fill="none"></path></g><g stroke-linecap="round" transform="translate(619.0477321441699 516.5208564467015) rotate(91.33221985386969 10.456140350877149 19.08245614035087)"><path d="M0 0 C0 0, 0 0, 0 0 M0 0 C0 0, 0 0, 0 0 M-0.26 6.4 C1.55 4.53, 2.6 3.16, 4.99 0.36 M-0.26 6.4 C0.9 4.85, 2.35 3.61, 4.99 0.36 M0.13 12.04 C4.81 7.72, 7.62 3.06, 10.63 -0.03 M0.13 12.04 C3.9 7.37, 8.11 2.59, 10.63 -0.03 M-0.13 18.44 C4.53 11.56, 10.1 6.83, 15.62 0.33 M-0.13 18.44 C3.92 13.49, 8.43 8.94, 15.62 0.33 M0.27 24.08 C6.47 17.64, 12.45 9.57, 21.26 -0.07 M0.27 24.08 C6.04 17.66, 10.47 11.79, 21.26 -0.07 M0 30.48 C5.74 22.27, 14.02 14.73, 21 6.33 M0 30.48 C5.13 24.98, 10.02 19.39, 21 6.33 M-0.26 36.88 C8.29 27.78, 15.43 19.28, 21.39 11.97 M-0.26 36.88 C5.51 30.47, 10.65 23.85, 21.39 11.97 M3.42 38.75 C8.33 34.59, 11.26 29.66, 21.13 18.37 M3.42 38.75 C9.37 32.29, 14.74 26.11, 21.13 18.37 M8.41 39.11 C12.96 34.63, 18.41 28.24, 20.87 24.77 M8.41 39.11 C12.41 34.57, 16.39 29.8, 20.87 24.77 M14.05 38.71 C16.02 36.62, 17.59 35.21, 21.27 30.41 M14.05 38.71 C16.06 36.65, 18.15 34.45, 21.27 30.41 M19.04 39.07 C19.52 38.38, 20.3 37.68, 21 36.81 M19.04 39.07 C19.56 38.47, 20.25 37.75, 21 36.81" stroke="#7950f2" stroke-width="0.5" fill="none"></path><path d="M0 0 C3.99 -0.58, 10.86 0.76, 20.91 0 M0 0 C4.71 -0.36, 8.44 -0.04, 20.91 0 M20.91 0 C20.43 7.64, 21.81 17.3, 20.91 38.16 M20.91 0 C20.87 7.96, 20.69 14.94, 20.91 38.16 M20.91 38.16 C15.84 38.12, 9.33 37.7, 0 38.16 M20.91 38.16 C16.27 37.9, 11.19 37.73, 0 38.16 M0 38.16 C-0.59 25.93, 0.69 13.47, 0 0 M0 38.16 C-0.14 29.22, 0.2 18.85, 0 0" stroke="#000000" stroke-width="1" fill="none"></path></g><g stroke-linecap="round" transform="translate(621.8440218166672 542.4171185921142) rotate(91.33221985386969 8.103508771929796 19.08245614035087)"><path d="M0 0 C0 0, 0 0, 0 0 M0 0 C0 0, 0 0, 0 0 M-0.26 6.4 C1.29 4.31, 3.35 2.12, 4.99 0.36 M-0.26 6.4 C0.67 5.3, 1.93 4.06, 4.99 0.36 M0.13 12.04 C3.95 7.36, 7.42 4.79, 10.63 -0.03 M0.13 12.04 C3.7 7.91, 7.16 3.74, 10.63 -0.03 M-0.13 18.44 C4.73 11.75, 11.75 4.83, 15.62 0.33 M-0.13 18.44 C4.39 13.26, 9.3 7.97, 15.62 0.33 M0.27 24.08 C5.04 19.01, 8.18 14.68, 16.67 5.21 M0.27 24.08 C3.5 19.45, 7.29 15.83, 16.67 5.21 M0 30.48 C4.99 24.96, 10.64 16.95, 17.06 10.86 M0 30.48 C4.36 25.82, 8.63 20.68, 17.06 10.86 M-0.26 36.88 C3.76 32.13, 8.38 26.52, 16.8 17.25 M-0.26 36.88 C4.19 31.54, 8.41 25.97, 16.8 17.25 M3.42 38.75 C6.67 35.13, 9.16 32.59, 16.54 23.65 M3.42 38.75 C7 34.72, 10.86 30.45, 16.54 23.65 M8.41 39.11 C12.23 35.94, 14.75 31.65, 16.93 29.3 M8.41 39.11 C10.93 36.3, 13.3 32.89, 16.93 29.3 M14.05 38.71 C14.87 37.77, 15.95 36.58, 16.67 35.69 M14.05 38.71 C14.92 37.86, 15.75 36.84, 16.67 35.69" stroke="#7950f2" stroke-width="0.5" fill="none"></path><path d="M0 0 C5.4 0.79, 12.43 -0.66, 16.21 0 M0 0 C4.26 -0.26, 9.08 -0.4, 16.21 0 M16.21 0 C15.75 14.01, 17.19 25.42, 16.21 38.16 M16.21 0 C16.5 13.44, 15.83 27.51, 16.21 38.16 M16.21 38.16 C12.15 38.66, 7.78 37.64, 0 38.16 M16.21 38.16 C11.19 37.95, 6.23 38.33, 0 38.16 M0 38.16 C0.7 25.29, 1.08 10.28, 0 0 M0 38.16 C0.5 23.71, -0.45 8.78, 0 0" stroke="#000000" stroke-width="1" fill="none"></path></g><g stroke-linecap="round"><g transform="translate(634 390) rotate(0 -0.5 19)"><path d="M-0.51 -0.25 C-0.72 5.94, -0.82 31.13, -0.88 37.46 M0.24 0.81 C-0.08 7.03, -1.02 31.66, -1.25 37.88" stroke="#000000" stroke-width="1" fill="none"></path></g><g transform="translate(634 390) rotate(0 -0.5 19)"><path d="M-7.07 19.78 C-5.26 26.85, -3.56 33.71, -1.25 37.88 M-7.07 19.78 C-5.6 24.47, -4.51 28.21, -1.25 37.88" stroke="#000000" stroke-width="1" fill="none"></path></g><g transform="translate(634 390) rotate(0 -0.5 19)"><path d="M5.92 20.28 C2.82 27.1, -0.4 33.77, -1.25 37.88 M5.92 20.28 C4.24 24.83, 2.17 28.45, -1.25 37.88" stroke="#000000" stroke-width="1" fill="none"></path></g></g><mask></mask><g stroke-linecap="round"><g transform="translate(627 583) rotate(0 -0.5 18)"><path d="M-0.28 -0.43 C-0.39 5.58, -0.54 29.81, -0.67 35.88 M0.58 0.54 C0.43 6.65, -0.59 30.5, -0.94 36.52" stroke="#000000" stroke-width="1" fill="none"></path></g><g transform="translate(627 583) rotate(0 -0.5 18)"><path d="M-6.26 19.32 C-5.4 25, -3.3 29.42, -0.94 36.52 M-6.26 19.32 C-4.98 24.56, -3.1 29.86, -0.94 36.52" stroke="#000000" stroke-width="1" fill="none"></path></g><g transform="translate(627 583) rotate(0 -0.5 18)"><path d="M6.04 19.92 C3.23 25.39, 1.65 29.63, -0.94 36.52 M6.04 19.92 C3.58 25.01, 1.7 30.11, -0.94 36.52" stroke="#000000" stroke-width="1" fill="none"></path></g></g><mask></mask><g transform="translate(531 120) rotate(0 109.5 17.5)"><text x="0" y="24.528" font-family="Virgil, Segoe UI Emoji" font-size="28px" fill="#000000" text-anchor="start" style="white-space: pre;" direction="ltr" dominant-baseline="alphabetic">Node event loop</text></g></svg>