<svg version="1.1" xmlns="http://www.w3.org/2000/svg" viewBox="0 0 852.3634409599686 600.8552773661615" width="852.3634409599686" height="600.8552773661615" filter="invert(93%) hue-rotate(180deg)">
  <!-- svg-source:excalidraw -->
  
  <defs>
    <style class="style-fonts">
      @font-face {
        font-family: "Virgil";
        src: url("https://excalidraw.com/Virgil.woff2");
      }
      @font-face {
        font-family: "Cascadia";
        src: url("https://excalidraw.com/Cascadia.woff2");
      }
      @font-face {
        font-family: "Assistant";
        src: url("https://excalidraw.com/Assistant-Regular.woff2");
      }
    </style>
    
  </defs>
  <g stroke-linecap="round" transform="translate(148 172.92763868308077) rotate(0 96 96)"><path d="M124.64 3.37 C136.22 5.5, 146.9 14.08, 156.4 22.13 C165.9 30.17, 175.82 41, 181.64 51.63 C187.46 62.27, 190.31 73.86, 191.34 85.95 C192.37 98.03, 191.19 112.3, 187.83 124.15 C184.46 136.01, 178.93 147.76, 171.14 157.06 C163.34 166.36, 152.11 174.25, 141.06 179.94 C130.01 185.62, 116.91 189.71, 104.84 191.16 C92.77 192.61, 80.31 192.17, 68.64 188.63 C56.98 185.09, 44.41 177.69, 34.86 169.92 C25.31 162.15, 17.02 152.86, 11.34 142.02 C5.66 131.17, 1.96 117.11, 0.78 104.85 C-0.4 92.58, 0.87 79.92, 4.27 68.44 C7.67 56.96, 13.33 45.58, 21.19 35.98 C29.05 26.38, 40.64 16.89, 51.42 10.83 C62.19 4.77, 73.45 0.7, 85.84 -0.37 C98.23 -1.44, 118.66 3.02, 125.75 4.43 C132.84 5.83, 128.81 6.4, 128.38 8.07 M94.52 -1.26 C106.15 -2.61, 120.57 3.12, 131.88 7.81 C143.18 12.5, 153.62 18.47, 162.34 26.89 C171.07 35.32, 179.49 47.18, 184.23 58.35 C188.96 69.52, 190.57 81.87, 190.76 93.93 C190.95 105.98, 189.87 119.17, 185.36 130.69 C180.84 142.21, 172.2 154.2, 163.66 163.06 C155.13 171.91, 145.35 179.15, 134.15 183.83 C122.96 188.51, 109.08 190.76, 96.49 191.12 C83.9 191.49, 69.75 190.55, 58.62 186.02 C47.5 181.5, 38.31 172.84, 29.74 163.97 C21.18 155.09, 12.23 143.87, 7.24 132.75 C2.25 121.64, 0.06 109.57, -0.19 97.27 C-0.44 84.97, 1.11 70.15, 5.74 58.96 C10.37 47.76, 19.02 38.9, 27.58 30.13 C36.14 21.36, 45.6 11.55, 57.1 6.33 C68.61 1.11, 90.18 -0.49, 96.59 -1.2 C103.01 -1.91, 95.95 0.13, 95.6 2.07" stroke="none" stroke-width="0" fill="#62a1d6"></path><path d="M73.53 2.49 C84.36 -1.72, 98.62 -0.3, 110.57 1.65 C122.53 3.61, 134.67 8, 145.26 14.24 C155.86 20.48, 166.85 29.39, 174.14 39.1 C181.43 48.81, 186.09 60.58, 189.03 72.49 C191.97 84.4, 193.49 98.3, 191.79 110.55 C190.1 122.8, 185.26 135.61, 178.84 145.97 C172.42 156.33, 163.29 165.59, 153.27 172.72 C143.25 179.85, 130.77 185.79, 118.69 188.75 C106.61 191.72, 92.8 192.44, 80.78 190.51 C68.77 188.58, 57.09 183.49, 46.61 177.16 C36.13 170.83, 25.27 162.28, 17.88 152.52 C10.49 142.76, 5.11 130.53, 2.28 118.6 C-0.55 106.67, -1.05 93.1, 0.93 80.94 C2.91 68.78, 7.71 56.06, 14.15 45.64 C20.6 35.22, 27.86 25.77, 39.59 18.43 C51.33 11.08, 74.91 4.23, 84.58 1.55 C94.25 -1.13, 97.35 0.95, 97.63 2.34 M140.3 12.14 C151.4 15.99, 163.22 25.08, 171.4 34.38 C179.58 43.67, 186.17 56.01, 189.39 67.9 C192.6 79.79, 192.06 93.47, 190.67 105.7 C189.27 117.92, 186.55 130.6, 181.02 141.25 C175.49 151.89, 167.17 161.73, 157.48 169.55 C147.79 177.37, 134.94 184.42, 122.87 188.18 C110.81 191.93, 97.22 193.41, 85.1 192.09 C72.99 190.77, 60.84 186.29, 50.18 180.27 C39.52 174.24, 29 165.4, 21.16 155.95 C13.33 146.5, 6.78 135.33, 3.17 123.57 C-0.45 111.82, -1.82 97.68, -0.52 85.42 C0.79 73.16, 4.92 60.51, 10.99 50.02 C17.06 39.54, 26.1 30.18, 35.9 22.49 C45.71 14.8, 58.12 7.67, 69.82 3.87 C81.52 0.06, 94 -1.47, 106.11 -0.35 C118.21 0.77, 136.83 8.26, 142.45 10.57 C148.07 12.88, 140.91 11.7, 139.83 13.5" stroke="#000000" stroke-width="1" fill="none"></path></g><g stroke-linecap="round"><g transform="translate(173.3381517811049 236.42015236921452) rotate(0 64.18910877039468 34.26759644981536)" fill-rule="evenodd"><path d="M-1.55 -1.23 L1.66 58.88 L29.39 55.28 L32.67 34.14 L88.95 76.88 L86.76 86 L104.51 87.35 L107.23 99.15 L127.95 97.22 L126.63 72.42 L105.68 75.15 L105.51 79.07 L96.42 65.6 L92.83 70.07 L41.93 33.51 L84.46 35 L84.66 41.35 L104.59 32.22 L104.2 43.08 L128.25 43 L126.44 20.91 L105.98 18.39 L105.12 29.17 L86.7 21.83 L87.47 24.09 L41.39 22.89 L91.3 -5.63 L94.92 1.62 L103.93 -10.2 L102.46 -4.88 L129.35 -2.94 L128.32 -28.11 L102.28 -30.25 L101.9 -19.27 L84.72 -16.84 L89.92 -8.29 L30.15 23.66 L31.11 -0.72 L1.15 0.39" stroke="none" stroke-width="0" fill="#fff" fill-rule="evenodd"></path><path d="M0 0 C1.5 18.58, 0.86 33.73, 0.51 56.89 M0 0 C0.57 15.67, 0.16 29.97, 0.51 56.89 M0.51 56.89 C8.36 56.84, 13.98 55.33, 30.36 57.16 M0.51 56.89 C9.68 57.75, 18.76 56.64, 30.36 57.16 M30.36 57.16 C30.11 50.3, 30.85 43.46, 30.82 35.31 M30.36 57.16 C31.47 50.41, 31.05 43.31, 30.82 35.31 M30.82 35.31 C49.41 45.09, 65.1 59.69, 90.51 77.08 M30.82 35.31 C44.19 44.93, 58.67 54.25, 90.51 77.08 M90.51 77.08 C88.99 79.37, 87.68 82.81, 86.19 85.09 M90.51 77.08 C88.99 79.43, 87.68 81.49, 86.19 85.09 M86.19 85.09 C92.68 87.64, 96.33 87.25, 105.89 88.78 M86.19 85.09 C90.36 86.28, 95 87.92, 105.89 88.78 M105.89 88.78 C105.3 90.35, 106.43 92.43, 105.89 97.22 M105.89 88.78 C106.27 90.77, 105.62 92.92, 105.89 97.22 M105.89 97.22 C112.84 95.33, 119.36 95.7, 128.33 96.1 M105.89 97.22 C113.63 96.9, 122.69 96.79, 128.33 96.1 M128.33 96.1 C127.04 92.17, 129.56 83.59, 128.38 72.92 M128.33 96.1 C127.99 91.03, 128.95 85.67, 128.38 72.92 M128.38 72.92 C120.14 72.11, 111.62 72.94, 106.05 73.18 M128.38 72.92 C120.37 72.81, 111.74 72.17, 106.05 73.18 M106.05 73.18 C105.85 75.68, 105.68 77.42, 105.94 79.97 M106.05 73.18 C106.19 74.71, 105.85 76.3, 105.94 79.97 M105.94 79.97 C102.31 75.95, 102.57 70.4, 97.45 66.08 M105.94 79.97 C104.22 77.01, 101.74 74.42, 97.45 66.08 M97.45 66.08 C96.21 67.57, 93.75 70.36, 93.18 72.01 M97.45 66.08 C96.36 67.89, 94.35 70.01, 93.18 72.01 M93.18 72.01 C79.98 62.17, 68.38 52.34, 41.88 33.44 M93.18 72.01 C77.96 60.64, 61.7 47.4, 41.88 33.44 M41.88 33.44 C59.56 32.5, 75.15 32.26, 85.47 33.39 M41.88 33.44 C56.07 33.51, 71.34 32.39, 85.47 33.39 M85.47 33.39 C85.84 34.78, 85.72 35.88, 85.21 39.58 M85.47 33.39 C85.55 34.84, 85.21 35.67, 85.21 39.58 M85.21 39.58 C90.95 39.25, 93.14 36.19, 104.35 33.39 M85.21 39.58 C89.44 37.33, 93.95 37.34, 104.35 33.39 M104.35 33.39 C105.03 38.28, 104.56 40.34, 104.35 44.44 M104.35 33.39 C104.8 35.9, 103.95 39.4, 104.35 44.44 M104.35 44.44 C111.19 42.35, 118.81 44.92, 128.12 44.28 M104.35 44.44 C110.65 44.6, 116.19 44.18, 128.12 44.28 M128.12 44.28 C129.52 34.19, 126.9 26.3, 128.38 20.3 M128.12 44.28 C127.36 37.88, 127.86 33.27, 128.38 20.3 M128.38 20.3 C124.59 21.29, 120.33 19.58, 104.45 20.3 M128.38 20.3 C120.65 19.88, 111.81 19.19, 104.45 20.3 M104.45 20.3 C104.02 22.29, 103.84 24.76, 104.09 27.72 M104.45 20.3 C104.44 22.34, 104.25 23.92, 104.09 27.72 M104.09 27.72 C97.67 25.09, 92.69 21.72, 85.26 20.14 M104.09 27.72 C97.12 25.66, 89.33 20.9, 85.26 20.14 M85.26 20.14 C85.63 21.32, 85.76 22.06, 85.67 25.27 M85.26 20.14 C85.39 21.77, 85.78 23.28, 85.67 25.27 M85.67 25.27 C73.15 25.37, 64.17 26.57, 42.4 24.79 M85.67 25.27 C71.44 25.31, 56.39 25.39, 42.4 24.79 M42.4 24.79 C58.86 15.79, 74.93 4.27, 91.74 -3.9 M42.4 24.79 C56.97 16.38, 70 8.64, 91.74 -3.9 M91.74 -3.9 C92.68 -1.63, 94.53 0.3, 95.5 1.82 M91.74 -3.9 C92.81 -2.21, 94.08 0.09, 95.5 1.82 M95.5 1.82 C96.28 -0.6, 99.36 -5.92, 104.3 -11.38 M95.5 1.82 C97.64 -2.81, 101.05 -6.04, 104.3 -11.38 M104.3 -11.38 C104.98 -8.57, 104.33 -6.4, 104.35 -4.01 M104.3 -11.38 C104.24 -10.17, 104.22 -8.5, 104.35 -4.01 M104.35 -4.01 C112.87 -5.05, 121.72 -3.23, 127.92 -3.79 M104.35 -4.01 C112.15 -3.87, 121.07 -4.2, 127.92 -3.79 M127.92 -3.79 C126.02 -8.25, 125.85 -17.87, 127.76 -28.42 M127.92 -3.79 C126.9 -11.21, 127.5 -18.23, 127.76 -28.42 M127.76 -28.42 C121.51 -29.79, 115.91 -28.28, 103.73 -28.69 M127.76 -28.42 C120.79 -28.95, 112.56 -29.16, 103.73 -28.69 M103.73 -28.69 C104.7 -26.5, 103.67 -25.15, 103.53 -18.7 M103.73 -28.69 C103.74 -25.23, 103.61 -21.43, 103.53 -18.7 M103.53 -18.7 C99.77 -17.37, 92.75 -16.05, 86.08 -15.81 M103.53 -18.7 C99.14 -17.31, 93.98 -17.48, 86.08 -15.81 M86.08 -15.81 C86.48 -13.26, 87.3 -12.12, 88.6 -8.76 M86.08 -15.81 C86.94 -12.94, 87.69 -10.14, 88.6 -8.76 M88.6 -8.76 C67.57 1.08, 50.5 14.36, 30.62 24.31 M88.6 -8.76 C69.12 2.07, 49.35 12.91, 30.62 24.31 M30.62 24.31 C29.83 19.72, 31.56 12.94, 29.84 0 M30.62 24.31 C30.85 17.03, 29.38 9.22, 29.84 0 M29.84 0 C18.95 1.59, 8.32 -0.67, 0 0 M29.84 0 C23.25 -0.54, 15.79 0.11, 0 0 M0 0 C0 0, 0 0, 0 0 M0 0 C0 0, 0 0, 0 0" stroke="#000000" stroke-width="1" fill="none"></path></g></g><mask></mask><g stroke-linecap="round"><g transform="translate(749.6397622123613 378) rotate(0 -1.1370076655598496 106.42763868308077)" fill-rule="evenodd"><path d="M-0.63 0.22 L-95.33 54.9 L-93.6 158.55 L-1.14 214.42 L90.45 153.18 L91.26 50.12 L-0.93 0.09" stroke="none" stroke-width="0" fill="#40c057" fill-rule="evenodd"></path><path d="M0 0 C-35 17.1, -65.67 36.47, -94.14 54.14 M0 0 C-25.52 15.05, -52.45 31.22, -94.14 54.14 M-94.14 54.14 C-92.43 86.31, -93.52 120.69, -94.14 157.33 M-94.14 54.14 C-93.24 86.61, -94.71 118.5, -94.14 157.33 M-94.14 157.33 C-60.82 178.29, -27.07 196.58, 0.45 212.86 M-94.14 157.33 C-63.4 176.12, -30.69 193.52, 0.45 212.86 M0.45 212.86 C30.42 191.3, 59.59 172.96, 91.87 152.7 M0.45 212.86 C22.83 198.02, 46.74 183.98, 91.87 152.7 M91.87 152.7 C92.56 120.44, 93.38 87.01, 91.87 50.44 M91.87 152.7 C91.89 116.5, 92.02 79.9, 91.87 50.44 M91.87 50.44 C60.34 32.92, 30.58 16.73, 0 0 M91.87 50.44 C73.16 40.43, 55.01 29.45, 0 0 M0 0 C0 0, 0 0, 0 0 M0 0 C0 0, 0 0, 0 0" stroke="#000000" stroke-width="1" fill="none"></path></g></g><mask></mask><g stroke-linecap="round"><g transform="translate(718.6618299014272 461.13709186554127) rotate(0 29.282999445398218 20.764841432807373)" fill-rule="evenodd"><path d="M0.6 -2.1 C1.14 3.07, 1.26 20.37, 1.13 31.74 C1 43.12, 3.08 60.81, -0.19 66.15 C-3.46 71.5, -15.22 72.5, -18.51 63.81 C-21.8 55.12, -20.86 28.73, -19.92 14.02 C-18.97 -0.7, -16.73 -17.99, -12.84 -24.47 C-8.95 -30.95, -4 -30.69, 3.43 -24.88 C10.87 -19.06, 22.8 -0.16, 31.75 10.42 C40.69 21, 52.3 43.95, 57.11 38.62 C61.91 33.28, 57.61 -11.36, 60.59 -21.6 C63.57 -31.84, 72.32 -29.36, 74.99 -22.81 C77.67 -16.26, 77.05 3.77, 76.65 17.72 C76.26 31.67, 77.02 52.8, 72.62 60.87 C68.22 68.94, 58.71 70.82, 50.23 66.17 C41.75 61.51, 29.97 44.35, 21.76 32.94 C13.54 21.54, 4.31 3.4, 0.95 -2.26" stroke="none" stroke-width="0" fill="#ffff" fill-rule="evenodd"></path><path d="M-1.16 1.16 C-1.2 6.47, -0.81 20.23, -0.65 31.21 C-0.49 42.19, 2.38 61.69, -0.21 67.04 C-2.81 72.4, -12.85 71.89, -16.22 63.35 C-19.59 54.82, -20.8 30.14, -20.44 15.84 C-20.09 1.53, -18.23 -15.89, -14.1 -22.47 C-9.97 -29.04, -2.95 -28.75, 4.35 -23.61 C11.65 -18.48, 20.91 -2.34, 29.71 8.35 C38.52 19.04, 52.16 45.46, 57.18 40.52 C62.2 35.59, 56.7 -10.54, 59.85 -21.24 C62.99 -31.94, 73.16 -29.86, 76.07 -23.69 C78.98 -17.53, 77.55 1.55, 77.3 15.75 C77.05 29.95, 78.86 53.22, 74.56 61.49 C70.26 69.77, 60.01 70.26, 51.5 65.41 C42.99 60.56, 32.09 43.24, 23.5 32.4 C14.91 21.57, 3.89 5.8, -0.03 0.41 M0.43 0.73 C0.77 6.26, 1.65 21.82, 1.46 32.59 C1.27 43.35, 2.19 60.09, -0.7 65.33 C-3.6 70.56, -12.88 72.11, -15.91 63.98 C-18.93 55.85, -19.41 31.09, -18.85 16.56 C-18.3 2.03, -16.57 -16.33, -12.57 -23.18 C-8.57 -30.04, -1.69 -29.79, 5.15 -24.58 C11.98 -19.38, 20.03 -2.6, 28.46 8.04 C36.9 18.67, 50.4 44.16, 55.76 39.23 C61.11 34.3, 57.63 -11.21, 60.56 -21.52 C63.5 -31.84, 70.24 -28.76, 73.35 -22.67 C76.46 -16.58, 78.95 0.62, 79.24 15.03 C79.54 29.45, 79.87 55.44, 75.13 63.82 C70.39 72.2, 59.27 70.61, 50.79 65.31 C42.31 60.01, 32.54 43.21, 24.24 32.03 C15.94 20.84, 5.24 3.41, 0.99 -1.78" stroke="#000000" stroke-width="1" fill="none"></path></g></g><mask></mask><g stroke-linecap="round"><g transform="translate(746.7765104925134 10) rotate(0 -1.1370076655598496 106.42763868308077)" fill-rule="evenodd"><path d="M-1.56 -0.04 L-93.69 55.64 L-92.85 158.29 L0.44 213.42 L92.83 153.01 L93.63 48.6 L0.82 -1.64" stroke="none" stroke-width="0" fill="#40c057" fill-rule="evenodd"></path><path d="M0 0 C-33.99 21.03, -68.52 37.09, -94.14 54.14 M0 0 C-31.58 17.7, -64.3 37.71, -94.14 54.14 M-94.14 54.14 C-95.6 79.5, -92.17 103.07, -94.14 157.33 M-94.14 54.14 C-95.7 94.41, -94.69 135.12, -94.14 157.33 M-94.14 157.33 C-55.3 181.67, -19.29 202.07, 0.45 212.86 M-94.14 157.33 C-62.96 175.26, -31.97 193.4, 0.45 212.86 M0.45 212.86 C34.57 191.57, 67.21 167.38, 91.87 152.7 M0.45 212.86 C32.06 192.58, 64.86 170.75, 91.87 152.7 M91.87 152.7 C93.96 131.58, 91.02 111.54, 91.87 50.44 M91.87 152.7 C93.46 114.45, 93.55 75.02, 91.87 50.44 M91.87 50.44 C63.59 35.8, 33.21 19.87, 0 0 M91.87 50.44 C61.45 33.25, 28.99 16.97, 0 0 M0 0 C0 0, 0 0, 0 0 M0 0 C0 0, 0 0, 0 0" stroke="#000000" stroke-width="1" fill="none"></path></g></g><mask></mask><g stroke-linecap="round"><g transform="translate(715.7985781815792 93.13709186554127) rotate(0 29.282999445398218 20.764841432807373)" fill-rule="evenodd"><path d="M-1.43 0.97 C-0.88 6.28, 2.06 22.14, 2.18 33.11 C2.29 44.09, 2.17 61.7, -0.73 66.84 C-3.64 71.98, -11.93 72.33, -15.26 63.95 C-18.58 55.57, -21.07 31.34, -20.68 16.55 C-20.29 1.75, -16.85 -18.2, -12.92 -24.84 C-9 -31.48, -4.25 -28.79, 2.87 -23.3 C10 -17.8, 21.23 -2.3, 29.82 8.12 C38.41 18.54, 49.31 43.82, 54.42 39.2 C59.53 34.58, 57.05 -8.83, 60.46 -19.59 C63.88 -30.36, 71.77 -31.72, 74.89 -25.4 C78.01 -19.08, 79.66 4, 79.21 18.33 C78.75 32.65, 76.43 52.4, 72.16 60.57 C67.89 68.73, 61.45 71.85, 53.59 67.32 C45.74 62.78, 33.89 44.7, 25.04 33.35 C16.19 22.01, 4.65 4.58, 0.51 -0.77" stroke="none" stroke-width="0" fill="#ffff" fill-rule="evenodd"></path><path d="M0.94 -0.77 C0.83 4.62, -0.36 21.09, -0.54 32.08 C-0.73 43.07, 2.31 59.93, -0.16 65.18 C-2.62 70.43, -12.31 71.79, -15.34 63.58 C-18.37 55.38, -18.38 30.34, -18.33 15.97 C-18.27 1.59, -18.74 -15.77, -15.01 -22.67 C-11.27 -29.56, -3.46 -30.73, 4.09 -25.41 C11.64 -20.09, 21.66 -1.87, 30.3 9.27 C38.94 20.41, 51.16 46.49, 55.95 41.43 C60.74 36.37, 56.07 -10.24, 59.06 -21.1 C62.06 -31.95, 70.75 -30.05, 73.93 -23.71 C77.11 -17.36, 77.95 2.5, 78.13 16.97 C78.31 31.44, 79.58 54.9, 75.02 63.09 C70.46 71.28, 59.29 71.24, 50.78 66.11 C42.26 60.98, 32.32 43.26, 23.92 32.3 C15.52 21.33, 4.17 5.55, 0.38 0.35 M-0.02 1.44 C0.21 6.5, 1.72 19.47, 1.62 30.25 C1.52 41.04, 2.08 60.46, -0.62 66.14 C-3.32 71.82, -11.45 72.56, -14.56 64.33 C-17.67 56.1, -19.38 31.4, -19.28 16.76 C-19.18 2.12, -17.96 -16.75, -13.95 -23.49 C-9.95 -30.23, -2.47 -29.15, 4.75 -23.66 C11.97 -18.17, 20.56 -1.28, 29.36 9.44 C38.16 20.15, 52.54 45.74, 57.54 40.61 C62.54 35.49, 56.67 -10.76, 59.37 -21.31 C62.07 -31.86, 70.84 -29.05, 73.75 -22.69 C76.66 -16.32, 77.11 2.68, 76.85 16.89 C76.59 31.11, 76.7 54.35, 72.17 62.6 C67.64 70.85, 58.18 71.5, 49.69 66.38 C41.2 61.26, 29.23 42.63, 21.21 31.86 C13.2 21.09, 5.06 7.3, 1.61 1.78" stroke="#000000" stroke-width="1" fill="none"></path></g></g><mask></mask><g stroke-linecap="round" transform="translate(569 469.4276386830808) rotate(0 18.5 39)"><path d="M2.46 2.14 C2.46 2.14, 2.46 2.14, 2.46 2.14 M2.46 2.14 C2.46 2.14, 2.46 2.14, 2.46 2.14 M3.91 12.67 C6.93 8.88, 7.6 7.87, 12.44 2.86 M3.91 12.67 C6.13 9.84, 9.11 6.65, 12.44 2.86 M4.04 24.71 C9.82 16.92, 16.14 14, 23.07 2.83 M4.04 24.71 C11.52 16.47, 18.96 6.28, 23.07 2.83 M4.17 36.75 C9.22 29.55, 18.63 18.17, 33.7 2.79 M4.17 36.75 C10.33 28.62, 16.36 21.52, 33.7 2.79 M4.31 48.79 C17.66 33.21, 33.2 16.3, 39.73 8.04 M4.31 48.79 C16.72 35.85, 28.48 22.16, 39.73 8.04 M4.44 60.84 C19.61 45.05, 31.72 27.47, 39.87 20.08 M4.44 60.84 C17.12 46.9, 28.97 34.67, 39.87 20.08 M2.6 75.14 C9.95 64.68, 17.05 55.32, 40 32.12 M2.6 75.14 C12.07 64.5, 22.81 51.83, 40 32.12 M8.64 80.39 C17.13 71.63, 26.42 60.63, 40.13 44.16 M8.64 80.39 C14.95 73.11, 22.3 64.08, 40.13 44.16 M19.27 80.35 C24 72.05, 31.34 65.9, 40.27 56.2 M19.27 80.35 C25.06 75.9, 28.75 69.42, 40.27 56.2 M5.41 77.61 C5.41 77.61, 5.41 77.61, 5.41 77.61 M5.41 77.61 C5.41 77.61, 5.41 77.61, 5.41 77.61 M17.46 77.47 C12.4 72.59, 7.91 71.93, 5.38 66.98 M17.46 77.47 C15.18 75.89, 12.62 73.6, 5.38 66.98 M29.5 77.34 C22.93 73.69, 16.62 66.58, 5.35 56.35 M29.5 77.34 C20.84 70.74, 14.22 62.54, 5.35 56.35 M36.25 72.61 C26.11 62.8, 10.84 50.82, 5.31 45.72 M36.25 72.61 C28.12 65.97, 20.25 59.05, 5.31 45.72 M39.99 65.26 C32.27 57.23, 22.29 47, 5.28 35.09 M39.99 65.26 C28.27 56.88, 18.55 46.11, 5.28 35.09 M39.96 54.63 C28.7 47.56, 20.92 37.7, 5.24 24.46 M39.96 54.63 C32.26 47.94, 23.4 40.38, 5.24 24.46 M39.92 44 C31.61 33.99, 18.03 25.47, 5.21 13.82 M39.92 44 C27.91 33.65, 15.42 21.27, 5.21 13.82 M39.89 33.37 C28.94 23.87, 19.24 14.32, 2.91 1.23 M39.89 33.37 C26.74 21.56, 12.38 9.82, 2.91 1.23 M39.85 22.74 C34.99 16.9, 25.54 12.47, 11.18 -2.19 M39.85 22.74 C28.94 14.13, 19.76 4.43, 11.18 -2.19 M39.82 12.11 C34.53 6.23, 28.01 2.4, 23.97 -1.66 M39.82 12.11 C36.29 8.85, 31.36 4.19, 23.97 -1.66" stroke="#ffc9c9" stroke-width="1" fill="none"></path><path d="M9.25 0 C11.75 0.31, 18.47 1.47, 27.75 0 M9.25 0 C14.58 -0.13, 19.1 -0.23, 27.75 0 M27.75 0 C34.25 0.17, 35.7 1.64, 37 9.25 M27.75 0 C35.13 -1.2, 38.85 3.15, 37 9.25 M37 9.25 C35.28 22.05, 37.9 38.18, 37 68.75 M37 9.25 C37.08 26.6, 37.63 41.52, 37 68.75 M37 68.75 C38.07 76.59, 33.61 77.01, 27.75 78 M37 68.75 C37.65 77.1, 35.72 77.68, 27.75 78 M27.75 78 C22.72 77.67, 20.38 78.22, 9.25 78 M27.75 78 C20.64 77.94, 13.43 77.22, 9.25 78 M9.25 78 C3.96 76.24, -1.2 76.84, 0 68.75 M9.25 78 C1.67 77.16, 0.19 75.57, 0 68.75 M0 68.75 C-1.3 48.55, -0.27 25.47, 0 9.25 M0 68.75 C-0.55 46.98, -0.86 23.7, 0 9.25 M0 9.25 C0.21 4.16, 5.06 0.35, 9.25 0 M0 9.25 C-1.81 1.61, 3.24 1.86, 9.25 0" stroke="#1e1e1e" stroke-width="2" fill="none"></path></g><g stroke-linecap="round" transform="translate(139.5 91.42763868308077) rotate(0 18.5 39)"><path d="M2.46 2.14 C2.46 2.14, 2.46 2.14, 2.46 2.14 M2.46 2.14 C2.46 2.14, 2.46 2.14, 2.46 2.14 M3.91 12.67 C6.28 10.41, 8.93 7.78, 12.44 2.86 M3.91 12.67 C6.68 9.49, 9.68 6.19, 12.44 2.86 M4.04 24.71 C10.62 18.16, 14.96 14.5, 23.07 2.83 M4.04 24.71 C7.72 19.31, 13.74 13.99, 23.07 2.83 M4.17 36.75 C12.49 27.6, 21.53 16.62, 33.7 2.79 M4.17 36.75 C12.34 25.77, 20.95 16.63, 33.7 2.79 M4.31 48.79 C11.54 42.54, 18.81 32.72, 39.73 8.04 M4.31 48.79 C17.28 33.47, 32.51 17.47, 39.73 8.04 M4.44 60.84 C11.95 50.91, 23.11 40.97, 39.87 20.08 M4.44 60.84 C17.15 43.75, 31.88 29.13, 39.87 20.08 M2.6 75.14 C10.67 65.04, 19.27 54.53, 40 32.12 M2.6 75.14 C17.61 59.05, 32.34 42.57, 40 32.12 M8.64 80.39 C18.55 68.86, 24.91 58.31, 40.13 44.16 M8.64 80.39 C15.81 72.4, 22.9 63.23, 40.13 44.16 M19.27 80.35 C23.53 75, 31.59 65.42, 40.27 56.2 M19.27 80.35 C25.21 73.1, 31.87 64.65, 40.27 56.2 M5.41 77.61 C5.41 77.61, 5.41 77.61, 5.41 77.61 M5.41 77.61 C5.41 77.61, 5.41 77.61, 5.41 77.61 M17.46 77.47 C9.49 72.83, 5.4 67.91, 0.85 63.04 M17.46 77.47 C12.62 74.27, 8.59 71.04, 0.85 63.04 M29.5 77.34 C17.25 67.34, 7.16 58.87, 0.82 52.41 M29.5 77.34 C23.45 71.58, 16.27 66.32, 0.82 52.41 M36.25 72.61 C24.43 64.99, 16.06 54.85, 0.78 41.78 M36.25 72.61 C26.31 64.37, 15.28 54.35, 0.78 41.78 M36.97 62.64 C23.19 52.71, 11.61 37.74, 0.75 31.15 M36.97 62.64 C28.56 54, 19.76 47.08, 0.75 31.15 M36.94 52.01 C27.32 42.46, 18.89 35.28, 0.71 20.52 M36.94 52.01 C23.65 40.22, 9.7 27.73, 0.71 20.52 M36.91 41.38 C26.96 31.71, 15.88 23.92, 0.68 9.89 M36.91 41.38 C22.1 29.26, 8.66 17.31, 0.68 9.89 M36.87 30.75 C29.85 24.16, 24.35 17.12, 3.66 1.88 M36.87 30.75 C28.72 22.51, 17.86 15.18, 3.66 1.88 M36.84 20.12 C29.63 13.86, 22.19 6.8, 12.69 -0.87 M36.84 20.12 C29.82 13.93, 22.8 7.57, 12.69 -0.87 M36.8 9.49 C34.12 6.65, 27.76 3.34, 25.48 -0.35 M36.8 9.49 C33.27 6.4, 29.03 2.46, 25.48 -0.35" stroke="#ffc9c9" stroke-width="1" fill="none"></path><path d="M9.25 0 C15.94 -0.16, 21.16 -1.09, 27.75 0 M9.25 0 C15.89 0.82, 22.75 -0.22, 27.75 0 M27.75 0 C35.18 1.89, 38.95 2.54, 37 9.25 M27.75 0 C33.7 1.3, 38.39 3.06, 37 9.25 M37 9.25 C38.88 25.55, 36.67 44.22, 37 68.75 M37 9.25 C36.65 29.23, 36.5 51.46, 37 68.75 M37 68.75 C37.35 74.19, 35.82 78.94, 27.75 78 M37 68.75 C38.83 73.84, 32.17 78.41, 27.75 78 M27.75 78 C23.33 77.5, 17.5 77.75, 9.25 78 M27.75 78 C22.31 77.67, 16.08 78.24, 9.25 78 M9.25 78 C2.76 76.48, -1.97 76.17, 0 68.75 M9.25 78 C3.14 76.12, -0.84 75.44, 0 68.75 M0 68.75 C1.88 52.71, -1.18 38.48, 0 9.25 M0 68.75 C0.01 49.26, 0.01 29.39, 0 9.25 M0 9.25 C-1.36 2.33, 3.34 0.96, 9.25 0 M0 9.25 C-1.28 4.49, 3.41 0.95, 9.25 0" stroke="#1e1e1e" stroke-width="2" fill="none"></path></g><g stroke-linecap="round" transform="translate(602.5 33.42763868308077) rotate(0 18.5 39)"><path d="M2.46 2.14 C2.46 2.14, 2.46 2.14, 2.46 2.14 M2.46 2.14 C2.46 2.14, 2.46 2.14, 2.46 2.14 M-0.03 17.2 C5.2 11.16, 7.8 8.07, 14.4 0.6 M-0.03 17.2 C2.96 12.1, 7.97 8.26, 14.4 0.6 M0.1 29.24 C8.91 18.64, 15.43 9.18, 25.03 0.56 M0.1 29.24 C8.75 20.5, 16.58 10.67, 25.03 0.56 M0.24 41.28 C9.48 31.89, 17.09 18.99, 33.7 2.79 M0.24 41.28 C9.69 31.21, 18.56 21.75, 33.7 2.79 M0.37 53.32 C11.74 40.06, 21.34 28.06, 36.45 11.81 M0.37 53.32 C13.53 39.74, 24.43 25.18, 36.45 11.81 M0.5 65.36 C12.86 52.29, 22.24 35.42, 36.59 23.85 M0.5 65.36 C11.32 53.24, 20.8 41.7, 36.59 23.85 M2.6 75.14 C8.25 66.24, 17.3 59.29, 36.72 35.9 M2.6 75.14 C13.76 61.09, 27.13 46.49, 36.72 35.9 M10.61 78.12 C18.69 70.77, 22.16 66.39, 36.85 47.94 M10.61 78.12 C16.64 71.69, 20.7 66.24, 36.85 47.94 M21.24 78.09 C26.68 72.54, 30.69 66.61, 36.99 59.98 M21.24 78.09 C25.44 73.94, 27.29 71.51, 36.99 59.98 M5.41 77.61 C5.41 77.61, 5.41 77.61, 5.41 77.61 M5.41 77.61 C5.41 77.61, 5.41 77.61, 5.41 77.61 M17.46 77.47 C14.05 74.4, 8.18 70.83, 5.38 66.98 M17.46 77.47 C14.79 74.66, 10.39 71.7, 5.38 66.98 M29.5 77.34 C23.62 71.25, 17.43 65.63, 5.35 56.35 M29.5 77.34 C23.53 71.61, 16 66.91, 5.35 56.35 M36.25 72.61 C26.19 64.65, 17.35 56.7, 5.31 45.72 M36.25 72.61 C26.83 64.83, 16.77 56.81, 5.31 45.72 M39.99 65.26 C27.25 51.53, 13.07 39.14, 5.28 35.09 M39.99 65.26 C30.11 57.33, 20.41 47.26, 5.28 35.09 M39.96 54.63 C27.38 43.9, 17.32 35.16, 5.24 24.46 M39.96 54.63 C28.42 44.65, 15.59 32.67, 5.24 24.46 M39.92 44 C30.19 35.24, 17.99 26.55, 5.21 13.82 M39.92 44 C28.38 33.85, 15.54 22.23, 5.21 13.82 M39.89 33.37 C24.65 22.19, 13.78 8.02, 2.91 1.23 M39.89 33.37 C30.72 25.96, 23.37 19.26, 2.91 1.23 M39.85 22.74 C29.37 15.12, 22.28 7.47, 11.18 -2.19 M39.85 22.74 C29.04 12.43, 17.75 3.42, 11.18 -2.19 M39.82 12.11 C36.18 8.07, 33.5 6.84, 23.97 -1.66 M39.82 12.11 C35.87 7.71, 32.42 5.56, 23.97 -1.66" stroke="#ffc9c9" stroke-width="1" fill="none"></path><path d="M9.25 0 C13.02 -1.93, 17.99 1.14, 27.75 0 M9.25 0 C14.54 0.79, 17.83 -0.2, 27.75 0 M27.75 0 C35.05 1.2, 36.98 2.7, 37 9.25 M27.75 0 C35.1 -0.68, 38.8 2.62, 37 9.25 M37 9.25 C38.3 27.01, 36.26 39.86, 37 68.75 M37 9.25 C37.19 23.58, 38.02 36.8, 37 68.75 M37 68.75 C36.06 73.4, 34.27 78.03, 27.75 78 M37 68.75 C35.01 76.99, 35.35 77.17, 27.75 78 M27.75 78 C22.31 77.29, 16.25 77.56, 9.25 78 M27.75 78 C20.26 77.06, 14.75 77.99, 9.25 78 M9.25 78 C1.45 77.27, 0.46 73.76, 0 68.75 M9.25 78 C2.67 77.21, 2.04 73.03, 0 68.75 M0 68.75 C-0.52 54.6, -0.13 40.7, 0 9.25 M0 68.75 C-0.16 52.68, 0.7 35.81, 0 9.25 M0 9.25 C1.23 3.36, 3.91 1.06, 9.25 0 M0 9.25 C0.92 3.62, 1.54 0.16, 9.25 0" stroke="#1e1e1e" stroke-width="2" fill="none"></path></g><g stroke-linecap="round" transform="translate(184.5 90.42763868308077) rotate(0 18.5 39)"><path d="M2.46 2.14 C2.46 2.14, 2.46 2.14, 2.46 2.14 M2.46 2.14 C2.46 2.14, 2.46 2.14, 2.46 2.14 M-0.03 17.2 C5.28 12.05, 6.38 6.65, 14.4 0.6 M-0.03 17.2 C5.96 10.32, 11.08 4.22, 14.4 0.6 M0.1 29.24 C5.14 23.47, 10.73 19.39, 25.03 0.56 M0.1 29.24 C7.02 21.62, 13.43 14.46, 25.03 0.56 M0.24 41.28 C9.08 29.06, 19.19 20.72, 33.7 2.79 M0.24 41.28 C10.42 30.21, 20.62 17.46, 33.7 2.79 M0.37 53.32 C8.94 43.63, 17.12 36.98, 36.45 11.81 M0.37 53.32 C9.42 44.35, 17.48 34.23, 36.45 11.81 M0.5 65.36 C8.78 56.06, 16.32 48.25, 36.59 23.85 M0.5 65.36 C9.67 56.33, 17.48 45.06, 36.59 23.85 M2.6 75.14 C14.75 61.67, 23.18 49.01, 36.72 35.9 M2.6 75.14 C13.63 61.38, 27.29 48.07, 36.72 35.9 M10.61 78.12 C18.73 69.56, 26.26 61.34, 36.85 47.94 M10.61 78.12 C15.7 71.16, 22.58 64.29, 36.85 47.94 M21.24 78.09 C24.32 73.94, 29.72 69.6, 36.99 59.98 M21.24 78.09 C25.7 74.15, 29.18 69.54, 36.99 59.98 M5.41 77.61 C5.41 77.61, 5.41 77.61, 5.41 77.61 M5.41 77.61 C5.41 77.61, 5.41 77.61, 5.41 77.61 M17.46 77.47 C15.01 75.34, 10.8 70.03, 0.85 63.04 M17.46 77.47 C13.72 73.26, 10.01 70.5, 0.85 63.04 M29.5 77.34 C20 68.49, 10.77 59.83, 0.82 52.41 M29.5 77.34 C22.82 71.66, 16.15 66.34, 0.82 52.41 M36.25 72.61 C23.09 63.02, 10.93 51.23, 0.78 41.78 M36.25 72.61 C24.81 63.19, 15.45 53.98, 0.78 41.78 M36.97 62.64 C24.66 51.82, 13.84 44.07, 0.75 31.15 M36.97 62.64 C26.46 54.51, 15.82 44.18, 0.75 31.15 M36.94 52.01 C24.17 40.79, 12.77 31.46, 0.71 20.52 M36.94 52.01 C25.05 42.35, 13.09 30.83, 0.71 20.52 M36.91 41.38 C28.83 31.47, 19.38 26.39, 0.68 9.89 M36.91 41.38 C24.97 31.74, 13.96 22.82, 0.68 9.89 M36.87 30.75 C24.72 19.64, 9.69 7.59, 3.66 1.88 M36.87 30.75 C26.44 21.95, 15.45 12.97, 3.66 1.88 M36.84 20.12 C29.63 13.95, 21.68 4.95, 12.69 -0.87 M36.84 20.12 C27.92 12.18, 18.21 3.3, 12.69 -0.87 M36.8 9.49 C32.14 7.28, 29.46 1.59, 25.48 -0.35 M36.8 9.49 C33.39 6.67, 27.88 1.95, 25.48 -0.35" stroke="#ffc9c9" stroke-width="1" fill="none"></path><path d="M9.25 0 C13.22 1.28, 20.52 1.92, 27.75 0 M9.25 0 C14.85 -0.11, 19.16 0.37, 27.75 0 M27.75 0 C33.33 1.57, 36.6 2.45, 37 9.25 M27.75 0 C35.72 1.08, 37.96 5.15, 37 9.25 M37 9.25 C38.46 23.87, 35.89 39.7, 37 68.75 M37 9.25 C36.72 30.08, 37.49 49.69, 37 68.75 M37 68.75 C38.8 76.16, 33.19 78.98, 27.75 78 M37 68.75 C36.48 75.66, 35.17 77.04, 27.75 78 M27.75 78 C21.42 77.82, 12.43 76.3, 9.25 78 M27.75 78 C20.71 78.06, 13.8 77.68, 9.25 78 M9.25 78 C2.4 79.78, -1.64 73.63, 0 68.75 M9.25 78 C1.4 78.64, -1.1 74.78, 0 68.75 M0 68.75 C-0.72 51.21, -0.76 36.64, 0 9.25 M0 68.75 C0.47 48.45, 0.86 27.72, 0 9.25 M0 9.25 C0.46 1.74, 3.23 0.68, 9.25 0 M0 9.25 C-0.16 0.92, 4.54 -0.6, 9.25 0" stroke="#1e1e1e" stroke-width="2" fill="none"></path></g><g stroke-linecap="round" transform="translate(559.5 34.42763868308077) rotate(0 18.5 39)"><path d="M2.46 2.14 C2.46 2.14, 2.46 2.14, 2.46 2.14 M2.46 2.14 C2.46 2.14, 2.46 2.14, 2.46 2.14 M-0.03 17.2 C2.56 14.01, 8.08 7.9, 14.4 0.6 M-0.03 17.2 C4.44 12.53, 9.01 7.05, 14.4 0.6 M0.1 29.24 C9.47 19.33, 16.99 10.58, 25.03 0.56 M0.1 29.24 C7.24 19.55, 16.2 9.39, 25.03 0.56 M0.24 41.28 C13.2 28.92, 22.6 17.77, 33.7 2.79 M0.24 41.28 C10.94 30.46, 20.98 18, 33.7 2.79 M0.37 53.32 C15.19 37.87, 30.04 22.67, 36.45 11.81 M0.37 53.32 C11.16 39.79, 24.45 25.58, 36.45 11.81 M0.5 65.36 C13.66 49.36, 26.41 38.5, 36.59 23.85 M0.5 65.36 C9.41 56.19, 17.92 45.77, 36.59 23.85 M2.6 75.14 C8.74 64.76, 15.83 56.5, 36.72 35.9 M2.6 75.14 C17.05 58.8, 30.28 43.96, 36.72 35.9 M10.61 78.12 C21.71 67.97, 28.58 56.16, 36.85 47.94 M10.61 78.12 C18.69 68.67, 25.62 60.63, 36.85 47.94 M21.24 78.09 C29.39 72.36, 35.15 65.22, 36.99 59.98 M21.24 78.09 C26.51 71.87, 31.84 65.84, 36.99 59.98 M5.41 77.61 C5.41 77.61, 5.41 77.61, 5.41 77.61 M5.41 77.61 C5.41 77.61, 5.41 77.61, 5.41 77.61 M17.46 77.47 C12.36 72.87, 8.45 68.16, 5.38 66.98 M17.46 77.47 C13.36 73.78, 9.62 70.52, 5.38 66.98 M29.5 77.34 C22.57 70.43, 13.04 62.65, 5.35 56.35 M29.5 77.34 C22.94 71.32, 14.84 65.62, 5.35 56.35 M36.25 72.61 C27.69 65.67, 14.36 53.57, 5.31 45.72 M36.25 72.61 C24.97 63.37, 14.91 54.04, 5.31 45.72 M39.99 65.26 C28.56 57.71, 19.99 50.17, 5.28 35.09 M39.99 65.26 C31.45 58.09, 21.99 49.49, 5.28 35.09 M39.96 54.63 C25.47 43.25, 13.39 33.45, 5.24 24.46 M39.96 54.63 C28.29 44.61, 16.81 32.82, 5.24 24.46 M39.92 44 C25.74 34.17, 11.54 20.64, 5.21 13.82 M39.92 44 C31.45 36.68, 24.26 30.74, 5.21 13.82 M39.89 33.37 C32.27 26.76, 23.69 19.53, 2.91 1.23 M39.89 33.37 C31.44 26.9, 22.92 18.72, 2.91 1.23 M39.85 22.74 C30.07 11.98, 19.43 5.02, 11.18 -2.19 M39.85 22.74 C31.96 15.15, 22.73 9.05, 11.18 -2.19 M39.82 12.11 C35.97 9.43, 32.36 5.7, 23.97 -1.66 M39.82 12.11 C36.26 8.75, 32.31 6.76, 23.97 -1.66" stroke="#ffc9c9" stroke-width="1" fill="none"></path><path d="M9.25 0 C16.38 1.1, 24.96 0.03, 27.75 0 M9.25 0 C15.17 -0.13, 19.34 0.78, 27.75 0 M27.75 0 C34.85 0.83, 38.79 1.88, 37 9.25 M27.75 0 C32.4 -1.73, 39.13 3.48, 37 9.25 M37 9.25 C39.16 24.02, 36.05 41.01, 37 68.75 M37 9.25 C37.11 26.82, 36.97 44.89, 37 68.75 M37 68.75 C37.64 76.01, 33.08 79.52, 27.75 78 M37 68.75 C36.38 76.46, 34.7 77.62, 27.75 78 M27.75 78 C23.65 76.6, 18.78 78.54, 9.25 78 M27.75 78 C24.09 77.18, 18.2 77.26, 9.25 78 M9.25 78 C3.64 77.04, -0.12 74.36, 0 68.75 M9.25 78 C3.1 77.36, -0.83 73.35, 0 68.75 M0 68.75 C-1.19 54.37, 0.21 38.36, 0 9.25 M0 68.75 C-0.91 47.83, 0.1 26.7, 0 9.25 M0 9.25 C-1.88 4.35, 2.56 -0.34, 9.25 0 M0 9.25 C-1.45 2.72, 2.68 -0.96, 9.25 0" stroke="#1e1e1e" stroke-width="2" fill="none"></path></g><g stroke-linecap="round" transform="translate(612.5 469.4276386830808) rotate(0 18.5 39)"><path d="M2.46 2.14 C2.46 2.14, 2.46 2.14, 2.46 2.14 M2.46 2.14 C2.46 2.14, 2.46 2.14, 2.46 2.14 M-0.03 17.2 C4.31 9.52, 9.83 6.47, 14.4 0.6 M-0.03 17.2 C5.19 11.89, 9.32 6.94, 14.4 0.6 M0.1 29.24 C9.63 18.46, 15.66 8.42, 25.03 0.56 M0.1 29.24 C7.21 21.44, 14.99 13.67, 25.03 0.56 M0.24 41.28 C10.75 27.22, 22.54 17.69, 33.7 2.79 M0.24 41.28 C13.19 26.33, 25.16 13.31, 33.7 2.79 M0.37 53.32 C14.62 35.64, 25.12 21.85, 36.45 11.81 M0.37 53.32 C12.29 38.87, 24.76 24.75, 36.45 11.81 M0.5 65.36 C12.01 52.07, 25.52 38.58, 36.59 23.85 M0.5 65.36 C13.38 51.21, 25.69 35.15, 36.59 23.85 M2.6 75.14 C8.94 66.42, 18.19 57.19, 36.72 35.9 M2.6 75.14 C14.7 60.18, 27.74 47.27, 36.72 35.9 M10.61 78.12 C16.96 70.02, 22.96 63.39, 36.85 47.94 M10.61 78.12 C17.84 68.61, 26.78 61.09, 36.85 47.94 M21.24 78.09 C27.78 71.12, 32.82 64.4, 36.99 59.98 M21.24 78.09 C24.87 72.43, 28.7 68.97, 36.99 59.98 M5.41 77.61 C5.41 77.61, 5.41 77.61, 5.41 77.61 M5.41 77.61 C5.41 77.61, 5.41 77.61, 5.41 77.61 M17.46 77.47 C13.53 74.92, 9.76 70.39, 5.38 66.98 M17.46 77.47 C13.54 73.66, 10.41 71.12, 5.38 66.98 M29.5 77.34 C22.84 72.1, 16.19 64.68, 5.35 56.35 M29.5 77.34 C22.64 71.16, 15.93 65.96, 5.35 56.35 M36.25 72.61 C27.79 66.93, 20.26 60.08, 5.31 45.72 M36.25 72.61 C29.56 65.89, 20.5 59.87, 5.31 45.72 M39.99 65.26 C29.5 57.92, 21.54 49.63, 5.28 35.09 M39.99 65.26 C30.01 56.52, 17.94 46.79, 5.28 35.09 M39.96 54.63 C28.7 44.43, 18.14 36.54, 5.24 24.46 M39.96 54.63 C27.83 43.62, 13.66 32.96, 5.24 24.46 M39.92 44 C33.79 39.12, 24.52 29.48, 5.21 13.82 M39.92 44 C28.17 33.92, 17.24 24.08, 5.21 13.82 M39.89 33.37 C29.1 24.34, 18.36 15.8, 2.91 1.23 M39.89 33.37 C26.06 22.99, 13.76 9.84, 2.91 1.23 M39.85 22.74 C28.93 14.77, 20.94 4.97, 11.18 -2.19 M39.85 22.74 C31.94 17.51, 26.56 11.68, 11.18 -2.19 M39.82 12.11 C32.15 4.98, 26.52 0.37, 23.97 -1.66 M39.82 12.11 C36.25 8.25, 31.92 5.34, 23.97 -1.66" stroke="#ffc9c9" stroke-width="1" fill="none"></path><path d="M9.25 0 C16.87 -0.51, 24.03 -0.33, 27.75 0 M9.25 0 C14.6 0.74, 18.62 -0.7, 27.75 0 M27.75 0 C32.41 1.85, 37.35 2.36, 37 9.25 M27.75 0 C36.1 1.08, 38.83 2.01, 37 9.25 M37 9.25 C35.37 24.39, 38.35 35.21, 37 68.75 M37 9.25 C37.41 29.59, 37.63 50.49, 37 68.75 M37 68.75 C38.34 75.6, 33.59 76.48, 27.75 78 M37 68.75 C34.73 76.35, 33.97 76.12, 27.75 78 M27.75 78 C22.54 77.26, 19.65 76.38, 9.25 78 M27.75 78 C22.94 77.99, 18.77 78.06, 9.25 78 M9.25 78 C2.53 77.28, -1.36 74.16, 0 68.75 M9.25 78 C3.37 79.11, -1.28 76.33, 0 68.75 M0 68.75 C0.55 50.53, -1.58 31.52, 0 9.25 M0 68.75 C0.68 48.61, -0.13 28.36, 0 9.25 M0 9.25 C-0.31 2.73, 2.25 -0.08, 9.25 0 M0 9.25 C0.88 2.56, 2.87 1.11, 9.25 0" stroke="#1e1e1e" stroke-width="2" fill="none"></path></g><g stroke-linecap="round"><g transform="translate(342 265.4276386830808) rotate(0 153 -75)"><path d="M-1.17 -0.04 C49.92 -25.21, 255.54 -125.82, 306.78 -150.98 M0.42 -1.11 C51.4 -26.15, 255.38 -125.1, 306.25 -149.96" stroke="#1e1e1e" stroke-width="2" fill="none"></path></g><g transform="translate(342 265.4276386830808) rotate(0 153 -75)"><path d="M288.87 -131.99 C294.35 -136.26, 298.34 -142.86, 306.25 -149.96 M288.87 -131.99 C291.77 -136.09, 296.04 -139.42, 306.25 -149.96" stroke="#1e1e1e" stroke-width="2" fill="none"></path></g><g transform="translate(342 265.4276386830808) rotate(0 153 -75)"><path d="M281.38 -147.37 C289.26 -146.65, 295.64 -148.34, 306.25 -149.96 M281.38 -147.37 C285.82 -148.18, 291.7 -148.21, 306.25 -149.96" stroke="#1e1e1e" stroke-width="2" fill="none"></path></g></g><mask></mask><g stroke-linecap="round"><g transform="translate(336 264.4276386830808) rotate(0 157.5 97.5)"><path d="M-1.05 -0.88 C51.44 31.65, 261.2 161.61, 313.87 194.39 M0.59 1.27 C53.53 34.02, 263.73 163.51, 315.98 195.61" stroke="#1e1e1e" stroke-width="2" fill="none"></path></g><g transform="translate(336 264.4276386830808) rotate(0 157.5 97.5)"><path d="M291.49 190.58 C295.12 189.96, 300.7 192.79, 315.98 195.61 M291.49 190.58 C301.02 193.16, 309.14 193.53, 315.98 195.61" stroke="#1e1e1e" stroke-width="2" fill="none"></path></g><g transform="translate(336 264.4276386830808) rotate(0 157.5 97.5)"><path d="M300.46 176.02 C302.11 178.36, 305.81 184.24, 315.98 195.61 M300.46 176.02 C306.75 183.9, 311.57 189.62, 315.98 195.61" stroke="#1e1e1e" stroke-width="2" fill="none"></path></g></g><mask></mask><g stroke-linecap="round" transform="translate(52 89.92763868308077) rotate(0 18.5 39)"><path d="M2.46 2.14 C2.46 2.14, 2.46 2.14, 2.46 2.14 M2.46 2.14 C2.46 2.14, 2.46 2.14, 2.46 2.14 M3.91 12.67 C5.85 10.83, 6.83 9.81, 12.44 2.86 M3.91 12.67 C7.49 9.08, 10.39 5.88, 12.44 2.86 M4.04 24.71 C10.38 17, 13.93 11.01, 23.07 2.83 M4.04 24.71 C8.85 18.35, 16.13 11.7, 23.07 2.83 M4.17 36.75 C13.28 23.5, 24.22 11.88, 33.7 2.79 M4.17 36.75 C12.7 24.87, 23.7 15.64, 33.7 2.79 M4.31 48.79 C17.61 35.63, 27.87 19.4, 39.73 8.04 M4.31 48.79 C12.26 40.64, 21.07 31.23, 39.73 8.04 M4.44 60.84 C14.38 52.96, 19.4 41.66, 39.87 20.08 M4.44 60.84 C16.76 44.89, 30.35 29.99, 39.87 20.08 M2.6 75.14 C10.21 63.18, 19.17 55.03, 40 32.12 M2.6 75.14 C12.18 62.86, 23.16 52.79, 40 32.12 M8.64 80.39 C16.52 72.94, 23.24 66.58, 40.13 44.16 M8.64 80.39 C18.57 70.38, 26.04 58.53, 40.13 44.16 M19.27 80.35 C24.79 72.92, 33.02 63.96, 40.27 56.2 M19.27 80.35 C27.36 71.46, 34.11 63.06, 40.27 56.2 M5.41 77.61 C5.41 77.61, 5.41 77.61, 5.41 77.61 M5.41 77.61 C5.41 77.61, 5.41 77.61, 5.41 77.61 M17.46 77.47 C10.82 71.17, 7.95 67.1, 0.85 63.04 M17.46 77.47 C11.3 73.39, 5.2 67.2, 0.85 63.04 M29.5 77.34 C22.55 72.96, 17.13 66.8, 0.82 52.41 M29.5 77.34 C22.64 71.34, 12.99 64.11, 0.82 52.41 M36.25 72.61 C28.76 64.09, 17.92 58.75, 0.78 41.78 M36.25 72.61 C22.26 60.86, 7.84 48.87, 0.78 41.78 M36.97 62.64 C25.55 52.54, 9.82 38.09, 0.75 31.15 M36.97 62.64 C28.85 55.37, 19.09 47.97, 0.75 31.15 M36.94 52.01 C26.11 44.98, 18.34 33.37, 0.71 20.52 M36.94 52.01 C26.83 41.88, 16.32 32.62, 0.71 20.52 M36.91 41.38 C29.6 36.28, 23.12 27.65, 0.68 9.89 M36.91 41.38 C27.55 32.95, 19.36 25.34, 0.68 9.89 M36.87 30.75 C25.99 18.77, 11.94 9.61, 3.66 1.88 M36.87 30.75 C26.28 22.5, 16.91 13.39, 3.66 1.88 M36.84 20.12 C31.94 14.37, 27.37 10.54, 12.69 -0.87 M36.84 20.12 C32.82 15.52, 27.96 11.27, 12.69 -0.87 M36.8 9.49 C34.6 7.87, 29.31 2.88, 25.48 -0.35 M36.8 9.49 C33.86 7.45, 31.98 4.42, 25.48 -0.35" stroke="#ffc9c9" stroke-width="1" fill="none"></path><path d="M9.25 0 C14.4 1.86, 23.03 1.12, 27.75 0 M9.25 0 C15.5 0.09, 22.05 -0.02, 27.75 0 M27.75 0 C35.44 -1.58, 38.13 2.29, 37 9.25 M27.75 0 C34.14 0.57, 38.31 1.34, 37 9.25 M37 9.25 C35.14 23.86, 38.73 40.58, 37 68.75 M37 9.25 C36.95 21.75, 36.92 35.69, 37 68.75 M37 68.75 C38.95 74.96, 33.21 77.96, 27.75 78 M37 68.75 C37.46 76.17, 34.99 78.95, 27.75 78 M27.75 78 C23.75 76.35, 21.06 76.86, 9.25 78 M27.75 78 C24.71 77.66, 19.57 77.89, 9.25 78 M9.25 78 C2.47 77.68, -1.16 75.43, 0 68.75 M9.25 78 C3.62 77.24, -1.32 76.04, 0 68.75 M0 68.75 C0.57 49.83, 0.55 35.13, 0 9.25 M0 68.75 C-0.4 50.05, -0.2 30.21, 0 9.25 M0 9.25 C0.72 2.41, 4.79 -0.77, 9.25 0 M0 9.25 C0.65 1.6, 3.8 0.28, 9.25 0" stroke="#1e1e1e" stroke-width="2" fill="none"></path></g><g stroke-linecap="round" transform="translate(10 88.92763868308077) rotate(0 18.5 39)"><path d="M2.46 2.14 C2.46 2.14, 2.46 2.14, 2.46 2.14 M2.46 2.14 C2.46 2.14, 2.46 2.14, 2.46 2.14 M-0.03 17.2 C3.34 14.16, 9.69 7.84, 14.4 0.6 M-0.03 17.2 C4.28 13.13, 8.01 7.23, 14.4 0.6 M0.1 29.24 C5.43 20.67, 14.33 11.89, 25.03 0.56 M0.1 29.24 C9.87 19.13, 18.65 9.42, 25.03 0.56 M0.24 41.28 C7.05 32.16, 17.85 23.42, 33.7 2.79 M0.24 41.28 C10.07 32.17, 19.09 21.13, 33.7 2.79 M0.37 53.32 C9.51 40.17, 19.14 27.89, 36.45 11.81 M0.37 53.32 C10.66 42.54, 18.82 31.28, 36.45 11.81 M0.5 65.36 C5.45 56.74, 15.97 48.95, 36.59 23.85 M0.5 65.36 C14.13 49.56, 26.52 35.6, 36.59 23.85 M2.6 75.14 C14.81 61.04, 28.95 42.85, 36.72 35.9 M2.6 75.14 C14.51 63.02, 24.69 49.83, 36.72 35.9 M10.61 78.12 C20.63 69.62, 27.37 58.77, 36.85 47.94 M10.61 78.12 C18.88 66.55, 29.05 57.21, 36.85 47.94 M21.24 78.09 C24.59 73.71, 29.8 69.32, 36.99 59.98 M21.24 78.09 C27.05 71.17, 31.74 65.69, 36.99 59.98 M5.41 77.61 C5.41 77.61, 5.41 77.61, 5.41 77.61 M5.41 77.61 C5.41 77.61, 5.41 77.61, 5.41 77.61 M17.46 77.47 C14.19 72.39, 8.91 70.78, 0.85 63.04 M17.46 77.47 C11.3 72.44, 5.86 67.35, 0.85 63.04 M29.5 77.34 C22.37 71.74, 13.51 62.43, 0.82 52.41 M29.5 77.34 C18.32 69.18, 8.33 59.52, 0.82 52.41 M36.25 72.61 C23.59 63.65, 15.71 52.08, 0.78 41.78 M36.25 72.61 C22.9 61.87, 11.66 50.97, 0.78 41.78 M36.97 62.64 C27.81 54.46, 19.01 46.71, 0.75 31.15 M36.97 62.64 C24.06 52.54, 12.75 41.62, 0.75 31.15 M36.94 52.01 C27.8 41.87, 16.25 33.06, 0.71 20.52 M36.94 52.01 C29.99 44.94, 21.23 38.93, 0.71 20.52 M36.91 41.38 C26.69 31.02, 11.57 19.57, 0.68 9.89 M36.91 41.38 C25.35 30.19, 13.26 19.88, 0.68 9.89 M36.87 30.75 C25.01 20.78, 16.97 14.56, 3.66 1.88 M36.87 30.75 C23.85 18.78, 10.29 7.86, 3.66 1.88 M36.84 20.12 C30.57 13.28, 20.83 7.19, 12.69 -0.87 M36.84 20.12 C31.76 14.88, 25.14 10.19, 12.69 -0.87 M36.8 9.49 C31.93 5.25, 27.86 3.32, 25.48 -0.35 M36.8 9.49 C34.55 6.7, 31.52 5.72, 25.48 -0.35" stroke="#ffc9c9" stroke-width="1" fill="none"></path><path d="M9.25 0 C14.7 0.84, 19.1 1.51, 27.75 0 M9.25 0 C15.55 0.03, 22.72 -0.77, 27.75 0 M27.75 0 C35.05 -0.79, 37.19 3.58, 37 9.25 M27.75 0 C35.23 -1.74, 35.89 2.96, 37 9.25 M37 9.25 C38.22 32.44, 34.82 54.55, 37 68.75 M37 9.25 C36.12 25.04, 37.66 39.9, 37 68.75 M37 68.75 C36.29 74.87, 34.32 79.09, 27.75 78 M37 68.75 C38.07 75.86, 32.09 80.05, 27.75 78 M27.75 78 C23.68 76.7, 14.95 78.03, 9.25 78 M27.75 78 C21.82 77.84, 16.65 77.78, 9.25 78 M9.25 78 C1.93 78.51, 0.46 74.26, 0 68.75 M9.25 78 C1.77 79.12, -0.28 72.84, 0 68.75 M0 68.75 C0 52.17, 0.39 33.17, 0 9.25 M0 68.75 C-0.1 49.08, 0.8 30.02, 0 9.25 M0 9.25 C1.7 2.31, 3.65 -1.29, 9.25 0 M0 9.25 C0.72 3.37, 4.89 1.19, 9.25 0" stroke="#1e1e1e" stroke-width="2" fill="none"></path></g><g stroke-linecap="round" transform="translate(316 84.92763868308077) rotate(0 18.5 39)"><path d="M2.46 2.14 C2.46 2.14, 2.46 2.14, 2.46 2.14 M2.46 2.14 C2.46 2.14, 2.46 2.14, 2.46 2.14 M-0.03 17.2 C4.66 13.73, 8.04 6.6, 14.4 0.6 M-0.03 17.2 C3.2 12.27, 8.21 7.23, 14.4 0.6 M0.1 29.24 C10.6 19.16, 19.39 9.82, 25.03 0.56 M0.1 29.24 C5.65 22.35, 13.1 15.62, 25.03 0.56 M0.24 41.28 C10.54 33.15, 19.56 21.42, 33.7 2.79 M0.24 41.28 C9.1 29.58, 18.31 18.38, 33.7 2.79 M0.37 53.32 C11.38 42.93, 18.21 31.31, 36.45 11.81 M0.37 53.32 C6.31 44.71, 15.19 36.65, 36.45 11.81 M0.5 65.36 C14.35 48.62, 25.94 35.89, 36.59 23.85 M0.5 65.36 C14.21 49.85, 28.75 32.17, 36.59 23.85 M2.6 75.14 C14.76 63.72, 23.78 50.39, 36.72 35.9 M2.6 75.14 C14.33 62.93, 24.6 49.57, 36.72 35.9 M10.61 78.12 C18.3 65.64, 29.49 57.49, 36.85 47.94 M10.61 78.12 C16.9 70.76, 23.94 63.46, 36.85 47.94 M21.24 78.09 C27.62 70.39, 31.58 65.66, 36.99 59.98 M21.24 78.09 C25.5 74.93, 27.05 70.09, 36.99 59.98 M5.41 77.61 C5.41 77.61, 5.41 77.61, 5.41 77.61 M5.41 77.61 C5.41 77.61, 5.41 77.61, 5.41 77.61 M17.46 77.47 C10.57 72.03, 5.15 66.6, 0.85 63.04 M17.46 77.47 C13.28 74.15, 8.23 68.96, 0.85 63.04 M29.5 77.34 C17.55 69.63, 7.73 59.16, 0.82 52.41 M29.5 77.34 C19.69 69.81, 12.32 61.04, 0.82 52.41 M36.25 72.61 C22.13 62.08, 12.31 51.29, 0.78 41.78 M36.25 72.61 C27.59 65.24, 19.25 57.94, 0.78 41.78 M36.97 62.64 C23.14 52.78, 12.48 41.32, 0.75 31.15 M36.97 62.64 C27.3 53.21, 16.33 44.29, 0.75 31.15 M36.94 52.01 C30.54 44.48, 20.41 38.87, 0.71 20.52 M36.94 52.01 C25.72 41.71, 12.1 30.71, 0.71 20.52 M36.91 41.38 C25.78 29.79, 13.73 19.71, 0.68 9.89 M36.91 41.38 C25.11 31.15, 15.27 22.98, 0.68 9.89 M36.87 30.75 C23.59 18.09, 9.43 7.51, 3.66 1.88 M36.87 30.75 C27.58 21.86, 16.58 13.49, 3.66 1.88 M36.84 20.12 C32.56 14.65, 25.04 10.24, 12.69 -0.87 M36.84 20.12 C27.81 12.5, 19.43 6.28, 12.69 -0.87 M36.8 9.49 C34.83 6.13, 31.37 6.42, 25.48 -0.35 M36.8 9.49 C33.3 5.91, 30.63 3.6, 25.48 -0.35" stroke="#ffc9c9" stroke-width="1" fill="none"></path><path d="M9.25 0 C15.46 0.09, 23.43 -1.5, 27.75 0 M9.25 0 C16.07 0.51, 21.74 -0.46, 27.75 0 M27.75 0 C33.81 1.34, 35.17 2.71, 37 9.25 M27.75 0 C35.94 1.56, 35.12 4.96, 37 9.25 M37 9.25 C35.56 25.52, 38.63 39.92, 37 68.75 M37 9.25 C37.53 25.45, 37.4 39.92, 37 68.75 M37 68.75 C38.78 74.91, 34 76.22, 27.75 78 M37 68.75 C38.82 73.51, 31.78 78.24, 27.75 78 M27.75 78 C21.3 77.74, 16.37 77.64, 9.25 78 M27.75 78 C22.97 77.51, 19.24 77.93, 9.25 78 M9.25 78 C1.28 77.79, 0.03 73.12, 0 68.75 M9.25 78 C3.09 78.74, 0.46 73.61, 0 68.75 M0 68.75 C-0.63 48.61, 1.15 29.69, 0 9.25 M0 68.75 C-0.41 46.14, 0.35 23.7, 0 9.25 M0 9.25 C1.04 2.33, 4.36 1.36, 9.25 0 M0 9.25 C0.46 2.24, 4.63 -0.36, 9.25 0" stroke="#1e1e1e" stroke-width="2" fill="none"></path></g><g stroke-linecap="round" transform="translate(95 90.92763868308077) rotate(0 18.5 39)"><path d="M2.46 2.14 C2.46 2.14, 2.46 2.14, 2.46 2.14 M2.46 2.14 C2.46 2.14, 2.46 2.14, 2.46 2.14 M-0.03 17.2 C4.3 10.9, 8.3 7.61, 14.4 0.6 M-0.03 17.2 C3.62 12.68, 7.72 8.17, 14.4 0.6 M0.1 29.24 C9.38 20.84, 14.9 9.02, 25.03 0.56 M0.1 29.24 C7.24 22.23, 13.28 13.1, 25.03 0.56 M0.24 41.28 C8.07 33.43, 13.89 25.82, 33.7 2.79 M0.24 41.28 C11.23 27.33, 23.23 14.56, 33.7 2.79 M0.37 53.32 C12.4 37.68, 25.16 23.52, 36.45 11.81 M0.37 53.32 C15.01 37.97, 28.61 21.61, 36.45 11.81 M0.5 65.36 C6.93 57.45, 17.59 46.72, 36.59 23.85 M0.5 65.36 C9.14 54.33, 18.47 44.46, 36.59 23.85 M2.6 75.14 C8.55 66.98, 18.79 58.31, 36.72 35.9 M2.6 75.14 C12.78 62.93, 24.01 51.45, 36.72 35.9 M10.61 78.12 C20.94 68.25, 28.2 55.37, 36.85 47.94 M10.61 78.12 C19.94 67.97, 28.81 58.75, 36.85 47.94 M21.24 78.09 C24.62 73.78, 26.97 69.13, 36.99 59.98 M21.24 78.09 C25.31 71.8, 31.4 66.52, 36.99 59.98 M5.41 77.61 C5.41 77.61, 5.41 77.61, 5.41 77.61 M5.41 77.61 C5.41 77.61, 5.41 77.61, 5.41 77.61 M17.46 77.47 C11.78 72.2, 7.84 68.94, 5.38 66.98 M17.46 77.47 C12.76 73.02, 8.9 70.47, 5.38 66.98 M29.5 77.34 C19.37 68.83, 11.74 62.56, 5.35 56.35 M29.5 77.34 C24.71 71.87, 18.52 67.04, 5.35 56.35 M36.25 72.61 C28.08 64.91, 15.65 57.74, 5.31 45.72 M36.25 72.61 C23.9 61.16, 12.99 52.05, 5.31 45.72 M39.99 65.26 C28.85 55.29, 18.24 45.4, 5.28 35.09 M39.99 65.26 C26.57 52.94, 12.46 42.44, 5.28 35.09 M39.96 54.63 C29.46 46.8, 23.11 39.94, 5.24 24.46 M39.96 54.63 C25.89 42.57, 13.46 31.1, 5.24 24.46 M39.92 44 C32.66 36.51, 23.57 30.43, 5.21 13.82 M39.92 44 C33.12 38.33, 27.05 30.93, 5.21 13.82 M39.89 33.37 C27.38 22.98, 18.07 14.43, 2.91 1.23 M39.89 33.37 C29.99 25.32, 21.54 18.76, 2.91 1.23 M39.85 22.74 C31.44 15.82, 24.49 10.21, 11.18 -2.19 M39.85 22.74 C28.4 13.43, 17.59 3.2, 11.18 -2.19 M39.82 12.11 C34.06 9.24, 29.09 4.01, 23.97 -1.66 M39.82 12.11 C35.48 7.37, 29.59 3.89, 23.97 -1.66" stroke="#ffc9c9" stroke-width="1" fill="none"></path><path d="M9.25 0 C16.55 -1.48, 22.09 -0.74, 27.75 0 M9.25 0 C14.27 -0.55, 20.65 0.51, 27.75 0 M27.75 0 C32.08 -0.38, 38.76 4.44, 37 9.25 M27.75 0 C32.03 1.88, 36.02 1.86, 37 9.25 M37 9.25 C38.62 24.28, 35.95 39.19, 37 68.75 M37 9.25 C37.73 27.5, 38.21 47.33, 37 68.75 M37 68.75 C37.08 73.14, 35.5 76.77, 27.75 78 M37 68.75 C34.86 75.16, 33.74 79.98, 27.75 78 M27.75 78 C22.29 77.68, 16.9 78.45, 9.25 78 M27.75 78 C22.22 77.78, 14.96 77.8, 9.25 78 M9.25 78 C3.11 76.21, 0.01 75.56, 0 68.75 M9.25 78 C3.54 76.7, 0.52 73.23, 0 68.75 M0 68.75 C1.04 48.22, 2.02 28.26, 0 9.25 M0 68.75 C0.51 50, 0.9 29.31, 0 9.25 M0 9.25 C1.28 4.45, 3.49 -0.74, 9.25 0 M0 9.25 C1.55 2.72, 1.68 0.56, 9.25 0" stroke="#1e1e1e" stroke-width="2" fill="none"></path></g><g stroke-linecap="round" transform="translate(230 87.92763868308077) rotate(0 18.5 39)"><path d="M2.46 2.14 C2.46 2.14, 2.46 2.14, 2.46 2.14 M2.46 2.14 C2.46 2.14, 2.46 2.14, 2.46 2.14 M-0.03 17.2 C3.58 12.2, 8.24 7.25, 14.4 0.6 M-0.03 17.2 C5.22 12.27, 8.62 5.63, 14.4 0.6 M0.1 29.24 C7.51 22.87, 12.98 12.21, 25.03 0.56 M0.1 29.24 C5.71 23.24, 10.35 17.45, 25.03 0.56 M0.24 41.28 C10.44 26.53, 22.86 14.33, 33.7 2.79 M0.24 41.28 C11.91 26.75, 24.07 13.02, 33.7 2.79 M0.37 53.32 C15.65 38.23, 29.26 21.14, 36.45 11.81 M0.37 53.32 C7.37 45.13, 16.54 35.35, 36.45 11.81 M0.5 65.36 C8.8 53.48, 18.8 43.7, 36.59 23.85 M0.5 65.36 C7.8 56.11, 17.31 46.73, 36.59 23.85 M2.6 75.14 C12.65 63.19, 24.5 52.43, 36.72 35.9 M2.6 75.14 C15.34 61.84, 26.41 46.85, 36.72 35.9 M10.61 78.12 C20.34 68, 29.25 59.7, 36.85 47.94 M10.61 78.12 C16.6 71.02, 22.21 63.61, 36.85 47.94 M21.24 78.09 C24.4 71.54, 31.44 66.89, 36.99 59.98 M21.24 78.09 C28.45 71.22, 33.25 63.67, 36.99 59.98 M5.41 77.61 C5.41 77.61, 5.41 77.61, 5.41 77.61 M5.41 77.61 C5.41 77.61, 5.41 77.61, 5.41 77.61 M17.46 77.47 C10.8 70.66, 6.18 68.67, 0.85 63.04 M17.46 77.47 C10.72 71.76, 5.2 67.14, 0.85 63.04 M29.5 77.34 C24.56 70.43, 16.92 64.9, 0.82 52.41 M29.5 77.34 C21.37 69.93, 11.03 62.75, 0.82 52.41 M36.25 72.61 C21.57 58.66, 9.83 49.22, 0.78 41.78 M36.25 72.61 C25.15 62.74, 14.17 52.86, 0.78 41.78 M36.97 62.64 C22.92 49.21, 7.32 39.19, 0.75 31.15 M36.97 62.64 C26.91 54.53, 19.01 46.99, 0.75 31.15 M36.94 52.01 C21.78 38.93, 9.63 27.03, 0.71 20.52 M36.94 52.01 C28.85 44.37, 19.92 37.52, 0.71 20.52 M36.91 41.38 C29.75 36.06, 24.33 27.12, 0.68 9.89 M36.91 41.38 C25.49 31.53, 15.62 22.73, 0.68 9.89 M36.87 30.75 C26.9 23.2, 19.69 18.5, 3.66 1.88 M36.87 30.75 C27.27 22.67, 18.54 15.29, 3.66 1.88 M36.84 20.12 C26.31 12.64, 17.26 3.08, 12.69 -0.87 M36.84 20.12 C28.49 13.85, 20.59 6.54, 12.69 -0.87 M36.8 9.49 C34.29 5.98, 29.45 4.24, 25.48 -0.35 M36.8 9.49 C31.79 5.86, 28.08 2.13, 25.48 -0.35" stroke="#ffc9c9" stroke-width="1" fill="none"></path><path d="M9.25 0 C13.57 -1, 20.6 1.13, 27.75 0 M9.25 0 C13.73 -0.92, 17.72 -0.56, 27.75 0 M27.75 0 C32.85 -0.96, 35.88 4.03, 37 9.25 M27.75 0 C36.16 0.05, 36.18 3.03, 37 9.25 M37 9.25 C38.15 26.7, 39.1 47.32, 37 68.75 M37 9.25 C35.86 26.41, 36.58 45.36, 37 68.75 M37 68.75 C38.72 74.2, 32.79 77.79, 27.75 78 M37 68.75 C36.3 74.54, 32.59 78.59, 27.75 78 M27.75 78 C22.67 77.67, 14.12 77.7, 9.25 78 M27.75 78 C22.47 78.18, 16.07 78.21, 9.25 78 M9.25 78 C1.62 78.67, -1.07 73.97, 0 68.75 M9.25 78 C3.91 77.23, 1.96 74.03, 0 68.75 M0 68.75 C0.63 50.79, 1.42 28.93, 0 9.25 M0 68.75 C-0.77 47.78, -0.56 24.85, 0 9.25 M0 9.25 C0.48 2.45, 1.49 -1.98, 9.25 0 M0 9.25 C0.97 0.93, 4.86 -0.2, 9.25 0" stroke="#1e1e1e" stroke-width="2" fill="none"></path></g><g stroke-linecap="round" transform="translate(275 86.92763868308077) rotate(0 18.5 39)"><path d="M2.46 2.14 C2.46 2.14, 2.46 2.14, 2.46 2.14 M2.46 2.14 C2.46 2.14, 2.46 2.14, 2.46 2.14 M-0.03 17.2 C5.03 10.82, 8.42 9.5, 14.4 0.6 M-0.03 17.2 C3.72 11.21, 8.24 6.13, 14.4 0.6 M0.1 29.24 C7.38 18.13, 14.17 11.71, 25.03 0.56 M0.1 29.24 C9.72 18.34, 20.24 5.93, 25.03 0.56 M0.24 41.28 C7.9 31.76, 18.25 24.34, 33.7 2.79 M0.24 41.28 C10.82 28.96, 23.92 14.18, 33.7 2.79 M0.37 53.32 C12.22 39.87, 19.95 28.85, 36.45 11.81 M0.37 53.32 C8.96 44, 14.88 35.4, 36.45 11.81 M0.5 65.36 C14.09 49.44, 24.83 36.75, 36.59 23.85 M0.5 65.36 C14.52 50.55, 27.69 35.25, 36.59 23.85 M2.6 75.14 C16.33 62.42, 29.12 44.68, 36.72 35.9 M2.6 75.14 C9 66.01, 17.09 58.3, 36.72 35.9 M10.61 78.12 C19.32 70.89, 25.21 60.97, 36.85 47.94 M10.61 78.12 C15.61 71.26, 22.57 65.62, 36.85 47.94 M21.24 78.09 C27.36 72.12, 35 64.05, 36.99 59.98 M21.24 78.09 C25.96 71.81, 31.06 65.09, 36.99 59.98 M5.41 77.61 C5.41 77.61, 5.41 77.61, 5.41 77.61 M5.41 77.61 C5.41 77.61, 5.41 77.61, 5.41 77.61 M17.46 77.47 C14.14 75.18, 10.27 68.81, 5.38 66.98 M17.46 77.47 C13.45 74.17, 8.71 69.61, 5.38 66.98 M29.5 77.34 C22.09 69.47, 12.86 61.17, 5.35 56.35 M29.5 77.34 C20.87 71.61, 14.67 63.6, 5.35 56.35 M36.25 72.61 C29.79 66.45, 22.24 57.93, 5.31 45.72 M36.25 72.61 C26.17 63.29, 17.1 55.64, 5.31 45.72 M39.99 65.26 C30.12 58.89, 23.08 52.31, 5.28 35.09 M39.99 65.26 C31.79 57.89, 23.47 50.95, 5.28 35.09 M39.96 54.63 C30.58 44.69, 18.32 37.56, 5.24 24.46 M39.96 54.63 C30.75 47.03, 20.79 37.92, 5.24 24.46 M39.92 44 C33.21 35.5, 22.75 28.88, 5.21 13.82 M39.92 44 C32.08 37.01, 23.54 30.33, 5.21 13.82 M39.89 33.37 C28.95 26.16, 19.8 17.5, 2.91 1.23 M39.89 33.37 C30.09 25.19, 20.21 14.94, 2.91 1.23 M39.85 22.74 C31.85 15.96, 27.19 11.82, 11.18 -2.19 M39.85 22.74 C33.46 18.05, 27.33 11.74, 11.18 -2.19 M39.82 12.11 C36.36 10.84, 35.02 8.02, 23.97 -1.66 M39.82 12.11 C35.55 8.59, 30.51 4.17, 23.97 -1.66" stroke="#ffc9c9" stroke-width="1" fill="none"></path><path d="M9.25 0 C15.75 1.33, 20.76 -0.26, 27.75 0 M9.25 0 C17.19 -0.24, 23.12 -0.29, 27.75 0 M27.75 0 C32.79 0.95, 38.95 3.12, 37 9.25 M27.75 0 C33.1 -0.05, 37.46 4.34, 37 9.25 M37 9.25 C39.02 29.86, 37.33 48.71, 37 68.75 M37 9.25 C36.74 31.74, 37.49 54.02, 37 68.75 M37 68.75 C35.88 74.71, 33.3 77.68, 27.75 78 M37 68.75 C35.67 75.5, 34.45 77.24, 27.75 78 M27.75 78 C21.59 77.78, 18.79 76.32, 9.25 78 M27.75 78 C21.67 78.25, 15.96 78.35, 9.25 78 M9.25 78 C2.01 77.06, 0.72 74.25, 0 68.75 M9.25 78 C5.04 77.11, 0.65 73.43, 0 68.75 M0 68.75 C0.96 48.3, 1.2 30.71, 0 9.25 M0 68.75 C0.06 49.09, 0.46 30.34, 0 9.25 M0 9.25 C-1.59 1.1, 3.93 -1.88, 9.25 0 M0 9.25 C1.77 2.89, 3.54 0.31, 9.25 0" stroke="#1e1e1e" stroke-width="2" fill="none"></path></g><g transform="translate(26.587974548339844 17.927638683080772) rotate(0 151.11666870117188 17.5)"><text x="0" y="24.528" font-family="Virgil, Segoe UI Emoji" font-size="28px" fill="#1e1e1e" text-anchor="start" style="white-space: pre;" direction="ltr" dominant-baseline="alphabetic">Better to queue here</text></g></svg>