<svg version="1.1" xmlns="http://www.w3.org/2000/svg" viewBox="0 0 888.7691345214844 459.4276386830808" width="888.7691345214844" height="459.4276386830808">
  <!-- svg-source:excalidraw -->
  
  <defs>
    <style class="style-fonts">
      @font-face {
        font-family: "Virgil";
        src: url("https://excalidraw.com/Virgil.woff2");
      }
      @font-face {
        font-family: "Cascadia";
        src: url("https://excalidraw.com/Cascadia.woff2");
      }
      @font-face {
        font-family: "Assistant";
        src: url("https://excalidraw.com/Assistant-Regular.woff2");
      }
    </style>
    
  </defs>
  <g stroke-linecap="round" transform="translate(10 242.5) rotate(0 96 96)"><path d="M124.64 3.37 C136.22 5.5, 146.9 14.08, 156.4 22.13 C165.9 30.17, 175.82 41, 181.64 51.63 C187.46 62.27, 190.31 73.86, 191.34 85.95 C192.37 98.03, 191.19 112.3, 187.83 124.15 C184.46 136.01, 178.93 147.76, 171.14 157.06 C163.34 166.36, 152.11 174.25, 141.06 179.94 C130.01 185.62, 116.91 189.71, 104.84 191.16 C92.77 192.61, 80.31 192.17, 68.64 188.63 C56.98 185.09, 44.41 177.69, 34.86 169.92 C25.31 162.15, 17.02 152.86, 11.34 142.02 C5.66 131.17, 1.96 117.11, 0.78 104.85 C-0.4 92.58, 0.87 79.92, 4.27 68.44 C7.67 56.96, 13.33 45.58, 21.19 35.98 C29.05 26.38, 40.64 16.89, 51.42 10.83 C62.19 4.77, 73.45 0.7, 85.84 -0.37 C98.23 -1.44, 118.66 3.02, 125.75 4.43 C132.84 5.83, 128.81 6.4, 128.38 8.07 M94.52 -1.26 C106.15 -2.61, 120.57 3.12, 131.88 7.81 C143.18 12.5, 153.62 18.47, 162.34 26.89 C171.07 35.32, 179.49 47.18, 184.23 58.35 C188.96 69.52, 190.57 81.87, 190.76 93.93 C190.95 105.98, 189.87 119.17, 185.36 130.69 C180.84 142.21, 172.2 154.2, 163.66 163.06 C155.13 171.91, 145.35 179.15, 134.15 183.83 C122.96 188.51, 109.08 190.76, 96.49 191.12 C83.9 191.49, 69.75 190.55, 58.62 186.02 C47.5 181.5, 38.31 172.84, 29.74 163.97 C21.18 155.09, 12.23 143.87, 7.24 132.75 C2.25 121.64, 0.06 109.57, -0.19 97.27 C-0.44 84.97, 1.11 70.15, 5.74 58.96 C10.37 47.76, 19.02 38.9, 27.58 30.13 C36.14 21.36, 45.6 11.55, 57.1 6.33 C68.61 1.11, 90.18 -0.49, 96.59 -1.2 C103.01 -1.91, 95.95 0.13, 95.6 2.07" stroke="none" stroke-width="0" fill="#62a1d6"></path><path d="M73.53 2.49 C84.36 -1.72, 98.62 -0.3, 110.57 1.65 C122.53 3.61, 134.67 8, 145.26 14.24 C155.86 20.48, 166.85 29.39, 174.14 39.1 C181.43 48.81, 186.09 60.58, 189.03 72.49 C191.97 84.4, 193.49 98.3, 191.79 110.55 C190.1 122.8, 185.26 135.61, 178.84 145.97 C172.42 156.33, 163.29 165.59, 153.27 172.72 C143.25 179.85, 130.77 185.79, 118.69 188.75 C106.61 191.72, 92.8 192.44, 80.78 190.51 C68.77 188.58, 57.09 183.49, 46.61 177.16 C36.13 170.83, 25.27 162.28, 17.88 152.52 C10.49 142.76, 5.11 130.53, 2.28 118.6 C-0.55 106.67, -1.05 93.1, 0.93 80.94 C2.91 68.78, 7.71 56.06, 14.15 45.64 C20.6 35.22, 27.86 25.77, 39.59 18.43 C51.33 11.08, 74.91 4.23, 84.58 1.55 C94.25 -1.13, 97.35 0.95, 97.63 2.34 M140.3 12.14 C151.4 15.99, 163.22 25.08, 171.4 34.38 C179.58 43.67, 186.17 56.01, 189.39 67.9 C192.6 79.79, 192.06 93.47, 190.67 105.7 C189.27 117.92, 186.55 130.6, 181.02 141.25 C175.49 151.89, 167.17 161.73, 157.48 169.55 C147.79 177.37, 134.94 184.42, 122.87 188.18 C110.81 191.93, 97.22 193.41, 85.1 192.09 C72.99 190.77, 60.84 186.29, 50.18 180.27 C39.52 174.24, 29 165.4, 21.16 155.95 C13.33 146.5, 6.78 135.33, 3.17 123.57 C-0.45 111.82, -1.82 97.68, -0.52 85.42 C0.79 73.16, 4.92 60.51, 10.99 50.02 C17.06 39.54, 26.1 30.18, 35.9 22.49 C45.71 14.8, 58.12 7.67, 69.82 3.87 C81.52 0.06, 94 -1.47, 106.11 -0.35 C118.21 0.77, 136.83 8.26, 142.45 10.57 C148.07 12.88, 140.91 11.7, 139.83 13.5" stroke="#000000" stroke-width="1" fill="none"></path></g><g stroke-linecap="round"><g transform="translate(35.3381517811049 305.99251368613375) rotate(0 64.18910877039468 34.26759644981536)" fill-rule="evenodd"><path d="M-1.55 -1.23 L1.66 58.88 L29.39 55.28 L32.67 34.14 L88.95 76.88 L86.76 86 L104.51 87.35 L107.23 99.15 L127.95 97.22 L126.63 72.42 L105.68 75.15 L105.51 79.07 L96.42 65.6 L92.83 70.07 L41.93 33.51 L84.46 35 L84.66 41.35 L104.59 32.22 L104.2 43.08 L128.25 43 L126.44 20.91 L105.98 18.39 L105.12 29.17 L86.7 21.83 L87.47 24.09 L41.39 22.89 L91.3 -5.63 L94.92 1.62 L103.93 -10.2 L102.46 -4.88 L129.35 -2.94 L128.32 -28.11 L102.28 -30.25 L101.9 -19.27 L84.72 -16.84 L89.92 -8.29 L30.15 23.66 L31.11 -0.72 L1.15 0.39" stroke="none" stroke-width="0" fill="#fff" fill-rule="evenodd"></path><path d="M0 0 C1.5 18.58, 0.86 33.73, 0.51 56.89 M0 0 C0.57 15.67, 0.16 29.97, 0.51 56.89 M0.51 56.89 C8.36 56.84, 13.98 55.33, 30.36 57.16 M0.51 56.89 C9.68 57.75, 18.76 56.64, 30.36 57.16 M30.36 57.16 C30.11 50.3, 30.85 43.46, 30.82 35.31 M30.36 57.16 C31.47 50.41, 31.05 43.31, 30.82 35.31 M30.82 35.31 C49.41 45.09, 65.1 59.69, 90.51 77.08 M30.82 35.31 C44.19 44.93, 58.67 54.25, 90.51 77.08 M90.51 77.08 C88.99 79.37, 87.68 82.81, 86.19 85.09 M90.51 77.08 C88.99 79.43, 87.68 81.49, 86.19 85.09 M86.19 85.09 C92.68 87.64, 96.33 87.25, 105.89 88.78 M86.19 85.09 C90.36 86.28, 95 87.92, 105.89 88.78 M105.89 88.78 C105.3 90.35, 106.43 92.43, 105.89 97.22 M105.89 88.78 C106.27 90.77, 105.62 92.92, 105.89 97.22 M105.89 97.22 C112.84 95.33, 119.36 95.7, 128.33 96.1 M105.89 97.22 C113.63 96.9, 122.69 96.79, 128.33 96.1 M128.33 96.1 C127.04 92.17, 129.56 83.59, 128.38 72.92 M128.33 96.1 C127.99 91.03, 128.95 85.67, 128.38 72.92 M128.38 72.92 C120.14 72.11, 111.62 72.94, 106.05 73.18 M128.38 72.92 C120.37 72.81, 111.74 72.17, 106.05 73.18 M106.05 73.18 C105.85 75.68, 105.68 77.42, 105.94 79.97 M106.05 73.18 C106.19 74.71, 105.85 76.3, 105.94 79.97 M105.94 79.97 C102.31 75.95, 102.57 70.4, 97.45 66.08 M105.94 79.97 C104.22 77.01, 101.74 74.42, 97.45 66.08 M97.45 66.08 C96.21 67.57, 93.75 70.36, 93.18 72.01 M97.45 66.08 C96.36 67.89, 94.35 70.01, 93.18 72.01 M93.18 72.01 C79.98 62.17, 68.38 52.34, 41.88 33.44 M93.18 72.01 C77.96 60.64, 61.7 47.4, 41.88 33.44 M41.88 33.44 C59.56 32.5, 75.15 32.26, 85.47 33.39 M41.88 33.44 C56.07 33.51, 71.34 32.39, 85.47 33.39 M85.47 33.39 C85.84 34.78, 85.72 35.88, 85.21 39.58 M85.47 33.39 C85.55 34.84, 85.21 35.67, 85.21 39.58 M85.21 39.58 C90.95 39.25, 93.14 36.19, 104.35 33.39 M85.21 39.58 C89.44 37.33, 93.95 37.34, 104.35 33.39 M104.35 33.39 C105.03 38.28, 104.56 40.34, 104.35 44.44 M104.35 33.39 C104.8 35.9, 103.95 39.4, 104.35 44.44 M104.35 44.44 C111.19 42.35, 118.81 44.92, 128.12 44.28 M104.35 44.44 C110.65 44.6, 116.19 44.18, 128.12 44.28 M128.12 44.28 C129.52 34.19, 126.9 26.3, 128.38 20.3 M128.12 44.28 C127.36 37.88, 127.86 33.27, 128.38 20.3 M128.38 20.3 C124.59 21.29, 120.33 19.58, 104.45 20.3 M128.38 20.3 C120.65 19.88, 111.81 19.19, 104.45 20.3 M104.45 20.3 C104.02 22.29, 103.84 24.76, 104.09 27.72 M104.45 20.3 C104.44 22.34, 104.25 23.92, 104.09 27.72 M104.09 27.72 C97.67 25.09, 92.69 21.72, 85.26 20.14 M104.09 27.72 C97.12 25.66, 89.33 20.9, 85.26 20.14 M85.26 20.14 C85.63 21.32, 85.76 22.06, 85.67 25.27 M85.26 20.14 C85.39 21.77, 85.78 23.28, 85.67 25.27 M85.67 25.27 C73.15 25.37, 64.17 26.57, 42.4 24.79 M85.67 25.27 C71.44 25.31, 56.39 25.39, 42.4 24.79 M42.4 24.79 C58.86 15.79, 74.93 4.27, 91.74 -3.9 M42.4 24.79 C56.97 16.38, 70 8.64, 91.74 -3.9 M91.74 -3.9 C92.68 -1.63, 94.53 0.3, 95.5 1.82 M91.74 -3.9 C92.81 -2.21, 94.08 0.09, 95.5 1.82 M95.5 1.82 C96.28 -0.6, 99.36 -5.92, 104.3 -11.38 M95.5 1.82 C97.64 -2.81, 101.05 -6.04, 104.3 -11.38 M104.3 -11.38 C104.98 -8.57, 104.33 -6.4, 104.35 -4.01 M104.3 -11.38 C104.24 -10.17, 104.22 -8.5, 104.35 -4.01 M104.35 -4.01 C112.87 -5.05, 121.72 -3.23, 127.92 -3.79 M104.35 -4.01 C112.15 -3.87, 121.07 -4.2, 127.92 -3.79 M127.92 -3.79 C126.02 -8.25, 125.85 -17.87, 127.76 -28.42 M127.92 -3.79 C126.9 -11.21, 127.5 -18.23, 127.76 -28.42 M127.76 -28.42 C121.51 -29.79, 115.91 -28.28, 103.73 -28.69 M127.76 -28.42 C120.79 -28.95, 112.56 -29.16, 103.73 -28.69 M103.73 -28.69 C104.7 -26.5, 103.67 -25.15, 103.53 -18.7 M103.73 -28.69 C103.74 -25.23, 103.61 -21.43, 103.53 -18.7 M103.53 -18.7 C99.77 -17.37, 92.75 -16.05, 86.08 -15.81 M103.53 -18.7 C99.14 -17.31, 93.98 -17.48, 86.08 -15.81 M86.08 -15.81 C86.48 -13.26, 87.3 -12.12, 88.6 -8.76 M86.08 -15.81 C86.94 -12.94, 87.69 -10.14, 88.6 -8.76 M88.6 -8.76 C67.57 1.08, 50.5 14.36, 30.62 24.31 M88.6 -8.76 C69.12 2.07, 49.35 12.91, 30.62 24.31 M30.62 24.31 C29.83 19.72, 31.56 12.94, 29.84 0 M30.62 24.31 C30.85 17.03, 29.38 9.22, 29.84 0 M29.84 0 C18.95 1.59, 8.32 -0.67, 0 0 M29.84 0 C23.25 -0.54, 15.79 0.11, 0 0 M0 0 C0 0, 0 0, 0 0 M0 0 C0 0, 0 0, 0 0" stroke="#000000" stroke-width="1" fill="none"></path></g></g><mask></mask><g stroke-linecap="round"><g transform="translate(463.77651049251335 236.57236131691923) rotate(0 -1.1370076655597927 106.42763868308077)" fill-rule="evenodd"><path d="M-1.56 -0.04 L-93.69 55.64 L-92.85 158.29 L0.44 213.42 L92.83 153.01 L93.63 48.6 L0.82 -1.64" stroke="none" stroke-width="0" fill="#40c057" fill-rule="evenodd"></path><path d="M0 0 C-33.99 21.03, -68.52 37.09, -94.14 54.14 M0 0 C-31.58 17.7, -64.3 37.71, -94.14 54.14 M-94.14 54.14 C-95.6 79.5, -92.17 103.07, -94.14 157.33 M-94.14 54.14 C-95.7 94.41, -94.69 135.12, -94.14 157.33 M-94.14 157.33 C-55.3 181.67, -19.29 202.07, 0.45 212.86 M-94.14 157.33 C-62.96 175.26, -31.97 193.4, 0.45 212.86 M0.45 212.86 C34.57 191.57, 67.21 167.38, 91.87 152.7 M0.45 212.86 C32.06 192.58, 64.86 170.75, 91.87 152.7 M91.87 152.7 C93.96 131.58, 91.02 111.54, 91.87 50.44 M91.87 152.7 C93.46 114.45, 93.55 75.02, 91.87 50.44 M91.87 50.44 C63.59 35.8, 33.21 19.87, 0 0 M91.87 50.44 C61.45 33.25, 28.99 16.97, 0 0 M0 0 C0 0, 0 0, 0 0 M0 0 C0 0, 0 0, 0 0" stroke="#000000" stroke-width="1" fill="none"></path></g></g><mask></mask><g stroke-linecap="round"><g transform="translate(432.79857818157916 319.7094531824605) rotate(0 29.28299944539833 20.764841432807373)" fill-rule="evenodd"><path d="M-1.43 0.97 C-0.88 6.28, 2.06 22.14, 2.18 33.11 C2.29 44.09, 2.17 61.7, -0.73 66.84 C-3.64 71.98, -11.93 72.33, -15.26 63.95 C-18.58 55.57, -21.07 31.34, -20.68 16.55 C-20.29 1.75, -16.85 -18.2, -12.92 -24.84 C-9 -31.48, -4.25 -28.79, 2.87 -23.3 C10 -17.8, 21.23 -2.3, 29.82 8.12 C38.41 18.54, 49.31 43.82, 54.42 39.2 C59.53 34.58, 57.05 -8.83, 60.46 -19.59 C63.88 -30.36, 71.77 -31.72, 74.89 -25.4 C78.01 -19.08, 79.66 4, 79.21 18.33 C78.75 32.65, 76.43 52.4, 72.16 60.57 C67.89 68.73, 61.45 71.85, 53.59 67.32 C45.74 62.78, 33.89 44.7, 25.04 33.35 C16.19 22.01, 4.65 4.58, 0.51 -0.77" stroke="none" stroke-width="0" fill="#ffff" fill-rule="evenodd"></path><path d="M0.94 -0.77 C0.83 4.62, -0.36 21.09, -0.54 32.08 C-0.73 43.07, 2.31 59.93, -0.16 65.18 C-2.62 70.43, -12.31 71.79, -15.34 63.58 C-18.37 55.38, -18.38 30.34, -18.33 15.97 C-18.27 1.59, -18.74 -15.77, -15.01 -22.67 C-11.27 -29.56, -3.46 -30.73, 4.09 -25.41 C11.64 -20.09, 21.66 -1.87, 30.3 9.27 C38.94 20.41, 51.16 46.49, 55.95 41.43 C60.74 36.37, 56.07 -10.24, 59.06 -21.1 C62.06 -31.95, 70.75 -30.05, 73.93 -23.71 C77.11 -17.36, 77.95 2.5, 78.13 16.97 C78.31 31.44, 79.58 54.9, 75.02 63.09 C70.46 71.28, 59.29 71.24, 50.78 66.11 C42.26 60.98, 32.32 43.26, 23.92 32.3 C15.52 21.33, 4.17 5.55, 0.38 0.35 M-0.02 1.44 C0.21 6.5, 1.72 19.47, 1.62 30.25 C1.52 41.04, 2.08 60.46, -0.62 66.14 C-3.32 71.82, -11.45 72.56, -14.56 64.33 C-17.67 56.1, -19.38 31.4, -19.28 16.76 C-19.18 2.12, -17.96 -16.75, -13.95 -23.49 C-9.95 -30.23, -2.47 -29.15, 4.75 -23.66 C11.97 -18.17, 20.56 -1.28, 29.36 9.44 C38.16 20.15, 52.54 45.74, 57.54 40.61 C62.54 35.49, 56.67 -10.76, 59.37 -21.31 C62.07 -31.86, 70.84 -29.05, 73.75 -22.69 C76.66 -16.32, 77.11 2.68, 76.85 16.89 C76.59 31.11, 76.7 54.35, 72.17 62.6 C67.64 70.85, 58.18 71.5, 49.69 66.38 C41.2 61.26, 29.23 42.63, 21.21 31.86 C13.2 21.09, 5.06 7.3, 1.61 1.78" stroke="#000000" stroke-width="1" fill="none"></path></g></g><mask></mask><g stroke-linecap="round" transform="translate(370.5 164) rotate(0 13 22)"><path d="M0.73 3.28 C0.73 3.28, 0.73 3.28, 0.73 3.28 M0.73 3.28 C0.73 3.28, 0.73 3.28, 0.73 3.28 M0.21 16.08 C2.46 13.27, 7.66 7.52, 13.33 0.99 M0.21 16.08 C4.26 11.87, 8.42 6.86, 13.33 0.99 M0.34 28.12 C9.09 18.94, 15.98 10.92, 23.3 1.71 M0.34 28.12 C6.83 19.18, 15.14 9.76, 23.3 1.71 M0.47 40.16 C11.06 30.54, 18.09 22.12, 26.72 9.97 M0.47 40.16 C9.02 31.77, 16.88 21.82, 26.72 9.97 M7.82 43.9 C16.05 36.07, 24.18 28.6, 26.85 22.01 M7.82 43.9 C13.05 36.72, 20.67 29.03, 26.85 22.01 M18.45 43.87 C21.79 39.34, 24.9 38.23, 26.98 34.05 M18.45 43.87 C20.74 41.93, 22.81 39.14, 26.98 34.05 M3.38 43.36 C3.38 43.36, 3.38 43.36, 3.38 43.36 M3.38 43.36 C3.38 43.36, 3.38 43.36, 3.38 43.36 M16.18 43.88 C13.02 38.61, 8.27 36.47, 1.09 30.76 M16.18 43.88 C10.27 39.4, 5.88 35.94, 1.09 30.76 M25.2 41.12 C20.19 37.52, 13.75 31.37, 1.05 20.13 M25.2 41.12 C17.33 33.77, 9.65 28.11, 1.05 20.13 M26.68 31.81 C21.41 26.81, 15.59 19.3, 1.02 9.5 M26.68 31.81 C17.93 23.45, 9.3 16.64, 1.02 9.5 M26.64 21.18 C17.13 12.61, 9.07 3.99, 3.25 0.84 M26.64 21.18 C18.8 14.21, 11.39 7.76, 3.25 0.84 M25.85 9.89 C22.99 6.79, 18.19 2.99, 14.53 0.05 M25.85 9.89 C23 7.11, 18.97 4.61, 14.53 0.05" stroke="#ffc9c9" stroke-width="1" fill="none"></path><path d="M6.5 0 C11.51 0.77, 17.54 0.02, 19.5 0 M6.5 0 C10.66 -0.09, 13.59 0.55, 19.5 0 M19.5 0 C24.77 0.83, 27.79 0.96, 26 6.5 M19.5 0 C22.32 -1.73, 28.13 2.57, 26 6.5 M26 6.5 C27.89 13.74, 24.78 23.21, 26 37.5 M26 6.5 C26.35 15.48, 26.22 24.96, 26 37.5 M26 37.5 C26.64 42.93, 23 45.52, 19.5 44 M26 37.5 C25.38 43.38, 24.62 43.62, 19.5 44 M19.5 44 C16.62 43.02, 13.2 44.38, 6.5 44 M19.5 44 C16.93 43.42, 12.79 43.48, 6.5 44 M6.5 44 C2.72 43.04, -0.12 41.27, 0 37.5 M6.5 44 C2.18 43.36, -0.83 40.27, 0 37.5 M0 37.5 C-1.15 30.59, 0.24 22.06, 0 6.5 M0 37.5 C-0.79 26.63, 0.22 15.56, 0 6.5 M0 6.5 C-1.88 3.44, 1.64 -0.34, 6.5 0 M0 6.5 C-1.45 1.81, 1.76 -0.96, 6.5 0" stroke="#1e1e1e" stroke-width="2" fill="none"></path></g><g stroke-linecap="round"><g transform="translate(202.94817086293335 341.67051515238177) rotate(0 84.02591456853344 1.6647424238091162)"><path d="M-1.17 -0.04 C26.93 0.35, 140.59 1.96, 168.84 2.35 M0.42 -1.11 C28.41 -0.6, 140.42 2.67, 168.3 3.37" stroke="#1e1e1e" stroke-width="2" fill="none"></path></g><g transform="translate(202.94817086293335 341.67051515238177) rotate(0 84.02591456853344 1.6647424238091162)"><path d="M144.58 11.28 C152.1 10.29, 158.11 6.9, 168.3 3.37 M144.58 11.28 C148.8 9.32, 154.43 8.16, 168.3 3.37" stroke="#1e1e1e" stroke-width="2" fill="none"></path></g><g transform="translate(202.94817086293335 341.67051515238177) rotate(0 84.02591456853344 1.6647424238091162)"><path d="M145.05 -5.82 C152.41 -1.35, 158.27 0.73, 168.3 3.37 M145.05 -5.82 C149.09 -4.1, 154.62 -1.59, 168.3 3.37" stroke="#1e1e1e" stroke-width="2" fill="none"></path></g></g><mask></mask><g transform="translate(383.58797454833984 111.5) rotate(0 72.60430908203125 17.5)"><text x="0" y="24.528" font-family="Virgil, Segoe UI Emoji" font-size="28px" fill="#1e1e1e" text-anchor="start" style="white-space: pre;" direction="ltr" dominant-baseline="alphabetic">Middleware</text></g><g stroke-linecap="round" transform="translate(347 107) rotate(0 126.5 63.5)"><path d="M31.75 0 C83.05 -0.68, 135.98 -1.68, 221.25 0 M221.25 0 C242.17 0.02, 251.93 11.06, 253 31.75 M253 31.75 C253.99 55.17, 253.67 74.35, 253 95.25 M253 95.25 C252.12 117.37, 244.19 128.16, 221.25 127 M221.25 127 C163.53 128.74, 106.6 129.94, 31.75 127 M31.75 127 C9.06 126.73, -1.61 117.06, 0 95.25 M0 95.25 C0.99 76.81, -0.8 55.88, 0 31.75 M0 31.75 C-1.93 11.45, 8.93 -1.04, 31.75 0" stroke="#1e1e1e" stroke-width="2.5" fill="none" stroke-dasharray="8 10"></path></g><g stroke-linecap="round" transform="translate(533 158) rotate(0 13 22)"><path d="M0.73 3.28 C0.73 3.28, 0.73 3.28, 0.73 3.28 M0.73 3.28 C0.73 3.28, 0.73 3.28, 0.73 3.28 M0.21 16.08 C2.56 11, 5.64 8.03, 10.7 4 M0.21 16.08 C3.18 11.93, 6.79 8.19, 10.7 4 M0.34 28.12 C6.74 24.43, 10.49 16.13, 23.3 1.71 M0.34 28.12 C8.68 19.6, 16.15 11.44, 23.3 1.71 M0.47 40.16 C10 27.27, 19.26 17.4, 29.34 6.95 M0.47 40.16 C11.45 27.14, 21.67 14.87, 29.34 6.95 M5.85 46.16 C12.92 37.96, 22.4 28.26, 29.47 19 M5.85 46.16 C13.39 38.82, 19.69 31.24, 29.47 19 M16.48 46.13 C20.03 40.77, 23.62 39, 29.61 31.04 M16.48 46.13 C21.94 41.56, 25.32 36.28, 29.61 31.04 M3.38 43.36 C3.38 43.36, 3.38 43.36, 3.38 43.36 M3.38 43.36 C3.38 43.36, 3.38 43.36, 3.38 43.36 M16.18 43.88 C14.15 40.82, 7.32 37.49, 1.09 30.76 M16.18 43.88 C10.39 39.66, 5.49 34.32, 1.09 30.76 M25.2 41.12 C17.06 33.22, 10.97 28.56, 1.05 20.13 M25.2 41.12 C16.64 34.62, 8.72 26.72, 1.05 20.13 M26.68 31.81 C20.5 26.98, 13.78 22.65, 1.02 9.5 M26.68 31.81 C19.74 24.67, 13.23 19.94, 1.02 9.5 M26.64 21.18 C20.11 15.56, 16.92 11.34, 3.25 0.84 M26.64 21.18 C17.38 12.88, 8.67 6.15, 3.25 0.84 M25.85 9.89 C21.96 5.73, 20.33 3.56, 14.53 0.05 M25.85 9.89 C22.35 6.39, 17.58 3.95, 14.53 0.05" stroke="#ffc9c9" stroke-width="1" fill="none"></path><path d="M6.5 0 C8.54 0.22, 11.7 1.29, 19.5 0 M6.5 0 C11.62 -0.3, 16.18 -0.53, 19.5 0 M19.5 0 C24.48 0.46, 26.82 0.8, 26 6.5 M19.5 0 C24.34 0.59, 25.76 2.03, 26 6.5 M26 6.5 C25.33 15.18, 25.31 25.15, 26 37.5 M26 6.5 C26.88 15.93, 26.72 26.38, 26 37.5 M26 37.5 C25.35 39.92, 22.2 42.52, 19.5 44 M26 37.5 C25.51 42.33, 23.74 44.63, 19.5 44 M19.5 44 C16.69 43.16, 10.93 43.65, 6.5 44 M19.5 44 C16.46 43.97, 14.5 43.85, 6.5 44 M6.5 44 C3.5 42.82, -0.35 39.89, 0 37.5 M6.5 44 C3.85 46.13, -1.58 41.44, 0 37.5 M0 37.5 C0.5 25.42, -0.47 12.42, 0 6.5 M0 37.5 C0.05 29.4, 0.57 18.72, 0 6.5 M0 6.5 C-0.52 4.11, 3.59 -0.71, 6.5 0 M0 6.5 C-0.61 3.14, 0.59 -1.68, 6.5 0" stroke="#1e1e1e" stroke-width="2" fill="none"></path></g><g stroke-linecap="round" transform="translate(497 159) rotate(0 13 22)"><path d="M0.73 3.28 C0.73 3.28, 0.73 3.28, 0.73 3.28 M0.73 3.28 C0.73 3.28, 0.73 3.28, 0.73 3.28 M0.21 16.08 C2.19 12.59, 5.49 8.03, 13.33 0.99 M0.21 16.08 C3.92 12.26, 7.79 9.35, 13.33 0.99 M0.34 28.12 C7.89 18.93, 16.71 11.35, 23.3 1.71 M0.34 28.12 C8.17 18.55, 15.79 8.99, 23.3 1.71 M0.47 40.16 C7.9 32.28, 15.33 22.41, 26.72 9.97 M0.47 40.16 C8.3 31.03, 17.02 21.32, 26.72 9.97 M7.82 43.9 C13.81 34.93, 24.89 26.5, 26.85 22.01 M7.82 43.9 C15.07 35.44, 22.95 25.99, 26.85 22.01 M18.45 43.87 C21.94 40.91, 24.75 38.92, 26.98 34.05 M18.45 43.87 C20.79 40.76, 23.77 38.88, 26.98 34.05 M3.38 43.36 C3.38 43.36, 3.38 43.36, 3.38 43.36 M3.38 43.36 C3.38 43.36, 3.38 43.36, 3.38 43.36 M16.18 43.88 C12.53 38.78, 7.49 38.31, 1.09 30.76 M16.18 43.88 C11.39 40.01, 7.62 36.11, 1.09 30.76 M25.2 41.12 C16.92 34.78, 8.81 28.78, 1.05 20.13 M25.2 41.12 C15.94 33.51, 5.96 24.47, 1.05 20.13 M26.68 31.81 C21.42 26.15, 14.7 19.03, 1.02 9.5 M26.68 31.81 C15.95 22.07, 5.37 13.33, 1.02 9.5 M26.64 21.18 C18.51 16.59, 11.02 6.92, 3.25 0.84 M26.64 21.18 C18.86 13.89, 10.89 7.06, 3.25 0.84 M25.85 9.89 C21.61 6.6, 19.01 3.09, 14.53 0.05 M25.85 9.89 C23.94 7.26, 21.39 5.97, 14.53 0.05" stroke="#ffc9c9" stroke-width="1" fill="none"></path><path d="M6.5 0 C9.36 -0.1, 13.13 -0.69, 19.5 0 M6.5 0 C10.81 0.22, 14.38 0.1, 19.5 0 M19.5 0 C24.35 -0.21, 25.88 2.29, 26 6.5 M19.5 0 C24.26 -0.09, 25.16 1.25, 26 6.5 M26 6.5 C27.05 13.21, 27.37 22.68, 26 37.5 M26 6.5 C25.32 16.69, 25.54 28.31, 26 37.5 M26 37.5 C26.43 41.75, 24.38 44.06, 19.5 44 M26 37.5 C24.55 42.6, 25.83 42.45, 19.5 44 M19.5 44 C16.99 44.57, 12.3 43.67, 6.5 44 M19.5 44 C14.63 43.97, 9.89 44.56, 6.5 44 M6.5 44 C4.02 42.63, -0.34 43.3, 0 37.5 M6.5 44 C3.64 42.92, 0.8 41.25, 0 37.5 M0 37.5 C1.87 30.56, 0.88 21.7, 0 6.5 M0 37.5 C1.16 26.4, -0.17 13.6, 0 6.5 M0 6.5 C0.85 0.79, 0.7 1.15, 6.5 0 M0 6.5 C2.16 0.75, 4.23 1.13, 6.5 0" stroke="#1e1e1e" stroke-width="2" fill="none"></path></g><g stroke-linecap="round" transform="translate(463 163) rotate(0 13 22)"><path d="M0.73 3.28 C0.73 3.28, 0.73 3.28, 0.73 3.28 M0.73 3.28 C0.73 3.28, 0.73 3.28, 0.73 3.28 M0.21 16.08 C2.68 11.88, 5.67 10.41, 10.7 4 M0.21 16.08 C3.77 11.72, 8.08 6.64, 10.7 4 M0.34 28.12 C10.52 19.16, 17.38 7.96, 23.3 1.71 M0.34 28.12 C7.05 21.2, 14.13 13, 23.3 1.71 M0.47 40.16 C8.92 28.7, 19.48 17.7, 29.34 6.95 M0.47 40.16 C7.99 30.22, 15.88 20.97, 29.34 6.95 M5.85 46.16 C14.46 34.56, 23.92 24.62, 29.47 19 M5.85 46.16 C13.56 38.63, 20.78 30.1, 29.47 19 M16.48 46.13 C23 38.87, 26.94 32.81, 29.61 31.04 M16.48 46.13 C21.04 39.84, 27.71 33.78, 29.61 31.04 M3.38 43.36 C3.38 43.36, 3.38 43.36, 3.38 43.36 M3.38 43.36 C3.38 43.36, 3.38 43.36, 3.38 43.36 M16.18 43.88 C11.74 40.97, 7.39 36.88, 1.09 30.76 M16.18 43.88 C12.62 41.05, 8.25 37.3, 1.09 30.76 M25.2 41.12 C18.67 33.31, 10.54 29.77, 1.05 20.13 M25.2 41.12 C18.64 34.73, 11.83 28.82, 1.05 20.13 M26.68 31.81 C19.49 23.01, 8.99 15.85, 1.02 9.5 M26.68 31.81 C20.58 27.68, 14.79 22.62, 1.02 9.5 M26.64 21.18 C21.45 14.84, 13.39 8.49, 3.25 0.84 M26.64 21.18 C20.55 16.77, 15.27 11.46, 3.25 0.84 M25.85 9.89 C23.51 7.51, 19.44 1.93, 14.53 0.05 M25.85 9.89 C21.15 5.8, 16.93 2.75, 14.53 0.05" stroke="#ffc9c9" stroke-width="1" fill="none"></path><path d="M6.5 0 C10.02 0.39, 15.98 0.51, 19.5 0 M6.5 0 C9.44 -0.07, 12.56 0.09, 19.5 0 M19.5 0 C23.76 -0.73, 25.2 1.42, 26 6.5 M19.5 0 C23.47 0.15, 27.27 0.51, 26 6.5 M26 6.5 C27.76 17.35, 24.07 27.87, 26 37.5 M26 6.5 C25.89 13.79, 25.96 19.89, 26 37.5 M26 37.5 C26.67 43.57, 22.48 42.93, 19.5 44 M26 37.5 C25.31 39.62, 25.06 45.23, 19.5 44 M19.5 44 C15.96 44.92, 12.52 43.83, 6.5 44 M19.5 44 C16.42 44.01, 14.7 44.54, 6.5 44 M6.5 44 C1.23 44.7, -0.51 41.56, 0 37.5 M6.5 44 C-0.07 43.84, 1.81 44.07, 0 37.5 M0 37.5 C-1.51 26.78, 1.64 18.52, 0 6.5 M0 37.5 C-0.6 28.57, 0.66 22.05, 0 6.5 M0 6.5 C-1.23 3.96, 3.15 -1.67, 6.5 0 M0 6.5 C-0.85 2.67, 1.39 1.9, 6.5 0" stroke="#1e1e1e" stroke-width="2" fill="none"></path></g><g stroke-linecap="round" transform="translate(430 162) rotate(0 13 22)"><path d="M0.73 3.28 C0.73 3.28, 0.73 3.28, 0.73 3.28 M0.73 3.28 C0.73 3.28, 0.73 3.28, 0.73 3.28 M0.21 16.08 C6.47 11.47, 8.12 6.62, 13.33 0.99 M0.21 16.08 C4.42 11.94, 9 7.39, 13.33 0.99 M0.34 28.12 C5.99 19.02, 14.67 12.67, 23.3 1.71 M0.34 28.12 C6.89 19.62, 14.19 11.03, 23.3 1.71 M0.47 40.16 C6.66 35.08, 11.38 25.57, 26.72 9.97 M0.47 40.16 C6.15 34.28, 11.58 26.44, 26.72 9.97 M7.82 43.9 C11.52 38.13, 18.84 33.45, 26.85 22.01 M7.82 43.9 C15.72 35.23, 22.9 26.53, 26.85 22.01 M18.45 43.87 C21.97 40.68, 22.99 37.41, 26.98 34.05 M18.45 43.87 C21.59 39.58, 25.43 36.69, 26.98 34.05 M3.38 43.36 C3.38 43.36, 3.38 43.36, 3.38 43.36 M3.38 43.36 C3.38 43.36, 3.38 43.36, 3.38 43.36 M16.18 43.88 C11.55 41.69, 10.05 39, 1.09 30.76 M16.18 43.88 C12.5 40.83, 7.56 35.18, 1.09 30.76 M25.2 41.12 C16.95 32.92, 9.57 26.52, 1.05 20.13 M25.2 41.12 C15.72 34.72, 8.62 25.47, 1.05 20.13 M26.68 31.81 C19.08 26.27, 12.58 21.65, 1.02 9.5 M26.68 31.81 C18.91 25.9, 13.14 19.28, 1.02 9.5 M26.64 21.18 C18.14 15.86, 12.05 10.2, 3.25 0.84 M26.64 21.18 C20.29 15.08, 15.33 11.28, 3.25 0.84 M25.85 9.89 C22.09 5.96, 16.26 1.54, 14.53 0.05 M25.85 9.89 C23.67 7.17, 20.91 5.08, 14.53 0.05" stroke="#ffc9c9" stroke-width="1" fill="none"></path><path d="M6.5 0 C10.99 0.42, 14.76 0.01, 19.5 0 M6.5 0 C10.24 -0.25, 14.21 -0.1, 19.5 0 M19.5 0 C23.96 1.1, 24.56 3.59, 26 6.5 M19.5 0 C23.69 1.27, 28.04 1.42, 26 6.5 M26 6.5 C25.32 13.27, 25.66 19.71, 26 37.5 M26 6.5 C26.67 15.21, 25.27 24.98, 26 37.5 M26 37.5 C24.07 42.9, 24.9 42.78, 19.5 44 M26 37.5 C25.64 42.88, 23.07 45.53, 19.5 44 M19.5 44 C17.32 45.08, 12.34 43.65, 6.5 44 M19.5 44 C14.87 43.77, 9.71 43.31, 6.5 44 M6.5 44 C2.03 45.57, 1.94 42.42, 0 37.5 M6.5 44 C4.43 45.87, -1.38 41.23, 0 37.5 M0 37.5 C-0.75 26.04, -1.6 11.42, 0 6.5 M0 37.5 C0.61 26.92, -1.12 14.98, 0 6.5 M0 6.5 C0.43 1.5, 3.82 1.39, 6.5 0 M0 6.5 C-0.05 2.63, 3.78 -1.95, 6.5 0" stroke="#1e1e1e" stroke-width="2" fill="none"></path></g><g stroke-linecap="round" transform="translate(401 160) rotate(0 13 22)"><path d="M0.73 3.28 C0.73 3.28, 0.73 3.28, 0.73 3.28 M0.73 3.28 C0.73 3.28, 0.73 3.28, 0.73 3.28 M0.21 16.08 C3.05 13.47, 7.47 9.15, 13.33 0.99 M0.21 16.08 C4.92 10.02, 9.6 3.81, 13.33 0.99 M0.34 28.12 C6.88 21.59, 11.44 13.46, 23.3 1.71 M0.34 28.12 C5.41 22.64, 9.91 18.31, 23.3 1.71 M0.47 40.16 C6.5 35.04, 13.04 27.7, 26.72 9.97 M0.47 40.16 C7.5 32.42, 13.5 24.63, 26.72 9.97 M7.82 43.9 C14.48 37.95, 22.65 27.78, 26.85 22.01 M7.82 43.9 C14.33 36.78, 22.68 27.63, 26.85 22.01 M18.45 43.87 C20.09 40.28, 22.21 37.91, 26.98 34.05 M18.45 43.87 C21.11 40.25, 24.93 37.22, 26.98 34.05 M3.38 43.36 C3.38 43.36, 3.38 43.36, 3.38 43.36 M3.38 43.36 C3.38 43.36, 3.38 43.36, 3.38 43.36 M16.18 43.88 C11.71 39.74, 7.82 36.87, 1.09 30.76 M16.18 43.88 C11.6 39.05, 5.33 33.85, 1.09 30.76 M25.2 41.12 C16.88 34.79, 7 28.93, 1.05 20.13 M25.2 41.12 C16.04 32.77, 7.52 26.21, 1.05 20.13 M26.68 31.81 C21.53 25.41, 11.7 20.33, 1.02 9.5 M26.68 31.81 C16.8 23.1, 7.23 15.96, 1.02 9.5 M26.64 21.18 C21.06 17.17, 15.31 9.99, 3.25 0.84 M26.64 21.18 C16.39 13.96, 8.19 5.01, 3.25 0.84 M25.85 9.89 C23.54 6.05, 21.44 4.45, 14.53 0.05 M25.85 9.89 C22.82 6.47, 18.94 2.72, 14.53 0.05" stroke="#ffc9c9" stroke-width="1" fill="none"></path><path d="M6.5 0 C10.5 -0.06, 13.56 -0.53, 19.5 0 M6.5 0 C10.28 -0.48, 13.8 -0.05, 19.5 0 M19.5 0 C24.94 1.77, 25.35 0.25, 26 6.5 M19.5 0 C21.95 -1.7, 25.51 2.67, 26 6.5 M26 6.5 C24.82 16.33, 27.82 23.48, 26 37.5 M26 6.5 C26.44 14.67, 25.3 21.62, 26 37.5 M26 37.5 C26.91 41.17, 25.16 42.82, 19.5 44 M26 37.5 C25.6 39.6, 25.52 46.13, 19.5 44 M19.5 44 C17.33 43.49, 13.94 43.76, 6.5 44 M19.5 44 C16.29 44.62, 12.24 44.63, 6.5 44 M6.5 44 C3.79 42.8, -0.52 43.77, 0 37.5 M6.5 44 C3.8 43.18, -0.61 42.81, 0 37.5 M0 37.5 C2.1 29.1, 2.02 24.15, 0 6.5 M0 37.5 C-0.22 31.61, 0.81 24.04, 0 6.5 M0 6.5 C0.4 3.57, 0.47 -0.03, 6.5 0 M0 6.5 C0.34 3.62, 1.07 -2.02, 6.5 0" stroke="#1e1e1e" stroke-width="2" fill="none"></path></g><g stroke-linecap="round" transform="translate(652 96) rotate(0 99 27)"><path d="M13.5 0 C50.49 -1.84, 88.9 0.22, 184.5 0 M184.5 0 C193.87 1.76, 197.66 5.29, 198 13.5 M198 13.5 C196.02 18.35, 199.28 26.33, 198 40.5 M198 40.5 C198.99 48.13, 194.57 55.33, 184.5 54 M184.5 54 C144.97 51.97, 110.11 51.99, 13.5 54 M13.5 54 C5.44 52.48, 1.59 48.98, 0 40.5 M0 40.5 C0.18 35.6, 0.78 27.74, 0 13.5 M0 13.5 C0.72 6.06, 4.54 -0.68, 13.5 0" stroke="#1e1e1e" stroke-width="2.5" fill="none" stroke-dasharray="8 10"></path></g><g stroke-linecap="round" transform="translate(656 301) rotate(0 99 27)"><path d="M13.5 0 C75.29 -1.82, 140.81 -2.13, 184.5 0 M184.5 0 C194.02 1.67, 198.41 3.67, 198 13.5 M198 13.5 C196.72 19.23, 198.74 27.66, 198 40.5 M198 40.5 C199.65 51.32, 192.87 52, 184.5 54 M184.5 54 C149.28 55.05, 111.15 54.01, 13.5 54 M13.5 54 C3.5 52.18, 1.59 48.32, 0 40.5 M0 40.5 C1.87 35.15, 0.55 26.23, 0 13.5 M0 13.5 C0.98 3.57, 4.58 0.23, 13.5 0" stroke="#1e1e1e" stroke-width="2.5" fill="none" stroke-dasharray="8 10"></path></g><g stroke-linecap="round" transform="translate(647 233) rotate(0 99 27)"><path d="M13.5 0 C64.73 -0.04, 111.79 -1.8, 184.5 0 M184.5 0 C194.21 1.69, 196.62 3.95, 198 13.5 M198 13.5 C200.03 21.85, 196.22 29.64, 198 40.5 M198 40.5 C198.55 50.37, 194.1 54.3, 184.5 54 M184.5 54 C145.96 54.74, 109.89 51.82, 13.5 54 M13.5 54 C4.62 54.84, 1.89 50.45, 0 40.5 M0 40.5 C-0.7 31.72, 0.46 21.48, 0 13.5 M0 13.5 C-1.87 5.85, 5.06 -0.16, 13.5 0" stroke="#1e1e1e" stroke-width="2.5" fill="none" stroke-dasharray="8 10"></path></g><g stroke-linecap="round" transform="translate(650 168) rotate(0 99 27)"><path d="M13.5 0 C59.42 -1.98, 101.42 0.04, 184.5 0 M184.5 0 C195.1 1.65, 199.82 3.87, 198 13.5 M198 13.5 C198.62 19.5, 198.06 22.6, 198 40.5 M198 40.5 C197.27 48.5, 191.68 55.59, 184.5 54 M184.5 54 C144.15 55.99, 103.07 54.67, 13.5 54 M13.5 54 C2.84 54.98, -0.93 49.58, 0 40.5 M0 40.5 C1.52 32.65, 0.01 22.75, 0 13.5 M0 13.5 C1.18 5.73, 3.73 -1.22, 13.5 0" stroke="#1e1e1e" stroke-width="2.5" fill="none" stroke-dasharray="8 10"></path></g><g transform="translate(607 10) rotate(0 135.8845672607422 35)"><text x="0" y="24.528" font-family="Virgil, Segoe UI Emoji" font-size="28px" fill="#1e1e1e" text-anchor="start" style="white-space: pre;" direction="ltr" dominant-baseline="alphabetic">Handler functions</text><text x="0" y="59.528" font-family="Virgil, Segoe UI Emoji" font-size="28px" fill="#1e1e1e" text-anchor="start" style="white-space: pre;" direction="ltr" dominant-baseline="alphabetic">(limited concurrency)</text></g><g stroke-linecap="round" transform="translate(678 102) rotate(0 13 22)"><path d="M0.73 3.28 C0.73 3.28, 0.73 3.28, 0.73 3.28 M0.73 3.28 C0.73 3.28, 0.73 3.28, 0.73 3.28 M0.21 16.08 C1.89 11.31, 6.24 8.03, 13.33 0.99 M0.21 16.08 C3.1 12.89, 6.4 9.27, 13.33 0.99 M0.34 28.12 C5.72 22.24, 11.96 11.85, 23.3 1.71 M0.34 28.12 C9.01 19.41, 17.26 10.46, 23.3 1.71 M0.47 40.16 C8.54 30.09, 20.66 15.55, 26.72 9.97 M0.47 40.16 C7.64 31.17, 14.65 23.05, 26.72 9.97 M7.82 43.9 C14.23 35.89, 20.92 26.75, 26.85 22.01 M7.82 43.9 C13.92 36.83, 20.37 30.09, 26.85 22.01 M18.45 43.87 C20.8 40.07, 23.63 37.87, 26.98 34.05 M18.45 43.87 C21.85 39.89, 24.99 36.54, 26.98 34.05 M3.38 43.36 C3.38 43.36, 3.38 43.36, 3.38 43.36 M3.38 43.36 C3.38 43.36, 3.38 43.36, 3.38 43.36 M16.18 43.88 C13.04 40.29, 9.46 39.3, 1.09 30.76 M16.18 43.88 C11.13 39.77, 5.41 35.49, 1.09 30.76 M25.2 41.12 C18.88 36.5, 10.25 28.79, 1.05 20.13 M25.2 41.12 C15 32.02, 6.99 24.96, 1.05 20.13 M26.68 31.81 C16.02 22.89, 7.21 17.07, 1.02 9.5 M26.68 31.81 C18.18 24.11, 8.29 16.06, 1.02 9.5 M26.64 21.18 C17.74 14.07, 10.55 6.87, 3.25 0.84 M26.64 21.18 C20.91 16.8, 13.87 10.39, 3.25 0.84 M25.85 9.89 C21.13 7.04, 18.43 4.08, 14.53 0.05 M25.85 9.89 C20.68 6.55, 17.53 1.91, 14.53 0.05" stroke="#ffc9c9" stroke-width="1" fill="none"></path><path d="M6.5 0 C9.9 0.51, 16.33 0.04, 19.5 0 M6.5 0 C10.67 0.3, 14.19 0.21, 19.5 0 M19.5 0 C21.99 0.6, 24.09 1.97, 26 6.5 M19.5 0 C26.09 -1.62, 25.83 3.11, 26 6.5 M26 6.5 C27.16 17.91, 25.81 28.12, 26 37.5 M26 6.5 C26.9 13.72, 25.81 20.85, 26 37.5 M26 37.5 C27.44 40.26, 23.94 45.27, 19.5 44 M26 37.5 C27.23 42.41, 23.61 41.9, 19.5 44 M19.5 44 C15.21 44.52, 8.1 44.7, 6.5 44 M19.5 44 C15.41 44.55, 11.45 44.16, 6.5 44 M6.5 44 C2.92 45.18, -0.49 42.06, 0 37.5 M6.5 44 C4.12 45.74, -1.75 40.76, 0 37.5 M0 37.5 C1.24 25.99, -0.28 15.22, 0 6.5 M0 37.5 C-0.75 25.74, -0.28 13.82, 0 6.5 M0 6.5 C0.31 0.65, 1.23 -1.71, 6.5 0 M0 6.5 C2.27 0.47, -0.02 -1.25, 6.5 0" stroke="#1e1e1e" stroke-width="2" fill="none"></path></g><g stroke-linecap="round" transform="translate(677 169) rotate(0 13 22)"><path d="M0.73 3.28 C0.73 3.28, 0.73 3.28, 0.73 3.28 M0.73 3.28 C0.73 3.28, 0.73 3.28, 0.73 3.28 M0.21 16.08 C5.13 11.99, 7.98 8.63, 13.33 0.99 M0.21 16.08 C4.15 11.07, 8.84 6.5, 13.33 0.99 M0.34 28.12 C4.03 24.17, 10.16 19.45, 23.3 1.71 M0.34 28.12 C7.59 17.83, 16.86 9.6, 23.3 1.71 M0.47 40.16 C7.14 32.46, 12.3 24.31, 26.72 9.97 M0.47 40.16 C8.27 29.54, 18.15 18.96, 26.72 9.97 M7.82 43.9 C12.12 36.88, 19.19 30.56, 26.85 22.01 M7.82 43.9 C15.05 35.18, 22.1 26.82, 26.85 22.01 M18.45 43.87 C20.47 41.77, 22.15 39.23, 26.98 34.05 M18.45 43.87 C21.22 41.36, 22.33 38.45, 26.98 34.05 M3.38 43.36 C3.38 43.36, 3.38 43.36, 3.38 43.36 M3.38 43.36 C3.38 43.36, 3.38 43.36, 3.38 43.36 M16.18 43.88 C9.72 40.18, 7.02 34.71, 1.09 30.76 M16.18 43.88 C10.51 39.05, 5.59 33.24, 1.09 30.76 M25.2 41.12 C17.24 33.92, 10.14 30.85, 1.05 20.13 M25.2 41.12 C17.98 33.53, 8.74 26.72, 1.05 20.13 M26.68 31.81 C19.71 25.38, 10.14 16.44, 1.02 9.5 M26.68 31.81 C20.1 25.64, 13.03 20.34, 1.02 9.5 M26.64 21.18 C18.89 15.54, 14.23 7.33, 3.25 0.84 M26.64 21.18 C19.21 15.18, 13.69 10.32, 3.25 0.84 M25.85 9.89 C20.75 4.48, 18.02 3.29, 14.53 0.05 M25.85 9.89 C22.56 7.18, 19.39 3.6, 14.53 0.05" stroke="#ffc9c9" stroke-width="1" fill="none"></path><path d="M6.5 0 C11.64 0.32, 15.11 -0.63, 19.5 0 M6.5 0 C10.46 -0.1, 16.3 -0.5, 19.5 0 M19.5 0 C23.68 0.82, 27.07 4.12, 26 6.5 M19.5 0 C22.02 0.99, 26.52 1.6, 26 6.5 M26 6.5 C24 16.84, 25.41 23.51, 26 37.5 M26 6.5 C26.28 14.95, 26.76 22.39, 26 37.5 M26 37.5 C25.81 40.01, 25.64 45.22, 19.5 44 M26 37.5 C24.58 43.21, 24.89 41.77, 19.5 44 M19.5 44 C13.95 43.46, 11.41 43.19, 6.5 44 M19.5 44 C14.95 44.15, 11.27 44.57, 6.5 44 M6.5 44 C0.65 43.06, 1.74 42.85, 0 37.5 M6.5 44 C2.6 45.61, 0.57 41.69, 0 37.5 M0 37.5 C0.16 24.47, -0.56 13.42, 0 6.5 M0 37.5 C-0.51 28.88, 0.94 21.23, 0 6.5 M0 6.5 C-1.9 1.08, 2.15 -1.44, 6.5 0 M0 6.5 C-0.08 1.81, 0.14 -0.64, 6.5 0" stroke="#1e1e1e" stroke-width="2" fill="none"></path></g><g stroke-linecap="round" transform="translate(673 234) rotate(0 13 22)"><path d="M0.73 3.28 C0.73 3.28, 0.73 3.28, 0.73 3.28 M0.73 3.28 C0.73 3.28, 0.73 3.28, 0.73 3.28 M0.21 16.08 C3.38 10.85, 8.08 7.15, 13.33 0.99 M0.21 16.08 C3.35 11.84, 7.56 8.81, 13.33 0.99 M0.34 28.12 C10.17 16.35, 16.53 8.36, 23.3 1.71 M0.34 28.12 C7.8 20.53, 13.94 12.17, 23.3 1.71 M0.47 40.16 C4.67 31.8, 10.49 27.3, 26.72 9.97 M0.47 40.16 C5.85 33.3, 10.94 27.89, 26.72 9.97 M7.82 43.9 C12.39 37.6, 17.35 30.97, 26.85 22.01 M7.82 43.9 C13.12 36.67, 20.29 29.25, 26.85 22.01 M18.45 43.87 C21.66 41.59, 24.47 36.09, 26.98 34.05 M18.45 43.87 C20.53 42.14, 22.83 39.06, 26.98 34.05 M3.38 43.36 C3.38 43.36, 3.38 43.36, 3.38 43.36 M3.38 43.36 C3.38 43.36, 3.38 43.36, 3.38 43.36 M16.18 43.88 C12.33 41.26, 10.58 39.75, 5.61 34.7 M16.18 43.88 C14.1 41.51, 10.93 39.28, 5.61 34.7 M24.45 40.47 C18.54 36.07, 9.17 27.38, 5.58 24.07 M24.45 40.47 C20.15 37.78, 16.93 33.64, 5.58 24.07 M28.94 33.77 C23.29 29.65, 17.15 24.15, 5.55 13.44 M28.94 33.77 C21.07 26.6, 13.67 21.11, 5.55 13.44 M28.91 23.14 C24.24 16.78, 16.08 13.82, 3.25 0.84 M28.91 23.14 C18.93 15.02, 9.26 8.15, 3.25 0.84 M28.87 12.51 C20.04 6.21, 14.91 0.07, 10 -3.89 M28.87 12.51 C25.2 10.08, 21.07 4.69, 10 -3.89" stroke="#ffc9c9" stroke-width="1" fill="none"></path><path d="M6.5 0 C10.21 -1.12, 13 1.39, 19.5 0 M6.5 0 C9.83 0.58, 11.96 0.23, 19.5 0 M19.5 0 C24.29 -0.49, 25.71 0.95, 26 6.5 M19.5 0 C24.94 -2.09, 27.72 1.7, 26 6.5 M26 6.5 C24.27 14.85, 27.12 24.05, 26 37.5 M26 6.5 C26.87 17.19, 25.35 27.26, 26 37.5 M26 37.5 C26.92 39.89, 25.03 43.89, 19.5 44 M26 37.5 C25.51 40.29, 22.92 46.24, 19.5 44 M19.5 44 C17.15 43.73, 13.41 45.15, 6.5 44 M19.5 44 C15.18 44.27, 9.85 44.39, 6.5 44 M6.5 44 C2.66 43.87, 1.73 43.31, 0 37.5 M6.5 44 C3.8 44.45, -1.22 41.46, 0 37.5 M0 37.5 C-1.37 27.46, -1.56 21.27, 0 6.5 M0 37.5 C0.29 29.76, 0.26 23.31, 0 6.5 M0 6.5 C-1.76 1.61, 1.59 1.56, 6.5 0 M0 6.5 C0.6 2.38, 1.36 -0.48, 6.5 0" stroke="#1e1e1e" stroke-width="2" fill="none"></path></g><g stroke-linecap="round" transform="translate(683 307) rotate(0 13 22)"><path d="M0.73 3.28 C0.73 3.28, 0.73 3.28, 0.73 3.28 M0.73 3.28 C0.73 3.28, 0.73 3.28, 0.73 3.28 M0.21 16.08 C5.96 10.17, 8.98 6.57, 13.33 0.99 M0.21 16.08 C5.28 11.42, 8.23 5.02, 13.33 0.99 M0.34 28.12 C8.72 19.24, 18.07 7.92, 23.3 1.71 M0.34 28.12 C7.87 19.99, 12.57 12.71, 23.3 1.71 M0.47 40.16 C9.9 30.47, 16.37 20.24, 26.72 9.97 M0.47 40.16 C9.04 29.98, 17.38 20.14, 26.72 9.97 M7.82 43.9 C13.23 37.51, 15.93 34.92, 26.85 22.01 M7.82 43.9 C11.36 39.16, 17.17 34.05, 26.85 22.01 M18.45 43.87 C20.08 41.87, 23.34 40.41, 26.98 34.05 M18.45 43.87 C19.71 41.04, 22.73 39.71, 26.98 34.05 M3.38 43.36 C3.38 43.36, 3.38 43.36, 3.38 43.36 M3.38 43.36 C3.38 43.36, 3.38 43.36, 3.38 43.36 M16.18 43.88 C12.53 39.82, 4.12 32.74, 1.09 30.76 M16.18 43.88 C13.25 41.5, 10.25 37.33, 1.09 30.76 M25.2 41.12 C20.9 35.72, 15.73 32.39, 1.05 20.13 M25.2 41.12 C18.87 34.9, 11.6 28.55, 1.05 20.13 M26.68 31.81 C17.98 24.91, 10.36 18.9, 1.02 9.5 M26.68 31.81 C17.26 23.58, 5.79 13.67, 1.02 9.5 M26.64 21.18 C20.2 13.14, 9.27 5.06, 3.25 0.84 M26.64 21.18 C18.01 12.57, 8.59 5.87, 3.25 0.84 M25.85 9.89 C23.94 7.64, 20.56 4.66, 14.53 0.05 M25.85 9.89 C23.5 7.09, 21.38 5.46, 14.53 0.05" stroke="#ffc9c9" stroke-width="1" fill="none"></path><path d="M6.5 0 C12.21 0.7, 18.12 -1.02, 19.5 0 M6.5 0 C10.86 -0.36, 15.73 -0.56, 19.5 0 M19.5 0 C25.33 -0.4, 25.32 1.21, 26 6.5 M19.5 0 C25.49 -1.81, 26.12 3.63, 26 6.5 M26 6.5 C24.25 19.26, 27.3 27.18, 26 37.5 M26 6.5 C26.74 17.6, 25.93 28.14, 26 37.5 M26 37.5 C25.21 43.78, 22.63 44.75, 19.5 44 M26 37.5 C26.87 43.19, 23.26 44.26, 19.5 44 M19.5 44 C13.89 45.03, 10.16 44.14, 6.5 44 M19.5 44 C15.25 44.47, 10.34 44.12, 6.5 44 M6.5 44 C1.11 43.67, -0.13 40.84, 0 37.5 M6.5 44 C2.52 42.25, -1.07 39.87, 0 37.5 M0 37.5 C-0.86 25.12, -1.22 12.71, 0 6.5 M0 37.5 C-0.01 29.46, 0.53 19.95, 0 6.5 M0 6.5 C-0.71 1.75, 0.66 1.91, 6.5 0 M0 6.5 C-2.15 0.96, 1.81 -0.16, 6.5 0" stroke="#1e1e1e" stroke-width="2" fill="none"></path></g><g stroke-linecap="round"><g transform="translate(601 184.50404902938874) rotate(0 25 -27.07618730606046)"><path d="M0.11 1.14 C8.54 -7.53, 42.16 -43.6, 50.57 -52.98 M-1.29 0.69 C7.03 -8.2, 41.36 -45.32, 49.92 -54.49" stroke="#1e1e1e" stroke-width="2" fill="none"></path></g><g transform="translate(601 184.50404902938874) rotate(0 25 -27.07618730606046)"><path d="M40.2 -31.46 C45.22 -37.47, 48.21 -44.44, 49.92 -54.49 M40.2 -31.46 C42.41 -37.28, 44.98 -41.61, 49.92 -54.49" stroke="#1e1e1e" stroke-width="2" fill="none"></path></g><g transform="translate(601 184.50404902938874) rotate(0 25 -27.07618730606046)"><path d="M27.67 -43.09 C36.38 -45.61, 43.15 -49.06, 49.92 -54.49 M27.67 -43.09 C32.66 -46.36, 37.96 -48.16, 49.92 -54.49" stroke="#1e1e1e" stroke-width="2" fill="none"></path></g></g><mask></mask><g stroke-linecap="round"><g transform="translate(602 183.5206136785231) rotate(0 22.5 3.601536362828057)"><path d="M0.11 0.15 C7.77 1.33, 37.97 5.53, 45.45 6.7 M-0.49 -0.25 C7.17 1.01, 37.73 5.81, 45.25 7.14" stroke="#1e1e1e" stroke-width="2" fill="none"></path></g><g transform="translate(602 183.5206136785231) rotate(0 22.5 3.601536362828057)"><path d="M22.86 11.33 C27.9 11.24, 31.47 9.51, 45.25 7.14 M22.86 11.33 C29.72 9.8, 36.17 8.82, 45.25 7.14" stroke="#1e1e1e" stroke-width="2" fill="none"></path></g><g transform="translate(602 183.5206136785231) rotate(0 22.5 3.601536362828057)"><path d="M25.4 -4.05 C29.85 -0.87, 32.88 0.67, 45.25 7.14 M25.4 -4.05 C31.47 -1.14, 37.19 2.33, 45.25 7.14" stroke="#1e1e1e" stroke-width="2" fill="none"></path></g></g><mask></mask><g stroke-linecap="round"><g transform="translate(601 177.4846689910545) rotate(0 22 47.82886066029704)"><path d="M0.72 0.09 C7.94 16.08, 36.91 78.92, 44.29 94.82 M-0.37 -0.9 C6.64 15.31, 35.98 79.65, 43.49 95.92" stroke="#1e1e1e" stroke-width="2" fill="none"></path></g><g transform="translate(601 177.4846689910545) rotate(0 22 47.82886066029704)"><path d="M25.94 78.12 C32.59 85.25, 37.7 93.14, 43.49 95.92 M25.94 78.12 C30.73 83.88, 36.65 88.89, 43.49 95.92" stroke="#1e1e1e" stroke-width="2" fill="none"></path></g><g transform="translate(601 177.4846689910545) rotate(0 22 47.82886066029704)"><path d="M41.48 71 C42.17 80.92, 41.39 91.51, 43.49 95.92 M41.48 71 C41.8 78.79, 43.26 85.85, 43.49 95.92" stroke="#1e1e1e" stroke-width="2" fill="none"></path></g></g><mask></mask><g stroke-linecap="round"><g transform="translate(594.5094339622642 235) rotate(0 28.245283018867894 48.659090909090935)"><path d="M1.09 1.09 C2.4 8.4, -2.13 28.25, 7.1 44.14 C16.32 60.04, 48.31 87.62, 56.46 96.48 M0.21 0.62 C1.48 7.6, -2.78 26.5, 6.47 42.62 C15.71 58.74, 47.42 88.05, 55.68 97.36" stroke="#1e1e1e" stroke-width="2" fill="none"></path></g><g transform="translate(594.5094339622642 235) rotate(0 28.245283018867894 48.659090909090935)"><path d="M33.17 86.48 C40.34 89.85, 45.74 91.37, 55.68 97.36 M33.17 86.48 C38.31 89.33, 43.42 90.5, 55.68 97.36" stroke="#1e1e1e" stroke-width="2" fill="none"></path></g><g transform="translate(594.5094339622642 235) rotate(0 28.245283018867894 48.659090909090935)"><path d="M45.43 74.55 C49.74 80.85, 52.24 85.19, 55.68 97.36 M45.43 74.55 C47.7 80.15, 49.99 84.06, 55.68 97.36" stroke="#1e1e1e" stroke-width="2" fill="none"></path></g></g><mask></mask></svg>